M48
; DRILL file {KiCad (5.1.10)-1} date 08/27/21 23:45:00
; FORMAT={-:-/ absolute / inch / decimal}
; #@! TF.CreationDate,2021-08-27T23:45:00+02:00
; #@! TF.GenerationSoftware,Kicad,Pcbnew,(5.1.10)-1
; #@! TF.FileFunction,Plated,1,2,PTH
FMAT,2
INCH
T1C0.0197
T2C0.0276
T3C0.0295
T4C0.0315
T5C0.0394
T6C0.0512
%
G90
G05
T1
X0.6016Y0.9381
X0.62Y0.56
X0.85Y0.75
X0.9Y0.9
X1.15Y0.7
X1.21Y0.726
X1.2192Y0.4553
X1.2417Y0.6
X1.36Y0.66
X1.92Y1.2
X1.92Y1.08
T2
X0.65Y0.75
X0.65Y0.65
X0.7Y1.15
X0.7Y0.85
X0.8Y0.85
X0.95Y0.75
X0.95Y0.65
X1.1Y0.85
X1.2Y1.15
X1.2Y0.85
X1.35Y1.15
X1.35Y0.85
X1.45Y1.05
X1.45Y0.9
X1.45Y0.75
X1.75Y1.05
X1.75Y0.9
X1.75Y0.75
T3
X2.05Y0.6
X2.05Y0.5213
X2.05Y0.4425
X2.05Y0.3638
T4
X0.51Y0.49
X0.59Y1.1484
X0.59Y1.05
X0.6084Y0.49
X0.8Y1.15
X0.8Y1.0516
X0.9Y1.15
X0.9Y1.0516
X1.0Y1.15
X1.0Y1.0516
X1.1Y1.15
X1.1Y1.0516
X1.6Y1.15
X1.6984Y1.15
X1.85Y0.46
X1.85Y0.3616
X1.875Y0.775
X2.0128Y0.775
T5
X0.2Y1.35
X0.2Y1.25
X0.2Y1.15
X0.2Y1.025
X0.2Y0.925
X0.2Y0.825
X0.2Y0.725
X0.2Y0.625
X0.2Y0.525
X0.2Y0.425
X0.2Y0.325
X0.2Y0.2
X0.3Y1.2
X0.3Y1.1
X0.3Y1.0
X0.3Y0.9
X0.3Y0.8
X0.3Y0.7
X0.3Y0.6
X0.3Y0.5
X0.3Y0.2
X0.4Y0.2
X0.425Y1.3
X0.425Y1.2
X0.425Y1.1
X0.425Y0.9
X0.425Y0.8
X0.425Y0.7
X0.425Y0.6
X0.425Y0.5
X0.425Y0.4
X0.5Y0.2
X0.525Y0.9
X0.525Y0.8
X0.525Y0.7
X0.525Y0.6
X0.6Y1.275
X0.6Y0.375
X0.6Y0.2
X0.7Y1.275
X0.7Y0.525
X0.7Y0.375
X0.7Y0.2
X0.8Y1.275
X0.8Y0.525
X0.8Y0.375
X0.8Y0.2
X0.9Y1.275
X0.9Y0.525
X0.9Y0.375
X0.9Y0.2
X1.0Y1.275
X1.0Y0.525
X1.0Y0.375
X1.0Y0.2
X1.1Y1.275
X1.1Y0.525
X1.1Y0.375
X1.1Y0.2
X1.2Y1.275
X1.2Y0.525
X1.2Y0.375
X1.2Y0.2
X1.3Y1.275
X1.3Y0.525
X1.3Y0.375
X1.3Y0.2
X1.4Y1.275
X1.4Y0.525
X1.4Y0.375
X1.4Y0.2
X1.5Y1.275
X1.5Y0.525
X1.5Y0.375
X1.5Y0.2
X1.6Y1.275
X1.6Y0.525
X1.6Y0.375
X1.6Y0.2
X1.7Y1.275
X1.7Y0.375
X1.7Y0.2
X1.8Y0.2
X1.9Y0.2
X2.0Y0.2
X2.1Y0.2
X2.2Y1.2
X2.2Y1.1
X2.2Y1.0
X2.2Y0.9
X2.2Y0.8
X2.2Y0.7
X2.2Y0.6
X2.2Y0.5
X2.2Y0.2
T6
X2.21Y0.38
T0
M30
