G04 #@! TF.GenerationSoftware,KiCad,Pcbnew,(5.1.10)-1*
G04 #@! TF.CreationDate,2021-08-27T23:45:12+02:00*
G04 #@! TF.ProjectId,JuntekOnSteroidsTTGO,4a756e74-656b-44f6-9e53-7465726f6964,2.5*
G04 #@! TF.SameCoordinates,PX5b716c8PY5b716c8*
G04 #@! TF.FileFunction,Copper,L1,Top*
G04 #@! TF.FilePolarity,Positive*
%FSLAX46Y46*%
G04 Gerber Fmt 4.6, Leading zero omitted, Abs format (unit mm)*
G04 Created by KiCad (PCBNEW (5.1.10)-1) date 2021-08-27 23:45:12*
%MOMM*%
%LPD*%
G01*
G04 APERTURE LIST*
G04 #@! TA.AperFunction,ComponentPad*
%ADD10C,1.600000*%
G04 #@! TD*
G04 #@! TA.AperFunction,ComponentPad*
%ADD11R,1.600000X1.600000*%
G04 #@! TD*
G04 #@! TA.AperFunction,ComponentPad*
%ADD12O,1.700000X1.700000*%
G04 #@! TD*
G04 #@! TA.AperFunction,ComponentPad*
%ADD13R,1.700000X1.700000*%
G04 #@! TD*
G04 #@! TA.AperFunction,ComponentPad*
%ADD14C,2.600000*%
G04 #@! TD*
G04 #@! TA.AperFunction,ComponentPad*
%ADD15O,1.400000X1.400000*%
G04 #@! TD*
G04 #@! TA.AperFunction,ComponentPad*
%ADD16C,1.400000*%
G04 #@! TD*
G04 #@! TA.AperFunction,SMDPad,CuDef*
%ADD17C,0.500000*%
G04 #@! TD*
G04 #@! TA.AperFunction,ComponentPad*
%ADD18O,1.750000X1.200000*%
G04 #@! TD*
G04 #@! TA.AperFunction,ViaPad*
%ADD19C,0.900000*%
G04 #@! TD*
G04 #@! TA.AperFunction,Conductor*
%ADD20C,0.570000*%
G04 #@! TD*
G04 #@! TA.AperFunction,Conductor*
%ADD21C,0.300000*%
G04 #@! TD*
G04 #@! TA.AperFunction,Conductor*
%ADD22C,0.600000*%
G04 #@! TD*
G04 #@! TA.AperFunction,Conductor*
%ADD23C,0.550000*%
G04 #@! TD*
G04 #@! TA.AperFunction,Conductor*
%ADD24C,0.254000*%
G04 #@! TD*
G04 #@! TA.AperFunction,Conductor*
%ADD25C,0.100000*%
G04 #@! TD*
G04 APERTURE END LIST*
D10*
G04 #@! TO.P,C7,2*
G04 #@! TO.N,GND*
X51125000Y19685000D03*
D11*
G04 #@! TO.P,C7,1*
G04 #@! TO.N,VCC*
X47625000Y19685000D03*
G04 #@! TD*
D12*
G04 #@! TO.P,J3,8*
G04 #@! TO.N,/J1.8*
X5080000Y8255000D03*
G04 #@! TO.P,J3,7*
G04 #@! TO.N,/J1.7*
X5080000Y10795000D03*
G04 #@! TO.P,J3,6*
G04 #@! TO.N,/J1.6*
X5080000Y13335000D03*
G04 #@! TO.P,J3,5*
G04 #@! TO.N,/J1.5*
X5080000Y15875000D03*
G04 #@! TO.P,J3,4*
G04 #@! TO.N,/J1.4*
X5080000Y18415000D03*
G04 #@! TO.P,J3,3*
G04 #@! TO.N,/J1.3*
X5080000Y20955000D03*
G04 #@! TO.P,J3,2*
G04 #@! TO.N,/J1.2*
X5080000Y23495000D03*
D13*
G04 #@! TO.P,J3,1*
G04 #@! TO.N,/J1.1*
X5080000Y26035000D03*
G04 #@! TD*
D14*
G04 #@! TO.P,TP1,1*
G04 #@! TO.N,GND*
X56134000Y9652000D03*
G04 #@! TD*
D10*
G04 #@! TO.P,C9,2*
G04 #@! TO.N,/+3V3*
X15454000Y12446000D03*
G04 #@! TO.P,C9,1*
G04 #@! TO.N,GND*
X12954000Y12446000D03*
G04 #@! TD*
D15*
G04 #@! TO.P,R16,2*
G04 #@! TO.N,/GPIO12*
X24130000Y19050000D03*
D16*
G04 #@! TO.P,R16,1*
G04 #@! TO.N,Net-(J22-Pad2)*
X16510000Y19050000D03*
G04 #@! TD*
D17*
G04 #@! TO.P,FID2,*
G04 #@! TO.N,*
X55880000Y32385000D03*
G04 #@! TD*
D12*
G04 #@! TO.P,J61,3*
G04 #@! TO.N,/J6.3*
X10795000Y33020000D03*
G04 #@! TO.P,J61,2*
G04 #@! TO.N,/J6.2*
X10795000Y30480000D03*
D13*
G04 #@! TO.P,J61,1*
G04 #@! TO.N,/J6.1*
X10795000Y27940000D03*
G04 #@! TD*
D12*
G04 #@! TO.P,J22,2*
G04 #@! TO.N,Net-(J22-Pad2)*
X10795000Y12700000D03*
D13*
G04 #@! TO.P,J22,1*
G04 #@! TO.N,Net-(J22-Pad1)*
X10795000Y10160000D03*
G04 #@! TD*
D12*
G04 #@! TO.P,J21,8*
G04 #@! TO.N,Net-(J21-Pad8)*
X10795000Y22860000D03*
G04 #@! TO.P,J21,7*
G04 #@! TO.N,Net-(J21-Pad7)*
X13335000Y22860000D03*
G04 #@! TO.P,J21,6*
G04 #@! TO.N,/ADC2*
X10795000Y20320000D03*
G04 #@! TO.P,J21,5*
G04 #@! TO.N,Net-(J21-Pad5)*
X13335000Y20320000D03*
G04 #@! TO.P,J21,4*
G04 #@! TO.N,/ADC1*
X10795000Y17780000D03*
G04 #@! TO.P,J21,3*
G04 #@! TO.N,/A1*
X13335000Y17780000D03*
G04 #@! TO.P,J21,2*
G04 #@! TO.N,/ADC0*
X10795000Y15240000D03*
D13*
G04 #@! TO.P,J21,1*
G04 #@! TO.N,/A0*
X13335000Y15240000D03*
G04 #@! TD*
D18*
G04 #@! TO.P,J7,4*
G04 #@! TO.N,GND*
X52070000Y9240000D03*
G04 #@! TO.P,J7,3*
G04 #@! TO.N,/+3V3*
X52070000Y11240000D03*
G04 #@! TO.P,J7,2*
G04 #@! TO.N,/SDA*
X52070000Y13240000D03*
G04 #@! TO.P,J7,1*
G04 #@! TO.N,/SCL*
G04 #@! TA.AperFunction,ComponentPad*
G36*
G01*
X51444999Y15840000D02*
X52695001Y15840000D01*
G75*
G02*
X52945000Y15590001I0J-249999D01*
G01*
X52945000Y14889999D01*
G75*
G02*
X52695001Y14640000I-249999J0D01*
G01*
X51444999Y14640000D01*
G75*
G02*
X51195000Y14889999I0J249999D01*
G01*
X51195000Y15590001D01*
G75*
G02*
X51444999Y15840000I249999J0D01*
G01*
G37*
G04 #@! TD.AperFunction*
G04 #@! TD*
D12*
G04 #@! TO.P,J10,10*
G04 #@! TO.N,/A3*
X40640000Y13335000D03*
G04 #@! TO.P,J10,9*
G04 #@! TO.N,/A2*
X38100000Y13335000D03*
G04 #@! TO.P,J10,8*
G04 #@! TO.N,/A1*
X35560000Y13335000D03*
G04 #@! TO.P,J10,7*
G04 #@! TO.N,/A0*
X33020000Y13335000D03*
G04 #@! TO.P,J10,6*
G04 #@! TO.N,N/C*
X30480000Y13335000D03*
G04 #@! TO.P,J10,5*
X27940000Y13335000D03*
G04 #@! TO.P,J10,4*
G04 #@! TO.N,/SDA*
X25400000Y13335000D03*
G04 #@! TO.P,J10,3*
G04 #@! TO.N,/SCL*
X22860000Y13335000D03*
G04 #@! TO.P,J10,2*
G04 #@! TO.N,GND*
X20320000Y13335000D03*
D13*
G04 #@! TO.P,J10,1*
G04 #@! TO.N,/+3V3*
X17780000Y13335000D03*
G04 #@! TD*
D15*
G04 #@! TO.P,R13,2*
G04 #@! TO.N,/A2*
X44450000Y22860000D03*
D16*
G04 #@! TO.P,R13,1*
G04 #@! TO.N,Net-(J21-Pad5)*
X36830000Y22860000D03*
G04 #@! TD*
D10*
G04 #@! TO.P,C6,2*
G04 #@! TO.N,/+3V3*
X46990000Y11684000D03*
G04 #@! TO.P,C6,1*
G04 #@! TO.N,GND*
X46990000Y9184000D03*
G04 #@! TD*
G04 #@! TO.P,C5,2*
G04 #@! TO.N,/+3V3*
X14986000Y29170000D03*
G04 #@! TO.P,C5,1*
G04 #@! TO.N,GND*
X14986000Y26670000D03*
G04 #@! TD*
D12*
G04 #@! TO.P,J30,21*
G04 #@! TO.N,GND*
X55880000Y5080000D03*
G04 #@! TO.P,J30,20*
G04 #@! TO.N,N/C*
X53340000Y5080000D03*
G04 #@! TO.P,J30,19*
X50800000Y5080000D03*
G04 #@! TO.P,J30,18*
X48260000Y5080000D03*
G04 #@! TO.P,J30,17*
X45720000Y5080000D03*
G04 #@! TO.P,J30,16*
X43180000Y5080000D03*
G04 #@! TO.P,J30,15*
G04 #@! TO.N,VCC*
X40640000Y5080000D03*
G04 #@! TO.P,J30,14*
G04 #@! TO.N,/+3V3*
X38100000Y5080000D03*
G04 #@! TO.P,J30,13*
G04 #@! TO.N,GND*
X35560000Y5080000D03*
G04 #@! TO.P,J30,12*
G04 #@! TO.N,/GPIO33*
X33020000Y5080000D03*
G04 #@! TO.P,J30,11*
G04 #@! TO.N,/GPIO27*
X30480000Y5080000D03*
G04 #@! TO.P,J30,10*
G04 #@! TO.N,/GPIO26*
X27940000Y5080000D03*
G04 #@! TO.P,J30,9*
G04 #@! TO.N,/GPIO25*
X25400000Y5080000D03*
G04 #@! TO.P,J30,8*
G04 #@! TO.N,/GPIO12*
X22860000Y5080000D03*
G04 #@! TO.P,J30,7*
G04 #@! TO.N,/FanPWM*
X20320000Y5080000D03*
G04 #@! TO.P,J30,6*
G04 #@! TO.N,/GPIO13*
X17780000Y5080000D03*
G04 #@! TO.P,J30,5*
G04 #@! TO.N,/GPIO17*
X15240000Y5080000D03*
G04 #@! TO.P,J30,4*
G04 #@! TO.N,/SCL*
X12700000Y5080000D03*
G04 #@! TO.P,J30,3*
G04 #@! TO.N,/SDA*
X10160000Y5080000D03*
G04 #@! TO.P,J30,2*
G04 #@! TO.N,/+3V3*
X7620000Y5080000D03*
D13*
G04 #@! TO.P,J30,1*
G04 #@! TO.N,GND*
X5080000Y5080000D03*
G04 #@! TD*
D15*
G04 #@! TO.P,R20,2*
G04 #@! TO.N,GND*
X17780000Y21590000D03*
D16*
G04 #@! TO.P,R20,1*
G04 #@! TO.N,/J6.1*
X17780000Y29210000D03*
G04 #@! TD*
D15*
G04 #@! TO.P,R18,2*
G04 #@! TO.N,/FanPWM*
X24130000Y16510000D03*
D16*
G04 #@! TO.P,R18,1*
G04 #@! TO.N,Net-(J22-Pad1)*
X16510000Y16510000D03*
G04 #@! TD*
D15*
G04 #@! TO.P,R17,2*
G04 #@! TO.N,/A3*
X44450000Y19050000D03*
D16*
G04 #@! TO.P,R17,1*
G04 #@! TO.N,Net-(J21-Pad7)*
X36830000Y19050000D03*
G04 #@! TD*
D15*
G04 #@! TO.P,R15,2*
G04 #@! TO.N,GND*
X44450000Y26670000D03*
D16*
G04 #@! TO.P,R15,1*
G04 #@! TO.N,Net-(J22-Pad2)*
X36830000Y26670000D03*
G04 #@! TD*
D15*
G04 #@! TO.P,R12,2*
G04 #@! TO.N,/J1.4*
X34290000Y29210000D03*
D16*
G04 #@! TO.P,R12,1*
G04 #@! TO.N,/GPIO15*
X34290000Y21590000D03*
G04 #@! TD*
D15*
G04 #@! TO.P,R11,2*
G04 #@! TO.N,/J1.5*
X20320000Y21590000D03*
D16*
G04 #@! TO.P,R11,1*
G04 #@! TO.N,/GPIO13*
X27940000Y21590000D03*
G04 #@! TD*
D10*
G04 #@! TO.P,C3,2*
G04 #@! TO.N,GND*
X25400000Y26710000D03*
G04 #@! TO.P,C3,1*
G04 #@! TO.N,/ADC2*
X25400000Y29210000D03*
G04 #@! TD*
G04 #@! TO.P,C2,2*
G04 #@! TO.N,GND*
X22860000Y26710000D03*
G04 #@! TO.P,C2,1*
G04 #@! TO.N,/ADC1*
X22860000Y29210000D03*
G04 #@! TD*
G04 #@! TO.P,C1,2*
G04 #@! TO.N,GND*
X20320000Y26710000D03*
G04 #@! TO.P,C1,1*
G04 #@! TO.N,/ADC0*
X20320000Y29210000D03*
G04 #@! TD*
D15*
G04 #@! TO.P,R14,2*
G04 #@! TO.N,Net-(J21-Pad8)*
X30480000Y21590000D03*
D16*
G04 #@! TO.P,R14,1*
G04 #@! TO.N,/ADC3*
X30480000Y29210000D03*
G04 #@! TD*
D12*
G04 #@! TO.P,J6,3*
G04 #@! TO.N,/J6.3*
X5080000Y29210000D03*
G04 #@! TO.P,J6,2*
G04 #@! TO.N,/J6.2*
X5080000Y31750000D03*
D13*
G04 #@! TO.P,J6,1*
G04 #@! TO.N,/J6.1*
X5080000Y34290000D03*
G04 #@! TD*
D10*
G04 #@! TO.P,C8,2*
G04 #@! TO.N,GND*
X40640000Y29210000D03*
G04 #@! TO.P,C8,1*
G04 #@! TO.N,VCC*
X43140000Y29210000D03*
G04 #@! TD*
G04 #@! TO.P,C4,2*
G04 #@! TO.N,GND*
X27940000Y26710000D03*
G04 #@! TO.P,C4,1*
G04 #@! TO.N,/ADC3*
X27940000Y29210000D03*
G04 #@! TD*
D17*
G04 #@! TO.P,FID3,*
G04 #@! TO.N,*
X55880000Y7620000D03*
G04 #@! TD*
G04 #@! TO.P,FID1,*
G04 #@! TO.N,*
X7620000Y33020000D03*
G04 #@! TD*
D12*
G04 #@! TO.P,J5,12*
G04 #@! TO.N,GND*
X15240000Y9525000D03*
G04 #@! TO.P,J5,11*
X17780000Y9525000D03*
G04 #@! TO.P,J5,10*
G04 #@! TO.N,/SDA*
X20320000Y9525000D03*
G04 #@! TO.P,J5,9*
G04 #@! TO.N,/SCL*
X22860000Y9525000D03*
G04 #@! TO.P,J5,8*
G04 #@! TO.N,/GPIO17*
X25400000Y9525000D03*
G04 #@! TO.P,J5,7*
G04 #@! TO.N,/FanPWM*
X27940000Y9525000D03*
G04 #@! TO.P,J5,6*
G04 #@! TO.N,/GPIO15*
X30480000Y9525000D03*
G04 #@! TO.P,J5,5*
G04 #@! TO.N,/GPIO13*
X33020000Y9525000D03*
G04 #@! TO.P,J5,4*
G04 #@! TO.N,/GPIO12*
X35560000Y9525000D03*
G04 #@! TO.P,J5,3*
G04 #@! TO.N,GND*
X38100000Y9525000D03*
G04 #@! TO.P,J5,2*
X40640000Y9525000D03*
D13*
G04 #@! TO.P,J5,1*
G04 #@! TO.N,/+3V3*
X43180000Y9525000D03*
G04 #@! TD*
D12*
G04 #@! TO.P,J4,12*
G04 #@! TO.N,/+3V3*
X15240000Y32385000D03*
G04 #@! TO.P,J4,11*
G04 #@! TO.N,/ADC0*
X17780000Y32385000D03*
G04 #@! TO.P,J4,10*
G04 #@! TO.N,/ADC1*
X20320000Y32385000D03*
G04 #@! TO.P,J4,9*
G04 #@! TO.N,/ADC2*
X22860000Y32385000D03*
G04 #@! TO.P,J4,8*
G04 #@! TO.N,/ADC3*
X25400000Y32385000D03*
G04 #@! TO.P,J4,7*
G04 #@! TO.N,/GPIO32*
X27940000Y32385000D03*
G04 #@! TO.P,J4,6*
G04 #@! TO.N,/GPIO33*
X30480000Y32385000D03*
G04 #@! TO.P,J4,5*
G04 #@! TO.N,/GPIO25*
X33020000Y32385000D03*
G04 #@! TO.P,J4,4*
G04 #@! TO.N,/GPIO26*
X35560000Y32385000D03*
G04 #@! TO.P,J4,3*
G04 #@! TO.N,/GPIO27*
X38100000Y32385000D03*
G04 #@! TO.P,J4,2*
G04 #@! TO.N,GND*
X40640000Y32385000D03*
D13*
G04 #@! TO.P,J4,1*
G04 #@! TO.N,VCC*
X43180000Y32385000D03*
G04 #@! TD*
D12*
G04 #@! TO.P,J2,8*
G04 #@! TO.N,/GPIO32*
X55880000Y12700000D03*
G04 #@! TO.P,J2,7*
G04 #@! TO.N,/GPIO17*
X55880000Y15240000D03*
G04 #@! TO.P,J2,6*
G04 #@! TO.N,VCC*
X55880000Y17780000D03*
G04 #@! TO.P,J2,5*
X55880000Y20320000D03*
G04 #@! TO.P,J2,4*
G04 #@! TO.N,/GNDD*
X55880000Y22860000D03*
G04 #@! TO.P,J2,3*
X55880000Y25400000D03*
G04 #@! TO.P,J2,2*
G04 #@! TO.N,/GNDA*
X55880000Y27940000D03*
D13*
G04 #@! TO.P,J2,1*
X55880000Y30480000D03*
G04 #@! TD*
D12*
G04 #@! TO.P,J1,8*
G04 #@! TO.N,/J1.8*
X7620000Y12700000D03*
G04 #@! TO.P,J1,7*
G04 #@! TO.N,/J1.7*
X7620000Y15240000D03*
G04 #@! TO.P,J1,6*
G04 #@! TO.N,/J1.6*
X7620000Y17780000D03*
G04 #@! TO.P,J1,5*
G04 #@! TO.N,/J1.5*
X7620000Y20320000D03*
G04 #@! TO.P,J1,4*
G04 #@! TO.N,/J1.4*
X7620000Y22860000D03*
G04 #@! TO.P,J1,3*
G04 #@! TO.N,/J1.3*
X7620000Y25400000D03*
G04 #@! TO.P,J1,2*
G04 #@! TO.N,/J1.2*
X7620000Y27940000D03*
D13*
G04 #@! TO.P,J1,1*
G04 #@! TO.N,/J1.1*
X7620000Y30480000D03*
G04 #@! TD*
D19*
G04 #@! TO.N,/GPIO13*
X30966481Y11565021D03*
X30734000Y18440045D03*
G04 #@! TO.N,/A1*
X34544000Y16764000D03*
G04 #@! TO.N,/A0*
X31540284Y15240003D03*
G04 #@! TO.N,/+3V3*
X48768000Y27432000D03*
X48768000Y30479986D03*
G04 #@! TO.N,/J1.4*
X15280403Y23827975D03*
G04 #@! TO.N,Net-(J22-Pad2)*
X21590000Y19050000D03*
X22860000Y22860000D03*
G04 #@! TO.N,Net-(J22-Pad1)*
X15747990Y14224000D03*
G04 #@! TO.N,/GPIO15*
X29210000Y17780002D03*
G04 #@! TD*
D20*
G04 #@! TO.N,VCC*
X55880000Y20320000D02*
X55880000Y17780000D01*
X43180000Y29250000D02*
X43140000Y29210000D01*
X43180000Y32385000D02*
X43180000Y29250000D01*
X43140000Y29210000D02*
X45720000Y29210000D01*
X45720000Y29210000D02*
X46990000Y27940000D01*
X55515402Y20320000D02*
X49977006Y25858396D01*
X49977006Y25858396D02*
X49977006Y27952897D01*
X55880000Y20320000D02*
X55515402Y20320000D01*
X49432915Y28496988D02*
X47546988Y28496988D01*
X47546988Y28496988D02*
X46990000Y27940000D01*
X49977006Y27952897D02*
X49432915Y28496988D01*
X47625000Y27305000D02*
X47625000Y19685000D01*
X46990000Y27940000D02*
X47625000Y27305000D01*
X44577000Y12827000D02*
X47625000Y15875000D01*
X44577000Y6985000D02*
X44577000Y12827000D01*
X43053000Y6985000D02*
X44577000Y6985000D01*
X47625000Y15875000D02*
X47625000Y19685000D01*
X41148000Y5080000D02*
X43053000Y6985000D01*
X40640000Y5080000D02*
X41148000Y5080000D01*
D21*
G04 #@! TO.N,/GPIO27*
X34240001Y8840001D02*
X34240001Y11430000D01*
X38100000Y28702000D02*
X38100000Y32385000D01*
X35687000Y11430000D02*
X36879999Y12622999D01*
X36879999Y15310179D02*
X39890010Y18320190D01*
X30480000Y5080000D02*
X34240001Y8840001D01*
X39890010Y18320190D02*
X39890010Y26911990D01*
X34240001Y11430000D02*
X35687000Y11430000D01*
X39890010Y26911990D02*
X38100000Y28702000D01*
X36879999Y12622999D02*
X36879999Y15310179D01*
G04 #@! TO.N,/SDA*
X19099999Y8304999D02*
X20320000Y9525000D01*
X13384999Y8304999D02*
X19099999Y8304999D01*
X10160000Y5080000D02*
X13384999Y8304999D01*
X24179999Y14555001D02*
X25400000Y13335000D01*
X22274399Y14555001D02*
X24179999Y14555001D01*
X21540001Y13820603D02*
X22274399Y14555001D01*
X21540001Y10745001D02*
X21540001Y13820603D01*
X20320000Y9525000D02*
X21540001Y10745001D01*
G04 #@! TO.N,/SCL*
X19585209Y7340021D02*
X20143209Y7898021D01*
X21233021Y7898021D02*
X22860000Y9525000D01*
X12700000Y5080000D02*
X14960021Y7340021D01*
X20143209Y7898021D02*
X21233021Y7898021D01*
X14960021Y7340021D02*
X19585209Y7340021D01*
X22860000Y9525000D02*
X22860000Y13335000D01*
G04 #@! TO.N,/GPIO13*
X33020000Y9525000D02*
X33020000Y9398000D01*
X26719999Y9039397D02*
X26719999Y10717999D01*
X22858992Y7620000D02*
X25300602Y7620000D01*
X27567021Y11565021D02*
X30966481Y11565021D01*
X19000001Y6300001D02*
X21538993Y6300001D01*
X21538993Y6300001D02*
X22858992Y7620000D01*
X17780000Y5080000D02*
X19000001Y6300001D01*
X25300602Y7620000D02*
X26719999Y9039397D01*
X26719999Y10717999D02*
X27567021Y11565021D01*
X27940000Y21590000D02*
X30734000Y18796000D01*
X30734000Y18796000D02*
X30734000Y18440045D01*
G04 #@! TO.N,/ADC0*
X20320000Y29210000D02*
X20320000Y31115000D01*
X19050000Y31115000D02*
X17780000Y32385000D01*
X19050000Y31115000D02*
X20320000Y31115000D01*
X20320000Y29210000D02*
X18950001Y27840001D01*
X18950001Y27840001D02*
X14378001Y27840001D01*
X14378001Y27840001D02*
X12192000Y25654000D01*
X9574999Y14019999D02*
X10795000Y15240000D01*
X4494999Y14654399D02*
X6399999Y14654399D01*
X7034399Y14019999D02*
X9574999Y14019999D01*
X3859999Y15289399D02*
X4494999Y14654399D01*
X3859999Y21540601D02*
X3859999Y15289399D01*
X4593797Y22274399D02*
X3859999Y21540601D01*
X6399999Y23445601D02*
X6399999Y22274399D01*
X7034399Y24080001D02*
X6399999Y23445601D01*
X6399999Y14654399D02*
X7034399Y14019999D01*
X6399999Y22274399D02*
X4593797Y22274399D01*
X8205601Y24080001D02*
X7034399Y24080001D01*
X9779600Y25654000D02*
X8205601Y24080001D01*
X12192000Y25654000D02*
X9779600Y25654000D01*
G04 #@! TO.N,/ADC1*
X21590000Y31115000D02*
X20320000Y32385000D01*
X21590000Y30480000D02*
X22860000Y29210000D01*
X21590000Y31115000D02*
X21590000Y30480000D01*
X7084398Y21590000D02*
X6300001Y20805603D01*
X6300001Y20805603D02*
X6300001Y16559999D01*
X6350000Y16510000D02*
X9525000Y16510000D01*
X9525000Y16510000D02*
X10795000Y17780000D01*
X22860000Y29210000D02*
X21490001Y27840001D01*
X9054988Y21754988D02*
X8890000Y21590000D01*
X10514015Y25120023D02*
X9054989Y23660997D01*
X21490001Y27840001D02*
X21490001Y26148399D01*
X8890000Y21590000D02*
X7084398Y21590000D01*
X21490001Y26148399D02*
X20823511Y25481909D01*
X14513511Y25481909D02*
X14151625Y25120023D01*
X6300001Y16559999D02*
X6350000Y16510000D01*
X9054989Y23660997D02*
X9054988Y21754988D01*
X20823511Y25481909D02*
X14513511Y25481909D01*
X14151625Y25120023D02*
X10514015Y25120023D01*
G04 #@! TO.N,/ADC2*
X25400000Y29845000D02*
X25400000Y29210000D01*
X22860000Y32385000D02*
X25400000Y29845000D01*
X22843500Y24961898D02*
X24130000Y26248398D01*
X10795000Y20320000D02*
X9575000Y21540000D01*
X14838796Y24600012D02*
X15200682Y24961898D01*
X24130000Y27940000D02*
X25400000Y29210000D01*
X9575000Y21540000D02*
X9575000Y23380030D01*
X15200682Y24961898D02*
X22843500Y24961898D01*
X24130000Y26248398D02*
X24130000Y27940000D01*
X9575000Y23380030D02*
X10794982Y24600012D01*
X10794982Y24600012D02*
X14838796Y24600012D01*
G04 #@! TO.N,/ADC3*
X30480000Y29210000D02*
X27940000Y29210000D01*
X27940000Y29845000D02*
X27940000Y29210000D01*
X25400000Y32385000D02*
X27940000Y29845000D01*
G04 #@! TO.N,/GPIO32*
X57150000Y13970000D02*
X55880000Y12700000D01*
X56437999Y21540001D02*
X57150000Y20828000D01*
X54659999Y24898399D02*
X54659999Y22302001D01*
X57150000Y20828000D02*
X57150000Y13970000D01*
X46228000Y31298398D02*
X48374399Y29151999D01*
X46228000Y31806398D02*
X46228000Y31298398D01*
X54659999Y22302001D02*
X55421999Y21540001D01*
X27940000Y32385000D02*
X29682989Y34127989D01*
X48374399Y29151999D02*
X50406399Y29151999D01*
X43906409Y34127989D02*
X46228000Y31806398D01*
X50406399Y29151999D02*
X54659999Y24898399D01*
X55421999Y21540001D02*
X56437999Y21540001D01*
X29682989Y34127989D02*
X43906409Y34127989D01*
G04 #@! TO.N,/GPIO25*
X34759004Y15075012D02*
X35174020Y15075012D01*
X34238993Y14555001D02*
X34759004Y15075012D01*
X25400000Y5080000D02*
X29259999Y8939999D01*
X38420012Y26911176D02*
X37059978Y28271210D01*
X31799999Y13920601D02*
X32434399Y14555001D01*
X37059978Y28271210D02*
X37059978Y28345022D01*
X37059978Y28345022D02*
X33020000Y32385000D01*
X29259999Y10110601D02*
X29894399Y10745001D01*
X32434399Y14555001D02*
X34238993Y14555001D01*
X29894399Y10745001D02*
X31516606Y10745001D01*
X38420012Y18321004D02*
X38420012Y26911176D01*
X31799999Y11028394D02*
X31799999Y13920601D01*
X31516606Y10745001D02*
X31799999Y11028394D01*
X35174020Y15075012D02*
X38420012Y18321004D01*
X29259999Y8939999D02*
X29259999Y10110601D01*
G04 #@! TO.N,/GPIO26*
X31799999Y10263189D02*
X34339999Y12803189D01*
X37579989Y28486605D02*
X37579989Y28740605D01*
X37579989Y28740605D02*
X35560000Y30760594D01*
X38940023Y18105609D02*
X38940022Y27126572D01*
X31799999Y8939399D02*
X31799999Y10263189D01*
X35560000Y30760594D02*
X35560000Y32385000D01*
X34974399Y14555001D02*
X35389415Y14555001D01*
X34339999Y12803189D02*
X34339999Y13920601D01*
X34339999Y13920601D02*
X34974399Y14555001D01*
X35389415Y14555001D02*
X38940023Y18105609D01*
X27940000Y5080000D02*
X27940600Y5080000D01*
X38940022Y27126572D02*
X37579989Y28486605D01*
X27940600Y5080000D02*
X31799999Y8939399D01*
G04 #@! TO.N,/GPIO17*
X21323598Y6820012D02*
X22643597Y8140011D01*
X16980011Y6820011D02*
X21323598Y6820012D01*
X15240000Y5080000D02*
X16980011Y6820011D01*
X24015011Y8140011D02*
X25400000Y9525000D01*
X22643597Y8140011D02*
X24015011Y8140011D01*
G04 #@! TO.N,/A3*
X40640000Y15240000D02*
X44450000Y19050000D01*
X40640000Y13335000D02*
X40640000Y15240000D01*
G04 #@! TO.N,/A2*
X41910000Y19604774D02*
X41910000Y20320000D01*
X38100000Y15794774D02*
X41910000Y19604774D01*
X38100000Y13335000D02*
X38100000Y15794774D01*
X41910000Y20320000D02*
X44450000Y22860000D01*
G04 #@! TO.N,/A1*
X33840013Y16060013D02*
X34544000Y16764000D01*
X13335000Y17780000D02*
X24493572Y17780000D01*
X30879659Y15792980D02*
X31146692Y16060013D01*
X31146692Y16060013D02*
X33840013Y16060013D01*
X24493572Y17780000D02*
X26480592Y15792980D01*
X26480592Y15792980D02*
X30879659Y15792980D01*
G04 #@! TO.N,/A0*
X13393001Y15298001D02*
X16395601Y15298001D01*
X16395601Y15298001D02*
X16453602Y15240000D01*
X31540281Y15240000D02*
X31540284Y15240003D01*
X16453602Y15240000D02*
X31540281Y15240000D01*
X13335000Y15240000D02*
X13393001Y15298001D01*
D20*
G04 #@! TO.N,/+3V3*
X43180000Y8636000D02*
X43180000Y9525000D01*
X41148000Y6604000D02*
X43180000Y8636000D01*
X39624000Y6604000D02*
X41148000Y6604000D01*
X38100000Y5080000D02*
X39624000Y6604000D01*
X49720000Y11240000D02*
X52070000Y11240000D01*
X46990000Y11684000D02*
X49276000Y11684000D01*
D22*
X48945001Y12014999D02*
X49403000Y11557000D01*
X48945001Y27254999D02*
X48945001Y12014999D01*
X48768000Y27432000D02*
X48945001Y27254999D01*
D20*
X49403000Y11557000D02*
X49720000Y11240000D01*
X49276000Y11684000D02*
X49403000Y11557000D01*
D22*
X15240000Y32385000D02*
X17653000Y34798000D01*
X17653000Y34798000D02*
X44449986Y34798000D01*
X44449986Y34798000D02*
X48768000Y30479986D01*
X8990001Y6450001D02*
X7620000Y5080000D01*
X10145141Y6450001D02*
X8990001Y6450001D01*
X17780000Y13335000D02*
X17030140Y13335000D01*
X17030140Y13335000D02*
X10145141Y6450001D01*
X17780000Y13335000D02*
X17653000Y13335000D01*
X16764000Y12446000D02*
X15454000Y12446000D01*
X17653000Y13335000D02*
X16764000Y12446000D01*
D21*
G04 #@! TO.N,/GPIO12*
X35560000Y9424596D02*
X35560000Y9525000D01*
X31750000Y5614596D02*
X35560000Y9424596D01*
X31750000Y4444400D02*
X31750000Y5614596D01*
X31165599Y3859999D02*
X31750000Y4444400D01*
X24080001Y3859999D02*
X31165599Y3859999D01*
X22860000Y5080000D02*
X24080001Y3859999D01*
G04 #@! TO.N,/J1.1*
X7620000Y30480000D02*
X7620000Y29745602D01*
G04 #@! TO.N,/J1.5*
X8939999Y19000001D02*
X7620000Y20320000D01*
X12015001Y19635001D02*
X11380001Y19000001D01*
X17266399Y22660001D02*
X16114370Y21507972D01*
X12396001Y21540001D02*
X12015001Y21159001D01*
X14669608Y21507972D02*
X14637579Y21540001D01*
X12015001Y21159001D02*
X12015001Y19635001D01*
X14637579Y21540001D02*
X12396001Y21540001D01*
X16114370Y21507972D02*
X14669608Y21507972D01*
X20320000Y21590000D02*
X19249999Y22660001D01*
X11380001Y19000001D02*
X8939999Y19000001D01*
X19249999Y22660001D02*
X17266399Y22660001D01*
G04 #@! TO.N,/J1.4*
X15836428Y24384000D02*
X15280403Y23827975D01*
X31496000Y24384000D02*
X15836428Y24384000D01*
X34290000Y27178000D02*
X31496000Y24384000D01*
X34290000Y29210000D02*
X34290000Y27178000D01*
G04 #@! TO.N,/J6.2*
X9525000Y31750000D02*
X10795000Y30480000D01*
X5080000Y31750000D02*
X9525000Y31750000D01*
G04 #@! TO.N,/J6.3*
X3859999Y30430001D02*
X5080000Y29210000D01*
X3859999Y32335601D02*
X3859999Y30430001D01*
X4494399Y32970001D02*
X3859999Y32335601D01*
X6126003Y32970001D02*
X4494399Y32970001D01*
X6826003Y33670001D02*
X6126003Y32970001D01*
X10144999Y33670001D02*
X6826003Y33670001D01*
X10795000Y33020000D02*
X10144999Y33670001D01*
G04 #@! TO.N,/FanPWM*
X21055406Y5080000D02*
X22821395Y6845989D01*
X27940000Y9170594D02*
X27940000Y9525000D01*
X25615395Y6845989D02*
X27940000Y9170594D01*
X22821395Y6845989D02*
X25615395Y6845989D01*
X20320000Y5080000D02*
X21055406Y5080000D01*
G04 #@! TO.N,Net-(J21-Pad7)*
X27362100Y16890304D02*
X30506175Y16890304D01*
X30506175Y16890304D02*
X30715895Y17100024D01*
X30715895Y17100024D02*
X32003035Y17100024D01*
X26611999Y17640405D02*
X27362100Y16890304D01*
X32003035Y17100024D02*
X33953011Y19050000D01*
X14121064Y22073936D02*
X15944928Y22073936D01*
X13335000Y22860000D02*
X14121064Y22073936D01*
X33953011Y19050000D02*
X36830000Y19050000D01*
X20313590Y23180012D02*
X22653591Y20840011D01*
X26611999Y19095989D02*
X26611999Y17640405D01*
X24867977Y20840011D02*
X26611999Y19095989D01*
X15944928Y22073936D02*
X17051004Y23180012D01*
X17051004Y23180012D02*
X20313590Y23180012D01*
X22653591Y20840011D02*
X24867977Y20840011D01*
G04 #@! TO.N,/J6.1*
X12015001Y29160001D02*
X10795000Y27940000D01*
X11330602Y34290000D02*
X12015001Y33605601D01*
X5080000Y34290000D02*
X11330602Y34290000D01*
X16178999Y30811001D02*
X12015001Y30811001D01*
X17780000Y29210000D02*
X16178999Y30811001D01*
X12015001Y30811001D02*
X12015001Y29160001D01*
X12015001Y33605601D02*
X12015001Y30811001D01*
G04 #@! TO.N,Net-(J21-Pad5)*
X16823602Y20320000D02*
X13335000Y20320000D01*
X21590000Y20320000D02*
X13335000Y20320000D01*
X25837974Y18897010D02*
X24414984Y20320000D01*
X33222475Y17584001D02*
X32218487Y16580013D01*
X25837974Y17171006D02*
X25837974Y18897010D01*
X30931290Y16580013D02*
X30664268Y16312991D01*
X32218487Y16580013D02*
X30931290Y16580013D01*
X30664268Y16312991D02*
X26695989Y16312991D01*
X37900001Y18536399D02*
X36947603Y17584001D01*
X36830000Y20633602D02*
X37900001Y19563601D01*
X26695989Y16312991D02*
X25837974Y17171006D01*
X36947603Y17584001D02*
X33222475Y17584001D01*
X24414984Y20320000D02*
X20099008Y20320000D01*
X36830000Y22860000D02*
X36830000Y20633602D01*
X37900001Y19563601D02*
X37900001Y18536399D01*
G04 #@! TO.N,Net-(J21-Pad8)*
X14555001Y22809558D02*
X15945144Y22809558D01*
X13920601Y24080001D02*
X14555001Y23445601D01*
X20724222Y23700023D02*
X22384247Y22039998D01*
X10795000Y22860000D02*
X12015001Y24080001D01*
X16835609Y23700023D02*
X20724222Y23700023D01*
X15945144Y22809558D02*
X16835609Y23700023D01*
X14555001Y23445601D02*
X14555001Y22809558D01*
X23873605Y22660001D02*
X29409999Y22660001D01*
X12015001Y24080001D02*
X13920601Y24080001D01*
X22384247Y22039998D02*
X23253602Y22039998D01*
X23253602Y22039998D02*
X23873605Y22660001D01*
X29409999Y22660001D02*
X30480000Y21590000D01*
G04 #@! TO.N,Net-(J22-Pad2)*
X12799398Y19050000D02*
X16510000Y19050000D01*
X12015001Y18265603D02*
X12799398Y19050000D01*
X12015001Y13920001D02*
X12015001Y18265603D01*
X10795000Y12700000D02*
X12015001Y13920001D01*
X16510000Y19050000D02*
X21590000Y19050000D01*
X33655000Y23495000D02*
X23495000Y23495000D01*
X23495000Y23495000D02*
X22860000Y22860000D01*
X36830000Y26670000D02*
X33655000Y23495000D01*
G04 #@! TO.N,Net-(J22-Pad1)*
X15240000Y14224000D02*
X15747990Y14224000D01*
X14124001Y13108001D02*
X15240000Y14224000D01*
X14124001Y11376399D02*
X14124001Y13108001D01*
X12907602Y10160000D02*
X14124001Y11376399D01*
X10795000Y10160000D02*
X12907602Y10160000D01*
D23*
G04 #@! TO.N,GND*
X38100000Y7620000D02*
X35560000Y5080000D01*
X38100000Y9525000D02*
X38100000Y7620000D01*
X40640000Y32385000D02*
X40640000Y29210000D01*
X44450000Y26670000D02*
X45974000Y26670000D01*
X45974000Y26670000D02*
X46482000Y26162000D01*
X46329999Y26009999D02*
X46329999Y21183999D01*
X46482000Y26162000D02*
X46329999Y26009999D01*
X46329999Y21183999D02*
X45974000Y20828000D01*
X45974000Y20828000D02*
X45974000Y16002000D01*
X45974000Y16002000D02*
X41402000Y11430000D01*
X41402000Y11430000D02*
X40894000Y11430000D01*
X40640000Y11176000D02*
X40640000Y9525000D01*
X40894000Y11430000D02*
X40640000Y11176000D01*
D21*
G04 #@! TO.N,/GPIO15*
X34290000Y20143663D02*
X31766372Y17620035D01*
X29369967Y17620035D02*
X29210000Y17780002D01*
X31766372Y17620035D02*
X29369967Y17620035D01*
X34290000Y21590000D02*
X34290000Y20143663D01*
G04 #@! TO.N,/GPIO33*
X33020000Y5588000D02*
X33020000Y5080000D01*
X35736999Y8304999D02*
X33020000Y5588000D01*
X36145601Y8304999D02*
X35736999Y8304999D01*
X36780001Y8939399D02*
X36145601Y8304999D01*
X37542001Y11888001D02*
X36879999Y11225999D01*
X31700001Y33605001D02*
X38685601Y33605001D01*
X36780001Y9348001D02*
X36780001Y8939399D01*
X36879999Y9447999D02*
X36780001Y9348001D01*
X30480000Y32385000D02*
X31700001Y33605001D01*
X39320001Y16051999D02*
X39320001Y11888001D01*
X39320001Y11888001D02*
X37542001Y11888001D01*
X45520001Y22251999D02*
X39320001Y16051999D01*
X38685601Y33605001D02*
X39320001Y32970601D01*
X39320001Y32970601D02*
X39320001Y31799399D01*
X39320001Y31799399D02*
X38685601Y31164999D01*
X36879999Y11225999D02*
X36879999Y9447999D01*
X38620010Y31164999D02*
X38620010Y28943990D01*
X38620010Y28943990D02*
X42976801Y24587199D01*
X42976801Y24587199D02*
X44306403Y24587199D01*
X44306403Y24587199D02*
X45520001Y23373601D01*
X38685601Y31164999D02*
X38620010Y31164999D01*
X45520001Y23373601D02*
X45520001Y22251999D01*
G04 #@! TD*
D24*
G04 #@! TO.N,GND*
X9367068Y13133158D02*
X9310000Y12846260D01*
X9310000Y12553740D01*
X9367068Y12266842D01*
X9479010Y11996589D01*
X9641525Y11753368D01*
X9773380Y11621513D01*
X9700820Y11599502D01*
X9590506Y11540537D01*
X9493815Y11461185D01*
X9414463Y11364494D01*
X9355498Y11254180D01*
X9319188Y11134482D01*
X9306928Y11010000D01*
X9306928Y9310000D01*
X9319188Y9185518D01*
X9355498Y9065820D01*
X9414463Y8955506D01*
X9493815Y8858815D01*
X9590506Y8779463D01*
X9700820Y8720498D01*
X9820518Y8684188D01*
X9945000Y8671928D01*
X11044779Y8671928D01*
X9757852Y7385001D01*
X9035933Y7385001D01*
X8990001Y7389525D01*
X8870703Y7377775D01*
X8806709Y7371472D01*
X8630461Y7318008D01*
X8468029Y7231187D01*
X8325657Y7114345D01*
X8296377Y7078667D01*
X7779981Y6562271D01*
X7766260Y6565000D01*
X7473740Y6565000D01*
X7186842Y6507932D01*
X6916589Y6395990D01*
X6673368Y6233475D01*
X6541513Y6101620D01*
X6519502Y6174180D01*
X6460537Y6284494D01*
X6381185Y6381185D01*
X6284494Y6460537D01*
X6174180Y6519502D01*
X6054482Y6555812D01*
X5930000Y6568072D01*
X5365750Y6565000D01*
X5207000Y6406250D01*
X5207000Y5207000D01*
X5227000Y5207000D01*
X5227000Y4953000D01*
X5207000Y4953000D01*
X5207000Y4933000D01*
X4953000Y4933000D01*
X4953000Y4953000D01*
X4933000Y4953000D01*
X4933000Y5207000D01*
X4953000Y5207000D01*
X4953000Y6406250D01*
X4794250Y6565000D01*
X4230000Y6568072D01*
X4105518Y6555812D01*
X3985820Y6519502D01*
X3875506Y6460537D01*
X3835000Y6427295D01*
X3835000Y7445345D01*
X3926525Y7308368D01*
X4133368Y7101525D01*
X4376589Y6939010D01*
X4646842Y6827068D01*
X4933740Y6770000D01*
X5226260Y6770000D01*
X5513158Y6827068D01*
X5783411Y6939010D01*
X6026632Y7101525D01*
X6233475Y7308368D01*
X6395990Y7551589D01*
X6507932Y7821842D01*
X6565000Y8108740D01*
X6565000Y8401260D01*
X6507932Y8688158D01*
X6395990Y8958411D01*
X6233475Y9201632D01*
X6026632Y9408475D01*
X5852240Y9525000D01*
X6026632Y9641525D01*
X6233475Y9848368D01*
X6395990Y10091589D01*
X6507932Y10361842D01*
X6565000Y10648740D01*
X6565000Y10941260D01*
X6507932Y11228158D01*
X6395990Y11498411D01*
X6233475Y11741632D01*
X6026632Y11948475D01*
X5852240Y12065000D01*
X6026632Y12181525D01*
X6178775Y12333668D01*
X6192068Y12266842D01*
X6304010Y11996589D01*
X6466525Y11753368D01*
X6673368Y11546525D01*
X6916589Y11384010D01*
X7186842Y11272068D01*
X7473740Y11215000D01*
X7766260Y11215000D01*
X8053158Y11272068D01*
X8323411Y11384010D01*
X8566632Y11546525D01*
X8773475Y11753368D01*
X8935990Y11996589D01*
X9047932Y12266842D01*
X9105000Y12553740D01*
X9105000Y12846260D01*
X9047932Y13133158D01*
X9005748Y13234999D01*
X9409252Y13234999D01*
X9367068Y13133158D01*
G04 #@! TA.AperFunction,Conductor*
D25*
G36*
X9367068Y13133158D02*
G01*
X9310000Y12846260D01*
X9310000Y12553740D01*
X9367068Y12266842D01*
X9479010Y11996589D01*
X9641525Y11753368D01*
X9773380Y11621513D01*
X9700820Y11599502D01*
X9590506Y11540537D01*
X9493815Y11461185D01*
X9414463Y11364494D01*
X9355498Y11254180D01*
X9319188Y11134482D01*
X9306928Y11010000D01*
X9306928Y9310000D01*
X9319188Y9185518D01*
X9355498Y9065820D01*
X9414463Y8955506D01*
X9493815Y8858815D01*
X9590506Y8779463D01*
X9700820Y8720498D01*
X9820518Y8684188D01*
X9945000Y8671928D01*
X11044779Y8671928D01*
X9757852Y7385001D01*
X9035933Y7385001D01*
X8990001Y7389525D01*
X8870703Y7377775D01*
X8806709Y7371472D01*
X8630461Y7318008D01*
X8468029Y7231187D01*
X8325657Y7114345D01*
X8296377Y7078667D01*
X7779981Y6562271D01*
X7766260Y6565000D01*
X7473740Y6565000D01*
X7186842Y6507932D01*
X6916589Y6395990D01*
X6673368Y6233475D01*
X6541513Y6101620D01*
X6519502Y6174180D01*
X6460537Y6284494D01*
X6381185Y6381185D01*
X6284494Y6460537D01*
X6174180Y6519502D01*
X6054482Y6555812D01*
X5930000Y6568072D01*
X5365750Y6565000D01*
X5207000Y6406250D01*
X5207000Y5207000D01*
X5227000Y5207000D01*
X5227000Y4953000D01*
X5207000Y4953000D01*
X5207000Y4933000D01*
X4953000Y4933000D01*
X4953000Y4953000D01*
X4933000Y4953000D01*
X4933000Y5207000D01*
X4953000Y5207000D01*
X4953000Y6406250D01*
X4794250Y6565000D01*
X4230000Y6568072D01*
X4105518Y6555812D01*
X3985820Y6519502D01*
X3875506Y6460537D01*
X3835000Y6427295D01*
X3835000Y7445345D01*
X3926525Y7308368D01*
X4133368Y7101525D01*
X4376589Y6939010D01*
X4646842Y6827068D01*
X4933740Y6770000D01*
X5226260Y6770000D01*
X5513158Y6827068D01*
X5783411Y6939010D01*
X6026632Y7101525D01*
X6233475Y7308368D01*
X6395990Y7551589D01*
X6507932Y7821842D01*
X6565000Y8108740D01*
X6565000Y8401260D01*
X6507932Y8688158D01*
X6395990Y8958411D01*
X6233475Y9201632D01*
X6026632Y9408475D01*
X5852240Y9525000D01*
X6026632Y9641525D01*
X6233475Y9848368D01*
X6395990Y10091589D01*
X6507932Y10361842D01*
X6565000Y10648740D01*
X6565000Y10941260D01*
X6507932Y11228158D01*
X6395990Y11498411D01*
X6233475Y11741632D01*
X6026632Y11948475D01*
X5852240Y12065000D01*
X6026632Y12181525D01*
X6178775Y12333668D01*
X6192068Y12266842D01*
X6304010Y11996589D01*
X6466525Y11753368D01*
X6673368Y11546525D01*
X6916589Y11384010D01*
X7186842Y11272068D01*
X7473740Y11215000D01*
X7766260Y11215000D01*
X8053158Y11272068D01*
X8323411Y11384010D01*
X8566632Y11546525D01*
X8773475Y11753368D01*
X8935990Y11996589D01*
X9047932Y12266842D01*
X9105000Y12553740D01*
X9105000Y12846260D01*
X9047932Y13133158D01*
X9005748Y13234999D01*
X9409252Y13234999D01*
X9367068Y13133158D01*
G37*
G04 #@! TD.AperFunction*
D24*
X40767000Y32512000D02*
X40787000Y32512000D01*
X40787000Y32258000D01*
X40767000Y32258000D01*
X40767000Y31064845D01*
X40996890Y30943524D01*
X41144099Y30988175D01*
X41406920Y31113359D01*
X41640269Y31287412D01*
X41716034Y31371466D01*
X41740498Y31290820D01*
X41799463Y31180506D01*
X41878815Y31083815D01*
X41975506Y31004463D01*
X42085820Y30945498D01*
X42205518Y30909188D01*
X42260000Y30903822D01*
X42260001Y30347863D01*
X42225241Y30324637D01*
X42025363Y30124759D01*
X41891308Y29924131D01*
X41876671Y29951514D01*
X41632702Y30023097D01*
X40819605Y29210000D01*
X41632702Y28396903D01*
X41876671Y28468486D01*
X41890324Y28497341D01*
X42025363Y28295241D01*
X42225241Y28095363D01*
X42460273Y27938320D01*
X42721426Y27830147D01*
X42998665Y27775000D01*
X43281335Y27775000D01*
X43558574Y27830147D01*
X43819727Y27938320D01*
X44054759Y28095363D01*
X44249396Y28290000D01*
X45338925Y28290000D01*
X46307510Y27321414D01*
X46336315Y27286315D01*
X46371414Y27257510D01*
X46371417Y27257507D01*
X46371422Y27257503D01*
X46705000Y26923924D01*
X46705001Y21111254D01*
X46700518Y21110812D01*
X46580820Y21074502D01*
X46470506Y21015537D01*
X46373815Y20936185D01*
X46294463Y20839494D01*
X46235498Y20729180D01*
X46199188Y20609482D01*
X46186928Y20485000D01*
X46186928Y18885000D01*
X46199188Y18760518D01*
X46235498Y18640820D01*
X46294463Y18530506D01*
X46373815Y18433815D01*
X46470506Y18354463D01*
X46580820Y18295498D01*
X46700518Y18259188D01*
X46705001Y18258747D01*
X46705000Y16256076D01*
X43958424Y13509499D01*
X43923315Y13480686D01*
X43817503Y13351752D01*
X43808348Y13340597D01*
X43722919Y13180771D01*
X43670313Y13007351D01*
X43652549Y12827000D01*
X43657001Y12781801D01*
X43657001Y11013072D01*
X42330000Y11013072D01*
X42205518Y11000812D01*
X42085820Y10964502D01*
X41975506Y10905537D01*
X41878815Y10826185D01*
X41799463Y10729494D01*
X41740498Y10619180D01*
X41716034Y10538534D01*
X41640269Y10622588D01*
X41406920Y10796641D01*
X41144099Y10921825D01*
X40996890Y10966476D01*
X40767000Y10845155D01*
X40767000Y9652000D01*
X40787000Y9652000D01*
X40787000Y9398000D01*
X40767000Y9398000D01*
X40767000Y8204845D01*
X40996890Y8083524D01*
X41144099Y8128175D01*
X41406920Y8253359D01*
X41640269Y8427412D01*
X41716034Y8511466D01*
X41724961Y8482037D01*
X40766925Y7524000D01*
X39669189Y7524000D01*
X39623999Y7528451D01*
X39578809Y7524000D01*
X39578808Y7524000D01*
X39443649Y7510688D01*
X39270228Y7458081D01*
X39168587Y7403753D01*
X39110401Y7372652D01*
X39084279Y7351214D01*
X38970314Y7257686D01*
X38941506Y7222582D01*
X38277675Y6558751D01*
X38246260Y6565000D01*
X37953740Y6565000D01*
X37666842Y6507932D01*
X37396589Y6395990D01*
X37153368Y6233475D01*
X36946525Y6026632D01*
X36824805Y5844466D01*
X36755178Y5961355D01*
X36560269Y6177588D01*
X36326920Y6351641D01*
X36064099Y6476825D01*
X35916890Y6521476D01*
X35687000Y6400155D01*
X35687000Y5207000D01*
X35707000Y5207000D01*
X35707000Y4953000D01*
X35687000Y4953000D01*
X35687000Y4933000D01*
X35433000Y4933000D01*
X35433000Y4953000D01*
X35413000Y4953000D01*
X35413000Y5207000D01*
X35433000Y5207000D01*
X35433000Y6400155D01*
X35203110Y6521476D01*
X35055901Y6476825D01*
X34985403Y6443246D01*
X36062156Y7519999D01*
X36107048Y7519999D01*
X36145601Y7516202D01*
X36184154Y7519999D01*
X36184162Y7519999D01*
X36299488Y7531358D01*
X36447461Y7576245D01*
X36583834Y7649137D01*
X36703365Y7747235D01*
X36727947Y7777188D01*
X37259214Y8308455D01*
X37333080Y8253359D01*
X37595901Y8128175D01*
X37743110Y8083524D01*
X37973000Y8204845D01*
X37973000Y9398000D01*
X38227000Y9398000D01*
X38227000Y8204845D01*
X38456890Y8083524D01*
X38604099Y8128175D01*
X38866920Y8253359D01*
X39100269Y8427412D01*
X39295178Y8643645D01*
X39370000Y8769255D01*
X39444822Y8643645D01*
X39639731Y8427412D01*
X39873080Y8253359D01*
X40135901Y8128175D01*
X40283110Y8083524D01*
X40513000Y8204845D01*
X40513000Y9398000D01*
X38227000Y9398000D01*
X37973000Y9398000D01*
X37953000Y9398000D01*
X37953000Y9652000D01*
X37973000Y9652000D01*
X37973000Y10845155D01*
X38227000Y10845155D01*
X38227000Y9652000D01*
X40513000Y9652000D01*
X40513000Y10845155D01*
X40283110Y10966476D01*
X40135901Y10921825D01*
X39873080Y10796641D01*
X39639731Y10622588D01*
X39444822Y10406355D01*
X39370000Y10280745D01*
X39295178Y10406355D01*
X39100269Y10622588D01*
X38866920Y10796641D01*
X38604099Y10921825D01*
X38456890Y10966476D01*
X38227000Y10845155D01*
X37973000Y10845155D01*
X37743110Y10966476D01*
X37725201Y10961044D01*
X37867159Y11103001D01*
X39281441Y11103001D01*
X39320001Y11099203D01*
X39473888Y11114360D01*
X39621861Y11159247D01*
X39758234Y11232139D01*
X39877765Y11330237D01*
X39975863Y11449768D01*
X40048755Y11586141D01*
X40093642Y11734114D01*
X40105001Y11849440D01*
X40108799Y11888001D01*
X40105001Y11926562D01*
X40105001Y11949252D01*
X40206842Y11907068D01*
X40493740Y11850000D01*
X40786260Y11850000D01*
X41073158Y11907068D01*
X41343411Y12019010D01*
X41586632Y12181525D01*
X41793475Y12388368D01*
X41955990Y12631589D01*
X42067932Y12901842D01*
X42125000Y13188740D01*
X42125000Y13481260D01*
X42067932Y13768158D01*
X41955990Y14038411D01*
X41793475Y14281632D01*
X41586632Y14488475D01*
X41425000Y14596474D01*
X41425000Y14914843D01*
X44240646Y17730489D01*
X44318514Y17715000D01*
X44581486Y17715000D01*
X44839405Y17766304D01*
X45082359Y17866939D01*
X45301013Y18013038D01*
X45486962Y18198987D01*
X45633061Y18417641D01*
X45733696Y18660595D01*
X45785000Y18918514D01*
X45785000Y19181486D01*
X45733696Y19439405D01*
X45633061Y19682359D01*
X45486962Y19901013D01*
X45301013Y20086962D01*
X45082359Y20233061D01*
X44839405Y20333696D01*
X44733018Y20354858D01*
X46047817Y21669657D01*
X46077765Y21694235D01*
X46175863Y21813766D01*
X46248755Y21950139D01*
X46272444Y22028232D01*
X46293642Y22098111D01*
X46296029Y22122346D01*
X46305001Y22213438D01*
X46305001Y22213445D01*
X46308798Y22251998D01*
X46305001Y22290551D01*
X46305001Y23335045D01*
X46308798Y23373601D01*
X46305001Y23412161D01*
X46305001Y23412162D01*
X46301021Y23452575D01*
X46293643Y23527488D01*
X46248755Y23675461D01*
X46245319Y23681890D01*
X46175863Y23811834D01*
X46077765Y23931365D01*
X46047812Y23955947D01*
X44888750Y25115009D01*
X44864167Y25144963D01*
X44744636Y25243061D01*
X44608263Y25315953D01*
X44545473Y25335000D01*
X44577002Y25335000D01*
X44577002Y25499798D01*
X44783330Y25377278D01*
X45029123Y25467147D01*
X45252660Y25603241D01*
X45445351Y25780330D01*
X45599792Y25991608D01*
X45710047Y26228956D01*
X45742716Y26336671D01*
X45619374Y26543000D01*
X44577000Y26543000D01*
X44577000Y26523000D01*
X44323000Y26523000D01*
X44323000Y26543000D01*
X43280626Y26543000D01*
X43157284Y26336671D01*
X43189953Y26228956D01*
X43300208Y25991608D01*
X43454649Y25780330D01*
X43647340Y25603241D01*
X43870877Y25467147D01*
X44116670Y25377278D01*
X44322998Y25499798D01*
X44322998Y25374362D01*
X44306403Y25375996D01*
X44267850Y25372199D01*
X43301959Y25372199D01*
X41670829Y27003329D01*
X43157284Y27003329D01*
X43280626Y26797000D01*
X44323000Y26797000D01*
X44323000Y27840201D01*
X44577000Y27840201D01*
X44577000Y26797000D01*
X45619374Y26797000D01*
X45742716Y27003329D01*
X45710047Y27111044D01*
X45599792Y27348392D01*
X45445351Y27559670D01*
X45252660Y27736759D01*
X45029123Y27872853D01*
X44783330Y27962722D01*
X44577000Y27840201D01*
X44323000Y27840201D01*
X44116670Y27962722D01*
X43870877Y27872853D01*
X43647340Y27736759D01*
X43454649Y27559670D01*
X43300208Y27348392D01*
X43189953Y27111044D01*
X43157284Y27003329D01*
X41670829Y27003329D01*
X40879357Y27794800D01*
X40990130Y27811213D01*
X41256292Y27906397D01*
X41381514Y27973329D01*
X41453097Y28217298D01*
X40640000Y29030395D01*
X40625858Y29016252D01*
X40446253Y29195857D01*
X40460395Y29210000D01*
X39647298Y30023097D01*
X39405010Y29952007D01*
X39405010Y30202702D01*
X39826903Y30202702D01*
X40640000Y29389605D01*
X41453097Y30202702D01*
X41381514Y30446671D01*
X41126004Y30567571D01*
X40851816Y30636300D01*
X40569488Y30650217D01*
X40289870Y30608787D01*
X40023708Y30513603D01*
X39898486Y30446671D01*
X39826903Y30202702D01*
X39405010Y30202702D01*
X39405010Y30774251D01*
X39799214Y31168455D01*
X39873080Y31113359D01*
X40135901Y30988175D01*
X40283110Y30943524D01*
X40513000Y31064845D01*
X40513000Y32258000D01*
X40493000Y32258000D01*
X40493000Y32512000D01*
X40513000Y32512000D01*
X40513000Y32532000D01*
X40767000Y32532000D01*
X40767000Y32512000D01*
G04 #@! TA.AperFunction,Conductor*
D25*
G36*
X40767000Y32512000D02*
G01*
X40787000Y32512000D01*
X40787000Y32258000D01*
X40767000Y32258000D01*
X40767000Y31064845D01*
X40996890Y30943524D01*
X41144099Y30988175D01*
X41406920Y31113359D01*
X41640269Y31287412D01*
X41716034Y31371466D01*
X41740498Y31290820D01*
X41799463Y31180506D01*
X41878815Y31083815D01*
X41975506Y31004463D01*
X42085820Y30945498D01*
X42205518Y30909188D01*
X42260000Y30903822D01*
X42260001Y30347863D01*
X42225241Y30324637D01*
X42025363Y30124759D01*
X41891308Y29924131D01*
X41876671Y29951514D01*
X41632702Y30023097D01*
X40819605Y29210000D01*
X41632702Y28396903D01*
X41876671Y28468486D01*
X41890324Y28497341D01*
X42025363Y28295241D01*
X42225241Y28095363D01*
X42460273Y27938320D01*
X42721426Y27830147D01*
X42998665Y27775000D01*
X43281335Y27775000D01*
X43558574Y27830147D01*
X43819727Y27938320D01*
X44054759Y28095363D01*
X44249396Y28290000D01*
X45338925Y28290000D01*
X46307510Y27321414D01*
X46336315Y27286315D01*
X46371414Y27257510D01*
X46371417Y27257507D01*
X46371422Y27257503D01*
X46705000Y26923924D01*
X46705001Y21111254D01*
X46700518Y21110812D01*
X46580820Y21074502D01*
X46470506Y21015537D01*
X46373815Y20936185D01*
X46294463Y20839494D01*
X46235498Y20729180D01*
X46199188Y20609482D01*
X46186928Y20485000D01*
X46186928Y18885000D01*
X46199188Y18760518D01*
X46235498Y18640820D01*
X46294463Y18530506D01*
X46373815Y18433815D01*
X46470506Y18354463D01*
X46580820Y18295498D01*
X46700518Y18259188D01*
X46705001Y18258747D01*
X46705000Y16256076D01*
X43958424Y13509499D01*
X43923315Y13480686D01*
X43817503Y13351752D01*
X43808348Y13340597D01*
X43722919Y13180771D01*
X43670313Y13007351D01*
X43652549Y12827000D01*
X43657001Y12781801D01*
X43657001Y11013072D01*
X42330000Y11013072D01*
X42205518Y11000812D01*
X42085820Y10964502D01*
X41975506Y10905537D01*
X41878815Y10826185D01*
X41799463Y10729494D01*
X41740498Y10619180D01*
X41716034Y10538534D01*
X41640269Y10622588D01*
X41406920Y10796641D01*
X41144099Y10921825D01*
X40996890Y10966476D01*
X40767000Y10845155D01*
X40767000Y9652000D01*
X40787000Y9652000D01*
X40787000Y9398000D01*
X40767000Y9398000D01*
X40767000Y8204845D01*
X40996890Y8083524D01*
X41144099Y8128175D01*
X41406920Y8253359D01*
X41640269Y8427412D01*
X41716034Y8511466D01*
X41724961Y8482037D01*
X40766925Y7524000D01*
X39669189Y7524000D01*
X39623999Y7528451D01*
X39578809Y7524000D01*
X39578808Y7524000D01*
X39443649Y7510688D01*
X39270228Y7458081D01*
X39168587Y7403753D01*
X39110401Y7372652D01*
X39084279Y7351214D01*
X38970314Y7257686D01*
X38941506Y7222582D01*
X38277675Y6558751D01*
X38246260Y6565000D01*
X37953740Y6565000D01*
X37666842Y6507932D01*
X37396589Y6395990D01*
X37153368Y6233475D01*
X36946525Y6026632D01*
X36824805Y5844466D01*
X36755178Y5961355D01*
X36560269Y6177588D01*
X36326920Y6351641D01*
X36064099Y6476825D01*
X35916890Y6521476D01*
X35687000Y6400155D01*
X35687000Y5207000D01*
X35707000Y5207000D01*
X35707000Y4953000D01*
X35687000Y4953000D01*
X35687000Y4933000D01*
X35433000Y4933000D01*
X35433000Y4953000D01*
X35413000Y4953000D01*
X35413000Y5207000D01*
X35433000Y5207000D01*
X35433000Y6400155D01*
X35203110Y6521476D01*
X35055901Y6476825D01*
X34985403Y6443246D01*
X36062156Y7519999D01*
X36107048Y7519999D01*
X36145601Y7516202D01*
X36184154Y7519999D01*
X36184162Y7519999D01*
X36299488Y7531358D01*
X36447461Y7576245D01*
X36583834Y7649137D01*
X36703365Y7747235D01*
X36727947Y7777188D01*
X37259214Y8308455D01*
X37333080Y8253359D01*
X37595901Y8128175D01*
X37743110Y8083524D01*
X37973000Y8204845D01*
X37973000Y9398000D01*
X38227000Y9398000D01*
X38227000Y8204845D01*
X38456890Y8083524D01*
X38604099Y8128175D01*
X38866920Y8253359D01*
X39100269Y8427412D01*
X39295178Y8643645D01*
X39370000Y8769255D01*
X39444822Y8643645D01*
X39639731Y8427412D01*
X39873080Y8253359D01*
X40135901Y8128175D01*
X40283110Y8083524D01*
X40513000Y8204845D01*
X40513000Y9398000D01*
X38227000Y9398000D01*
X37973000Y9398000D01*
X37953000Y9398000D01*
X37953000Y9652000D01*
X37973000Y9652000D01*
X37973000Y10845155D01*
X38227000Y10845155D01*
X38227000Y9652000D01*
X40513000Y9652000D01*
X40513000Y10845155D01*
X40283110Y10966476D01*
X40135901Y10921825D01*
X39873080Y10796641D01*
X39639731Y10622588D01*
X39444822Y10406355D01*
X39370000Y10280745D01*
X39295178Y10406355D01*
X39100269Y10622588D01*
X38866920Y10796641D01*
X38604099Y10921825D01*
X38456890Y10966476D01*
X38227000Y10845155D01*
X37973000Y10845155D01*
X37743110Y10966476D01*
X37725201Y10961044D01*
X37867159Y11103001D01*
X39281441Y11103001D01*
X39320001Y11099203D01*
X39473888Y11114360D01*
X39621861Y11159247D01*
X39758234Y11232139D01*
X39877765Y11330237D01*
X39975863Y11449768D01*
X40048755Y11586141D01*
X40093642Y11734114D01*
X40105001Y11849440D01*
X40108799Y11888001D01*
X40105001Y11926562D01*
X40105001Y11949252D01*
X40206842Y11907068D01*
X40493740Y11850000D01*
X40786260Y11850000D01*
X41073158Y11907068D01*
X41343411Y12019010D01*
X41586632Y12181525D01*
X41793475Y12388368D01*
X41955990Y12631589D01*
X42067932Y12901842D01*
X42125000Y13188740D01*
X42125000Y13481260D01*
X42067932Y13768158D01*
X41955990Y14038411D01*
X41793475Y14281632D01*
X41586632Y14488475D01*
X41425000Y14596474D01*
X41425000Y14914843D01*
X44240646Y17730489D01*
X44318514Y17715000D01*
X44581486Y17715000D01*
X44839405Y17766304D01*
X45082359Y17866939D01*
X45301013Y18013038D01*
X45486962Y18198987D01*
X45633061Y18417641D01*
X45733696Y18660595D01*
X45785000Y18918514D01*
X45785000Y19181486D01*
X45733696Y19439405D01*
X45633061Y19682359D01*
X45486962Y19901013D01*
X45301013Y20086962D01*
X45082359Y20233061D01*
X44839405Y20333696D01*
X44733018Y20354858D01*
X46047817Y21669657D01*
X46077765Y21694235D01*
X46175863Y21813766D01*
X46248755Y21950139D01*
X46272444Y22028232D01*
X46293642Y22098111D01*
X46296029Y22122346D01*
X46305001Y22213438D01*
X46305001Y22213445D01*
X46308798Y22251998D01*
X46305001Y22290551D01*
X46305001Y23335045D01*
X46308798Y23373601D01*
X46305001Y23412161D01*
X46305001Y23412162D01*
X46301021Y23452575D01*
X46293643Y23527488D01*
X46248755Y23675461D01*
X46245319Y23681890D01*
X46175863Y23811834D01*
X46077765Y23931365D01*
X46047812Y23955947D01*
X44888750Y25115009D01*
X44864167Y25144963D01*
X44744636Y25243061D01*
X44608263Y25315953D01*
X44545473Y25335000D01*
X44577002Y25335000D01*
X44577002Y25499798D01*
X44783330Y25377278D01*
X45029123Y25467147D01*
X45252660Y25603241D01*
X45445351Y25780330D01*
X45599792Y25991608D01*
X45710047Y26228956D01*
X45742716Y26336671D01*
X45619374Y26543000D01*
X44577000Y26543000D01*
X44577000Y26523000D01*
X44323000Y26523000D01*
X44323000Y26543000D01*
X43280626Y26543000D01*
X43157284Y26336671D01*
X43189953Y26228956D01*
X43300208Y25991608D01*
X43454649Y25780330D01*
X43647340Y25603241D01*
X43870877Y25467147D01*
X44116670Y25377278D01*
X44322998Y25499798D01*
X44322998Y25374362D01*
X44306403Y25375996D01*
X44267850Y25372199D01*
X43301959Y25372199D01*
X41670829Y27003329D01*
X43157284Y27003329D01*
X43280626Y26797000D01*
X44323000Y26797000D01*
X44323000Y27840201D01*
X44577000Y27840201D01*
X44577000Y26797000D01*
X45619374Y26797000D01*
X45742716Y27003329D01*
X45710047Y27111044D01*
X45599792Y27348392D01*
X45445351Y27559670D01*
X45252660Y27736759D01*
X45029123Y27872853D01*
X44783330Y27962722D01*
X44577000Y27840201D01*
X44323000Y27840201D01*
X44116670Y27962722D01*
X43870877Y27872853D01*
X43647340Y27736759D01*
X43454649Y27559670D01*
X43300208Y27348392D01*
X43189953Y27111044D01*
X43157284Y27003329D01*
X41670829Y27003329D01*
X40879357Y27794800D01*
X40990130Y27811213D01*
X41256292Y27906397D01*
X41381514Y27973329D01*
X41453097Y28217298D01*
X40640000Y29030395D01*
X40625858Y29016252D01*
X40446253Y29195857D01*
X40460395Y29210000D01*
X39647298Y30023097D01*
X39405010Y29952007D01*
X39405010Y30202702D01*
X39826903Y30202702D01*
X40640000Y29389605D01*
X41453097Y30202702D01*
X41381514Y30446671D01*
X41126004Y30567571D01*
X40851816Y30636300D01*
X40569488Y30650217D01*
X40289870Y30608787D01*
X40023708Y30513603D01*
X39898486Y30446671D01*
X39826903Y30202702D01*
X39405010Y30202702D01*
X39405010Y30774251D01*
X39799214Y31168455D01*
X39873080Y31113359D01*
X40135901Y30988175D01*
X40283110Y30943524D01*
X40513000Y31064845D01*
X40513000Y32258000D01*
X40493000Y32258000D01*
X40493000Y32512000D01*
X40513000Y32512000D01*
X40513000Y32532000D01*
X40767000Y32532000D01*
X40767000Y32512000D01*
G37*
G04 #@! TD.AperFunction*
D24*
X54403545Y20130781D02*
X54452068Y19886842D01*
X54564010Y19616589D01*
X54726525Y19373368D01*
X54933368Y19166525D01*
X54960000Y19148730D01*
X54960001Y18951270D01*
X54933368Y18933475D01*
X54726525Y18726632D01*
X54564010Y18483411D01*
X54452068Y18213158D01*
X54395000Y17926260D01*
X54395000Y17633740D01*
X54452068Y17346842D01*
X54564010Y17076589D01*
X54726525Y16833368D01*
X54933368Y16626525D01*
X55107760Y16510000D01*
X54933368Y16393475D01*
X54726525Y16186632D01*
X54564010Y15943411D01*
X54452068Y15673158D01*
X54395000Y15386260D01*
X54395000Y15093740D01*
X54452068Y14806842D01*
X54564010Y14536589D01*
X54726525Y14293368D01*
X54933368Y14086525D01*
X55107760Y13970000D01*
X54933368Y13853475D01*
X54726525Y13646632D01*
X54564010Y13403411D01*
X54452068Y13133158D01*
X54395000Y12846260D01*
X54395000Y12553740D01*
X54452068Y12266842D01*
X54564010Y11996589D01*
X54726525Y11753368D01*
X54933368Y11546525D01*
X55176589Y11384010D01*
X55223801Y11364454D01*
X55096317Y11296312D01*
X54964381Y11001224D01*
X56134000Y9831605D01*
X56148143Y9845747D01*
X56327748Y9666142D01*
X56313605Y9652000D01*
X56327748Y9637857D01*
X56148143Y9458252D01*
X56134000Y9472395D01*
X54964381Y8302776D01*
X55089232Y8023534D01*
X55029010Y7878145D01*
X54995000Y7707165D01*
X54995000Y7532835D01*
X55029010Y7361855D01*
X55095723Y7200795D01*
X55192576Y7055845D01*
X55315845Y6932576D01*
X55460795Y6835723D01*
X55621855Y6769010D01*
X55792835Y6735000D01*
X55967165Y6735000D01*
X56138145Y6769010D01*
X56299205Y6835723D01*
X56444155Y6932576D01*
X56567424Y7055845D01*
X56664277Y7200795D01*
X56730990Y7361855D01*
X56765000Y7532835D01*
X56765000Y7707165D01*
X56743454Y7815483D01*
X56924690Y7875667D01*
X57125000Y7982735D01*
X57125000Y5877715D01*
X57075178Y5961355D01*
X56880269Y6177588D01*
X56646920Y6351641D01*
X56384099Y6476825D01*
X56236890Y6521476D01*
X56007000Y6400155D01*
X56007000Y5207000D01*
X56027000Y5207000D01*
X56027000Y4953000D01*
X56007000Y4953000D01*
X56007000Y4933000D01*
X55753000Y4933000D01*
X55753000Y4953000D01*
X55733000Y4953000D01*
X55733000Y5207000D01*
X55753000Y5207000D01*
X55753000Y6400155D01*
X55523110Y6521476D01*
X55375901Y6476825D01*
X55113080Y6351641D01*
X54879731Y6177588D01*
X54684822Y5961355D01*
X54615195Y5844466D01*
X54493475Y6026632D01*
X54286632Y6233475D01*
X54043411Y6395990D01*
X53773158Y6507932D01*
X53486260Y6565000D01*
X53193740Y6565000D01*
X52906842Y6507932D01*
X52636589Y6395990D01*
X52393368Y6233475D01*
X52186525Y6026632D01*
X52070000Y5852240D01*
X51953475Y6026632D01*
X51746632Y6233475D01*
X51503411Y6395990D01*
X51233158Y6507932D01*
X50946260Y6565000D01*
X50653740Y6565000D01*
X50366842Y6507932D01*
X50096589Y6395990D01*
X49853368Y6233475D01*
X49646525Y6026632D01*
X49530000Y5852240D01*
X49413475Y6026632D01*
X49206632Y6233475D01*
X48963411Y6395990D01*
X48693158Y6507932D01*
X48406260Y6565000D01*
X48113740Y6565000D01*
X47826842Y6507932D01*
X47556589Y6395990D01*
X47313368Y6233475D01*
X47106525Y6026632D01*
X46990000Y5852240D01*
X46873475Y6026632D01*
X46666632Y6233475D01*
X46423411Y6395990D01*
X46153158Y6507932D01*
X45866260Y6565000D01*
X45573740Y6565000D01*
X45374498Y6525368D01*
X45431081Y6631228D01*
X45483688Y6804649D01*
X45501451Y6985000D01*
X45497000Y7030192D01*
X45497000Y8191298D01*
X46176903Y8191298D01*
X46248486Y7947329D01*
X46503996Y7826429D01*
X46778184Y7757700D01*
X47060512Y7743783D01*
X47340130Y7785213D01*
X47606292Y7880397D01*
X47731514Y7947329D01*
X47803097Y8191298D01*
X46990000Y9004395D01*
X46176903Y8191298D01*
X45497000Y8191298D01*
X45497000Y9113488D01*
X45549783Y9113488D01*
X45591213Y8833870D01*
X45686397Y8567708D01*
X45753329Y8442486D01*
X45997298Y8370903D01*
X46810395Y9184000D01*
X47169605Y9184000D01*
X47982702Y8370903D01*
X48226671Y8442486D01*
X48347571Y8697996D01*
X48403818Y8922391D01*
X50601538Y8922391D01*
X50605409Y8884718D01*
X50697579Y8659467D01*
X50831922Y8456526D01*
X51003275Y8283693D01*
X51205054Y8147610D01*
X51429504Y8053507D01*
X51668000Y8005000D01*
X51943000Y8005000D01*
X51943000Y9113000D01*
X52197000Y9113000D01*
X52197000Y8005000D01*
X52472000Y8005000D01*
X52710496Y8053507D01*
X52934946Y8147610D01*
X53136725Y8283693D01*
X53308078Y8456526D01*
X53442421Y8659467D01*
X53534591Y8884718D01*
X53538462Y8922391D01*
X53413731Y9113000D01*
X52197000Y9113000D01*
X51943000Y9113000D01*
X50726269Y9113000D01*
X50601538Y8922391D01*
X48403818Y8922391D01*
X48416300Y8972184D01*
X48430217Y9254512D01*
X48388787Y9534130D01*
X48293603Y9800292D01*
X48226671Y9925514D01*
X47982702Y9997097D01*
X47169605Y9184000D01*
X46810395Y9184000D01*
X45997298Y9997097D01*
X45753329Y9925514D01*
X45632429Y9670004D01*
X45563700Y9395816D01*
X45549783Y9113488D01*
X45497000Y9113488D01*
X45497000Y12445925D01*
X48010002Y14958926D01*
X48010002Y12693394D01*
X47904759Y12798637D01*
X47669727Y12955680D01*
X47408574Y13063853D01*
X47131335Y13119000D01*
X46848665Y13119000D01*
X46571426Y13063853D01*
X46310273Y12955680D01*
X46075241Y12798637D01*
X45875363Y12598759D01*
X45718320Y12363727D01*
X45610147Y12102574D01*
X45555000Y11825335D01*
X45555000Y11542665D01*
X45610147Y11265426D01*
X45718320Y11004273D01*
X45875363Y10769241D01*
X46075241Y10569363D01*
X46275869Y10435308D01*
X46248486Y10420671D01*
X46176903Y10176702D01*
X46990000Y9363605D01*
X47803097Y10176702D01*
X47731514Y10420671D01*
X47702659Y10434324D01*
X47904759Y10569363D01*
X48099396Y10764000D01*
X48894925Y10764000D01*
X49037501Y10621424D01*
X49066314Y10586314D01*
X49206403Y10471347D01*
X49366228Y10385919D01*
X49539649Y10333312D01*
X49674808Y10320000D01*
X49674810Y10320000D01*
X49720000Y10315549D01*
X49765190Y10320000D01*
X50969282Y10320000D01*
X51067348Y10239519D01*
X51003275Y10196307D01*
X50831922Y10023474D01*
X50697579Y9820533D01*
X50605409Y9595282D01*
X50601538Y9557609D01*
X50726269Y9367000D01*
X51943000Y9367000D01*
X51943000Y9387000D01*
X52197000Y9387000D01*
X52197000Y9367000D01*
X53413731Y9367000D01*
X53538462Y9557609D01*
X53534591Y9595282D01*
X53532141Y9601271D01*
X54190299Y9601271D01*
X54237543Y9223049D01*
X54357667Y8861310D01*
X54489688Y8614317D01*
X54784776Y8482381D01*
X55954395Y9652000D01*
X54784776Y10821619D01*
X54489688Y10689683D01*
X54318841Y10348955D01*
X54217750Y9981443D01*
X54190299Y9601271D01*
X53532141Y9601271D01*
X53442421Y9820533D01*
X53308078Y10023474D01*
X53136725Y10196307D01*
X53072652Y10239519D01*
X53222502Y10362498D01*
X53376833Y10550551D01*
X53491511Y10765099D01*
X53562130Y10997898D01*
X53585975Y11240000D01*
X53562130Y11482102D01*
X53491511Y11714901D01*
X53376833Y11929449D01*
X53222502Y12117502D01*
X53073238Y12240000D01*
X53222502Y12362498D01*
X53376833Y12550551D01*
X53491511Y12765099D01*
X53562130Y12997898D01*
X53585975Y13240000D01*
X53562130Y13482102D01*
X53491511Y13714901D01*
X53376833Y13929449D01*
X53222502Y14117502D01*
X53183889Y14149191D01*
X53188387Y14151595D01*
X53322962Y14262038D01*
X53433405Y14396613D01*
X53515472Y14550149D01*
X53566008Y14716745D01*
X53583072Y14889999D01*
X53583072Y15590001D01*
X53566008Y15763255D01*
X53515472Y15929851D01*
X53433405Y16083387D01*
X53322962Y16217962D01*
X53188387Y16328405D01*
X53034851Y16410472D01*
X52868255Y16461008D01*
X52695001Y16478072D01*
X51444999Y16478072D01*
X51271745Y16461008D01*
X51105149Y16410472D01*
X50951613Y16328405D01*
X50817038Y16217962D01*
X50706595Y16083387D01*
X50624528Y15929851D01*
X50573992Y15763255D01*
X50556928Y15590001D01*
X50556928Y14889999D01*
X50573992Y14716745D01*
X50624528Y14550149D01*
X50706595Y14396613D01*
X50817038Y14262038D01*
X50951613Y14151595D01*
X50956111Y14149191D01*
X50917498Y14117502D01*
X50763167Y13929449D01*
X50648489Y13714901D01*
X50577870Y13482102D01*
X50554025Y13240000D01*
X50577870Y12997898D01*
X50648489Y12765099D01*
X50763167Y12550551D01*
X50917498Y12362498D01*
X51066762Y12240000D01*
X50969282Y12160000D01*
X50117686Y12160000D01*
X50096623Y12185666D01*
X49880001Y12402288D01*
X49880001Y18692298D01*
X50311903Y18692298D01*
X50383486Y18448329D01*
X50638996Y18327429D01*
X50913184Y18258700D01*
X51195512Y18244783D01*
X51475130Y18286213D01*
X51741292Y18381397D01*
X51866514Y18448329D01*
X51938097Y18692298D01*
X51125000Y19505395D01*
X50311903Y18692298D01*
X49880001Y18692298D01*
X49880001Y18959067D01*
X49888329Y18943486D01*
X50132298Y18871903D01*
X50945395Y19685000D01*
X51304605Y19685000D01*
X52117702Y18871903D01*
X52361671Y18943486D01*
X52482571Y19198996D01*
X52551300Y19473184D01*
X52565217Y19755512D01*
X52523787Y20035130D01*
X52428603Y20301292D01*
X52361671Y20426514D01*
X52117702Y20498097D01*
X51304605Y19685000D01*
X50945395Y19685000D01*
X50132298Y20498097D01*
X49888329Y20426514D01*
X49880001Y20408914D01*
X49880001Y20677702D01*
X50311903Y20677702D01*
X51125000Y19864605D01*
X51938097Y20677702D01*
X51866514Y20921671D01*
X51611004Y21042571D01*
X51336816Y21111300D01*
X51054488Y21125217D01*
X50774870Y21083787D01*
X50508708Y20988603D01*
X50383486Y20921671D01*
X50311903Y20677702D01*
X49880001Y20677702D01*
X49880001Y24654326D01*
X54403545Y20130781D01*
G04 #@! TA.AperFunction,Conductor*
D25*
G36*
X54403545Y20130781D02*
G01*
X54452068Y19886842D01*
X54564010Y19616589D01*
X54726525Y19373368D01*
X54933368Y19166525D01*
X54960000Y19148730D01*
X54960001Y18951270D01*
X54933368Y18933475D01*
X54726525Y18726632D01*
X54564010Y18483411D01*
X54452068Y18213158D01*
X54395000Y17926260D01*
X54395000Y17633740D01*
X54452068Y17346842D01*
X54564010Y17076589D01*
X54726525Y16833368D01*
X54933368Y16626525D01*
X55107760Y16510000D01*
X54933368Y16393475D01*
X54726525Y16186632D01*
X54564010Y15943411D01*
X54452068Y15673158D01*
X54395000Y15386260D01*
X54395000Y15093740D01*
X54452068Y14806842D01*
X54564010Y14536589D01*
X54726525Y14293368D01*
X54933368Y14086525D01*
X55107760Y13970000D01*
X54933368Y13853475D01*
X54726525Y13646632D01*
X54564010Y13403411D01*
X54452068Y13133158D01*
X54395000Y12846260D01*
X54395000Y12553740D01*
X54452068Y12266842D01*
X54564010Y11996589D01*
X54726525Y11753368D01*
X54933368Y11546525D01*
X55176589Y11384010D01*
X55223801Y11364454D01*
X55096317Y11296312D01*
X54964381Y11001224D01*
X56134000Y9831605D01*
X56148143Y9845747D01*
X56327748Y9666142D01*
X56313605Y9652000D01*
X56327748Y9637857D01*
X56148143Y9458252D01*
X56134000Y9472395D01*
X54964381Y8302776D01*
X55089232Y8023534D01*
X55029010Y7878145D01*
X54995000Y7707165D01*
X54995000Y7532835D01*
X55029010Y7361855D01*
X55095723Y7200795D01*
X55192576Y7055845D01*
X55315845Y6932576D01*
X55460795Y6835723D01*
X55621855Y6769010D01*
X55792835Y6735000D01*
X55967165Y6735000D01*
X56138145Y6769010D01*
X56299205Y6835723D01*
X56444155Y6932576D01*
X56567424Y7055845D01*
X56664277Y7200795D01*
X56730990Y7361855D01*
X56765000Y7532835D01*
X56765000Y7707165D01*
X56743454Y7815483D01*
X56924690Y7875667D01*
X57125000Y7982735D01*
X57125000Y5877715D01*
X57075178Y5961355D01*
X56880269Y6177588D01*
X56646920Y6351641D01*
X56384099Y6476825D01*
X56236890Y6521476D01*
X56007000Y6400155D01*
X56007000Y5207000D01*
X56027000Y5207000D01*
X56027000Y4953000D01*
X56007000Y4953000D01*
X56007000Y4933000D01*
X55753000Y4933000D01*
X55753000Y4953000D01*
X55733000Y4953000D01*
X55733000Y5207000D01*
X55753000Y5207000D01*
X55753000Y6400155D01*
X55523110Y6521476D01*
X55375901Y6476825D01*
X55113080Y6351641D01*
X54879731Y6177588D01*
X54684822Y5961355D01*
X54615195Y5844466D01*
X54493475Y6026632D01*
X54286632Y6233475D01*
X54043411Y6395990D01*
X53773158Y6507932D01*
X53486260Y6565000D01*
X53193740Y6565000D01*
X52906842Y6507932D01*
X52636589Y6395990D01*
X52393368Y6233475D01*
X52186525Y6026632D01*
X52070000Y5852240D01*
X51953475Y6026632D01*
X51746632Y6233475D01*
X51503411Y6395990D01*
X51233158Y6507932D01*
X50946260Y6565000D01*
X50653740Y6565000D01*
X50366842Y6507932D01*
X50096589Y6395990D01*
X49853368Y6233475D01*
X49646525Y6026632D01*
X49530000Y5852240D01*
X49413475Y6026632D01*
X49206632Y6233475D01*
X48963411Y6395990D01*
X48693158Y6507932D01*
X48406260Y6565000D01*
X48113740Y6565000D01*
X47826842Y6507932D01*
X47556589Y6395990D01*
X47313368Y6233475D01*
X47106525Y6026632D01*
X46990000Y5852240D01*
X46873475Y6026632D01*
X46666632Y6233475D01*
X46423411Y6395990D01*
X46153158Y6507932D01*
X45866260Y6565000D01*
X45573740Y6565000D01*
X45374498Y6525368D01*
X45431081Y6631228D01*
X45483688Y6804649D01*
X45501451Y6985000D01*
X45497000Y7030192D01*
X45497000Y8191298D01*
X46176903Y8191298D01*
X46248486Y7947329D01*
X46503996Y7826429D01*
X46778184Y7757700D01*
X47060512Y7743783D01*
X47340130Y7785213D01*
X47606292Y7880397D01*
X47731514Y7947329D01*
X47803097Y8191298D01*
X46990000Y9004395D01*
X46176903Y8191298D01*
X45497000Y8191298D01*
X45497000Y9113488D01*
X45549783Y9113488D01*
X45591213Y8833870D01*
X45686397Y8567708D01*
X45753329Y8442486D01*
X45997298Y8370903D01*
X46810395Y9184000D01*
X47169605Y9184000D01*
X47982702Y8370903D01*
X48226671Y8442486D01*
X48347571Y8697996D01*
X48403818Y8922391D01*
X50601538Y8922391D01*
X50605409Y8884718D01*
X50697579Y8659467D01*
X50831922Y8456526D01*
X51003275Y8283693D01*
X51205054Y8147610D01*
X51429504Y8053507D01*
X51668000Y8005000D01*
X51943000Y8005000D01*
X51943000Y9113000D01*
X52197000Y9113000D01*
X52197000Y8005000D01*
X52472000Y8005000D01*
X52710496Y8053507D01*
X52934946Y8147610D01*
X53136725Y8283693D01*
X53308078Y8456526D01*
X53442421Y8659467D01*
X53534591Y8884718D01*
X53538462Y8922391D01*
X53413731Y9113000D01*
X52197000Y9113000D01*
X51943000Y9113000D01*
X50726269Y9113000D01*
X50601538Y8922391D01*
X48403818Y8922391D01*
X48416300Y8972184D01*
X48430217Y9254512D01*
X48388787Y9534130D01*
X48293603Y9800292D01*
X48226671Y9925514D01*
X47982702Y9997097D01*
X47169605Y9184000D01*
X46810395Y9184000D01*
X45997298Y9997097D01*
X45753329Y9925514D01*
X45632429Y9670004D01*
X45563700Y9395816D01*
X45549783Y9113488D01*
X45497000Y9113488D01*
X45497000Y12445925D01*
X48010002Y14958926D01*
X48010002Y12693394D01*
X47904759Y12798637D01*
X47669727Y12955680D01*
X47408574Y13063853D01*
X47131335Y13119000D01*
X46848665Y13119000D01*
X46571426Y13063853D01*
X46310273Y12955680D01*
X46075241Y12798637D01*
X45875363Y12598759D01*
X45718320Y12363727D01*
X45610147Y12102574D01*
X45555000Y11825335D01*
X45555000Y11542665D01*
X45610147Y11265426D01*
X45718320Y11004273D01*
X45875363Y10769241D01*
X46075241Y10569363D01*
X46275869Y10435308D01*
X46248486Y10420671D01*
X46176903Y10176702D01*
X46990000Y9363605D01*
X47803097Y10176702D01*
X47731514Y10420671D01*
X47702659Y10434324D01*
X47904759Y10569363D01*
X48099396Y10764000D01*
X48894925Y10764000D01*
X49037501Y10621424D01*
X49066314Y10586314D01*
X49206403Y10471347D01*
X49366228Y10385919D01*
X49539649Y10333312D01*
X49674808Y10320000D01*
X49674810Y10320000D01*
X49720000Y10315549D01*
X49765190Y10320000D01*
X50969282Y10320000D01*
X51067348Y10239519D01*
X51003275Y10196307D01*
X50831922Y10023474D01*
X50697579Y9820533D01*
X50605409Y9595282D01*
X50601538Y9557609D01*
X50726269Y9367000D01*
X51943000Y9367000D01*
X51943000Y9387000D01*
X52197000Y9387000D01*
X52197000Y9367000D01*
X53413731Y9367000D01*
X53538462Y9557609D01*
X53534591Y9595282D01*
X53532141Y9601271D01*
X54190299Y9601271D01*
X54237543Y9223049D01*
X54357667Y8861310D01*
X54489688Y8614317D01*
X54784776Y8482381D01*
X55954395Y9652000D01*
X54784776Y10821619D01*
X54489688Y10689683D01*
X54318841Y10348955D01*
X54217750Y9981443D01*
X54190299Y9601271D01*
X53532141Y9601271D01*
X53442421Y9820533D01*
X53308078Y10023474D01*
X53136725Y10196307D01*
X53072652Y10239519D01*
X53222502Y10362498D01*
X53376833Y10550551D01*
X53491511Y10765099D01*
X53562130Y10997898D01*
X53585975Y11240000D01*
X53562130Y11482102D01*
X53491511Y11714901D01*
X53376833Y11929449D01*
X53222502Y12117502D01*
X53073238Y12240000D01*
X53222502Y12362498D01*
X53376833Y12550551D01*
X53491511Y12765099D01*
X53562130Y12997898D01*
X53585975Y13240000D01*
X53562130Y13482102D01*
X53491511Y13714901D01*
X53376833Y13929449D01*
X53222502Y14117502D01*
X53183889Y14149191D01*
X53188387Y14151595D01*
X53322962Y14262038D01*
X53433405Y14396613D01*
X53515472Y14550149D01*
X53566008Y14716745D01*
X53583072Y14889999D01*
X53583072Y15590001D01*
X53566008Y15763255D01*
X53515472Y15929851D01*
X53433405Y16083387D01*
X53322962Y16217962D01*
X53188387Y16328405D01*
X53034851Y16410472D01*
X52868255Y16461008D01*
X52695001Y16478072D01*
X51444999Y16478072D01*
X51271745Y16461008D01*
X51105149Y16410472D01*
X50951613Y16328405D01*
X50817038Y16217962D01*
X50706595Y16083387D01*
X50624528Y15929851D01*
X50573992Y15763255D01*
X50556928Y15590001D01*
X50556928Y14889999D01*
X50573992Y14716745D01*
X50624528Y14550149D01*
X50706595Y14396613D01*
X50817038Y14262038D01*
X50951613Y14151595D01*
X50956111Y14149191D01*
X50917498Y14117502D01*
X50763167Y13929449D01*
X50648489Y13714901D01*
X50577870Y13482102D01*
X50554025Y13240000D01*
X50577870Y12997898D01*
X50648489Y12765099D01*
X50763167Y12550551D01*
X50917498Y12362498D01*
X51066762Y12240000D01*
X50969282Y12160000D01*
X50117686Y12160000D01*
X50096623Y12185666D01*
X49880001Y12402288D01*
X49880001Y18692298D01*
X50311903Y18692298D01*
X50383486Y18448329D01*
X50638996Y18327429D01*
X50913184Y18258700D01*
X51195512Y18244783D01*
X51475130Y18286213D01*
X51741292Y18381397D01*
X51866514Y18448329D01*
X51938097Y18692298D01*
X51125000Y19505395D01*
X50311903Y18692298D01*
X49880001Y18692298D01*
X49880001Y18959067D01*
X49888329Y18943486D01*
X50132298Y18871903D01*
X50945395Y19685000D01*
X51304605Y19685000D01*
X52117702Y18871903D01*
X52361671Y18943486D01*
X52482571Y19198996D01*
X52551300Y19473184D01*
X52565217Y19755512D01*
X52523787Y20035130D01*
X52428603Y20301292D01*
X52361671Y20426514D01*
X52117702Y20498097D01*
X51304605Y19685000D01*
X50945395Y19685000D01*
X50132298Y20498097D01*
X49888329Y20426514D01*
X49880001Y20408914D01*
X49880001Y20677702D01*
X50311903Y20677702D01*
X51125000Y19864605D01*
X51938097Y20677702D01*
X51866514Y20921671D01*
X51611004Y21042571D01*
X51336816Y21111300D01*
X51054488Y21125217D01*
X50774870Y21083787D01*
X50508708Y20988603D01*
X50383486Y20921671D01*
X50311903Y20677702D01*
X49880001Y20677702D01*
X49880001Y24654326D01*
X54403545Y20130781D01*
G37*
G04 #@! TD.AperFunction*
D24*
X20447000Y13462000D02*
X20467000Y13462000D01*
X20467000Y13208000D01*
X20447000Y13208000D01*
X20447000Y12014845D01*
X20676890Y11893524D01*
X20755001Y11917217D01*
X20755001Y11070159D01*
X20656918Y10972076D01*
X20466260Y11010000D01*
X20173740Y11010000D01*
X19886842Y10952932D01*
X19616589Y10840990D01*
X19373368Y10678475D01*
X19166525Y10471632D01*
X19044805Y10289466D01*
X18975178Y10406355D01*
X18780269Y10622588D01*
X18546920Y10796641D01*
X18284099Y10921825D01*
X18136890Y10966476D01*
X17907000Y10845155D01*
X17907000Y9652000D01*
X17927000Y9652000D01*
X17927000Y9398000D01*
X17907000Y9398000D01*
X17907000Y9378000D01*
X17653000Y9378000D01*
X17653000Y9398000D01*
X15367000Y9398000D01*
X15367000Y9378000D01*
X15113000Y9378000D01*
X15113000Y9398000D01*
X15093000Y9398000D01*
X15093000Y9652000D01*
X15113000Y9652000D01*
X15113000Y9672000D01*
X15367000Y9672000D01*
X15367000Y9652000D01*
X17653000Y9652000D01*
X17653000Y10845155D01*
X17423110Y10966476D01*
X17275901Y10921825D01*
X17013080Y10796641D01*
X16779731Y10622588D01*
X16584822Y10406355D01*
X16510000Y10280745D01*
X16435178Y10406355D01*
X16240269Y10622588D01*
X16006920Y10796641D01*
X15876290Y10858861D01*
X16308585Y11291156D01*
X16368759Y11331363D01*
X16548396Y11511000D01*
X16718068Y11511000D01*
X16764000Y11506476D01*
X16809932Y11511000D01*
X16947292Y11524529D01*
X17123540Y11577993D01*
X17285972Y11664814D01*
X17428344Y11781656D01*
X17457630Y11817341D01*
X17487217Y11846928D01*
X18630000Y11846928D01*
X18754482Y11859188D01*
X18874180Y11895498D01*
X18984494Y11954463D01*
X19081185Y12033815D01*
X19160537Y12130506D01*
X19219502Y12240820D01*
X19243966Y12321466D01*
X19319731Y12237412D01*
X19553080Y12063359D01*
X19815901Y11938175D01*
X19963110Y11893524D01*
X20193000Y12014845D01*
X20193000Y13208000D01*
X20173000Y13208000D01*
X20173000Y13462000D01*
X20193000Y13462000D01*
X20193000Y13482000D01*
X20447000Y13482000D01*
X20447000Y13462000D01*
G04 #@! TA.AperFunction,Conductor*
D25*
G36*
X20447000Y13462000D02*
G01*
X20467000Y13462000D01*
X20467000Y13208000D01*
X20447000Y13208000D01*
X20447000Y12014845D01*
X20676890Y11893524D01*
X20755001Y11917217D01*
X20755001Y11070159D01*
X20656918Y10972076D01*
X20466260Y11010000D01*
X20173740Y11010000D01*
X19886842Y10952932D01*
X19616589Y10840990D01*
X19373368Y10678475D01*
X19166525Y10471632D01*
X19044805Y10289466D01*
X18975178Y10406355D01*
X18780269Y10622588D01*
X18546920Y10796641D01*
X18284099Y10921825D01*
X18136890Y10966476D01*
X17907000Y10845155D01*
X17907000Y9652000D01*
X17927000Y9652000D01*
X17927000Y9398000D01*
X17907000Y9398000D01*
X17907000Y9378000D01*
X17653000Y9378000D01*
X17653000Y9398000D01*
X15367000Y9398000D01*
X15367000Y9378000D01*
X15113000Y9378000D01*
X15113000Y9398000D01*
X15093000Y9398000D01*
X15093000Y9652000D01*
X15113000Y9652000D01*
X15113000Y9672000D01*
X15367000Y9672000D01*
X15367000Y9652000D01*
X17653000Y9652000D01*
X17653000Y10845155D01*
X17423110Y10966476D01*
X17275901Y10921825D01*
X17013080Y10796641D01*
X16779731Y10622588D01*
X16584822Y10406355D01*
X16510000Y10280745D01*
X16435178Y10406355D01*
X16240269Y10622588D01*
X16006920Y10796641D01*
X15876290Y10858861D01*
X16308585Y11291156D01*
X16368759Y11331363D01*
X16548396Y11511000D01*
X16718068Y11511000D01*
X16764000Y11506476D01*
X16809932Y11511000D01*
X16947292Y11524529D01*
X17123540Y11577993D01*
X17285972Y11664814D01*
X17428344Y11781656D01*
X17457630Y11817341D01*
X17487217Y11846928D01*
X18630000Y11846928D01*
X18754482Y11859188D01*
X18874180Y11895498D01*
X18984494Y11954463D01*
X19081185Y12033815D01*
X19160537Y12130506D01*
X19219502Y12240820D01*
X19243966Y12321466D01*
X19319731Y12237412D01*
X19553080Y12063359D01*
X19815901Y11938175D01*
X19963110Y11893524D01*
X20193000Y12014845D01*
X20193000Y13208000D01*
X20173000Y13208000D01*
X20173000Y13462000D01*
X20193000Y13462000D01*
X20193000Y13482000D01*
X20447000Y13482000D01*
X20447000Y13462000D01*
G37*
G04 #@! TD.AperFunction*
D24*
X13147748Y12460142D02*
X13133605Y12446000D01*
X13147748Y12431857D01*
X12968143Y12252252D01*
X12954000Y12266395D01*
X12939858Y12252252D01*
X12760253Y12431857D01*
X12774395Y12446000D01*
X12760253Y12460142D01*
X12939858Y12639747D01*
X12954000Y12625605D01*
X12968143Y12639747D01*
X13147748Y12460142D01*
G04 #@! TA.AperFunction,Conductor*
D25*
G36*
X13147748Y12460142D02*
G01*
X13133605Y12446000D01*
X13147748Y12431857D01*
X12968143Y12252252D01*
X12954000Y12266395D01*
X12939858Y12252252D01*
X12760253Y12431857D01*
X12774395Y12446000D01*
X12760253Y12460142D01*
X12939858Y12639747D01*
X12954000Y12625605D01*
X12968143Y12639747D01*
X13147748Y12460142D01*
G37*
G04 #@! TD.AperFunction*
D24*
X17907000Y21717000D02*
X17927000Y21717000D01*
X17927000Y21463000D01*
X17907000Y21463000D01*
X17907000Y21443000D01*
X17653000Y21443000D01*
X17653000Y21463000D01*
X17633000Y21463000D01*
X17633000Y21717000D01*
X17653000Y21717000D01*
X17653000Y21737000D01*
X17907000Y21737000D01*
X17907000Y21717000D01*
G04 #@! TA.AperFunction,Conductor*
D25*
G36*
X17907000Y21717000D02*
G01*
X17927000Y21717000D01*
X17927000Y21463000D01*
X17907000Y21463000D01*
X17907000Y21443000D01*
X17653000Y21443000D01*
X17653000Y21463000D01*
X17633000Y21463000D01*
X17633000Y21717000D01*
X17653000Y21717000D01*
X17653000Y21737000D01*
X17907000Y21737000D01*
X17907000Y21717000D01*
G37*
G04 #@! TD.AperFunction*
D24*
X31866525Y31438368D02*
X32073368Y31231525D01*
X32316589Y31069010D01*
X32586842Y30957068D01*
X32873740Y30900000D01*
X33166260Y30900000D01*
X33356918Y30937925D01*
X33830275Y30464568D01*
X33657641Y30393061D01*
X33438987Y30246962D01*
X33253038Y30061013D01*
X33106939Y29842359D01*
X33006304Y29599405D01*
X32955000Y29341486D01*
X32955000Y29078514D01*
X33006304Y28820595D01*
X33106939Y28577641D01*
X33253038Y28358987D01*
X33438987Y28173038D01*
X33505001Y28128929D01*
X33505001Y27503158D01*
X31170843Y25169000D01*
X24160759Y25169000D01*
X24614614Y25622855D01*
X24658486Y25473329D01*
X24913996Y25352429D01*
X25188184Y25283700D01*
X25470512Y25269783D01*
X25750130Y25311213D01*
X26016292Y25406397D01*
X26141514Y25473329D01*
X26213097Y25717298D01*
X27126903Y25717298D01*
X27198486Y25473329D01*
X27453996Y25352429D01*
X27728184Y25283700D01*
X28010512Y25269783D01*
X28290130Y25311213D01*
X28556292Y25406397D01*
X28681514Y25473329D01*
X28753097Y25717298D01*
X27940000Y26530395D01*
X27126903Y25717298D01*
X26213097Y25717298D01*
X25400000Y26530395D01*
X25385858Y26516252D01*
X25206253Y26695857D01*
X25220395Y26710000D01*
X25579605Y26710000D01*
X26392702Y25896903D01*
X26636671Y25968486D01*
X26667971Y26034636D01*
X26703329Y25968486D01*
X26947298Y25896903D01*
X27760395Y26710000D01*
X28119605Y26710000D01*
X28932702Y25896903D01*
X29176671Y25968486D01*
X29297571Y26223996D01*
X29366300Y26498184D01*
X29380217Y26780512D01*
X29338787Y27060130D01*
X29243603Y27326292D01*
X29176671Y27451514D01*
X28932702Y27523097D01*
X28119605Y26710000D01*
X27760395Y26710000D01*
X26947298Y27523097D01*
X26703329Y27451514D01*
X26672029Y27385364D01*
X26636671Y27451514D01*
X26392702Y27523097D01*
X25579605Y26710000D01*
X25220395Y26710000D01*
X25206253Y26724142D01*
X25385858Y26903747D01*
X25400000Y26889605D01*
X26213097Y27702702D01*
X26141514Y27946671D01*
X26112659Y27960324D01*
X26314759Y28095363D01*
X26514637Y28295241D01*
X26670000Y28527759D01*
X26825363Y28295241D01*
X27025241Y28095363D01*
X27225869Y27961308D01*
X27198486Y27946671D01*
X27126903Y27702702D01*
X27940000Y26889605D01*
X28753097Y27702702D01*
X28681514Y27946671D01*
X28652659Y27960324D01*
X28854759Y28095363D01*
X29054637Y28295241D01*
X29141339Y28425000D01*
X29398930Y28425000D01*
X29443038Y28358987D01*
X29628987Y28173038D01*
X29847641Y28026939D01*
X30090595Y27926304D01*
X30348514Y27875000D01*
X30611486Y27875000D01*
X30869405Y27926304D01*
X31112359Y28026939D01*
X31331013Y28173038D01*
X31516962Y28358987D01*
X31663061Y28577641D01*
X31763696Y28820595D01*
X31815000Y29078514D01*
X31815000Y29341486D01*
X31763696Y29599405D01*
X31663061Y29842359D01*
X31516962Y30061013D01*
X31331013Y30246962D01*
X31112359Y30393061D01*
X30869405Y30493696D01*
X30611486Y30545000D01*
X30348514Y30545000D01*
X30090595Y30493696D01*
X29847641Y30393061D01*
X29628987Y30246962D01*
X29443038Y30061013D01*
X29398930Y29995000D01*
X29141339Y29995000D01*
X29054637Y30124759D01*
X28854759Y30324637D01*
X28619727Y30481680D01*
X28358574Y30589853D01*
X28292078Y30603080D01*
X27995158Y30900000D01*
X28086260Y30900000D01*
X28373158Y30957068D01*
X28643411Y31069010D01*
X28886632Y31231525D01*
X29093475Y31438368D01*
X29210000Y31612760D01*
X29326525Y31438368D01*
X29533368Y31231525D01*
X29776589Y31069010D01*
X30046842Y30957068D01*
X30333740Y30900000D01*
X30626260Y30900000D01*
X30913158Y30957068D01*
X31183411Y31069010D01*
X31426632Y31231525D01*
X31633475Y31438368D01*
X31750000Y31612760D01*
X31866525Y31438368D01*
G04 #@! TA.AperFunction,Conductor*
D25*
G36*
X31866525Y31438368D02*
G01*
X32073368Y31231525D01*
X32316589Y31069010D01*
X32586842Y30957068D01*
X32873740Y30900000D01*
X33166260Y30900000D01*
X33356918Y30937925D01*
X33830275Y30464568D01*
X33657641Y30393061D01*
X33438987Y30246962D01*
X33253038Y30061013D01*
X33106939Y29842359D01*
X33006304Y29599405D01*
X32955000Y29341486D01*
X32955000Y29078514D01*
X33006304Y28820595D01*
X33106939Y28577641D01*
X33253038Y28358987D01*
X33438987Y28173038D01*
X33505001Y28128929D01*
X33505001Y27503158D01*
X31170843Y25169000D01*
X24160759Y25169000D01*
X24614614Y25622855D01*
X24658486Y25473329D01*
X24913996Y25352429D01*
X25188184Y25283700D01*
X25470512Y25269783D01*
X25750130Y25311213D01*
X26016292Y25406397D01*
X26141514Y25473329D01*
X26213097Y25717298D01*
X27126903Y25717298D01*
X27198486Y25473329D01*
X27453996Y25352429D01*
X27728184Y25283700D01*
X28010512Y25269783D01*
X28290130Y25311213D01*
X28556292Y25406397D01*
X28681514Y25473329D01*
X28753097Y25717298D01*
X27940000Y26530395D01*
X27126903Y25717298D01*
X26213097Y25717298D01*
X25400000Y26530395D01*
X25385858Y26516252D01*
X25206253Y26695857D01*
X25220395Y26710000D01*
X25579605Y26710000D01*
X26392702Y25896903D01*
X26636671Y25968486D01*
X26667971Y26034636D01*
X26703329Y25968486D01*
X26947298Y25896903D01*
X27760395Y26710000D01*
X28119605Y26710000D01*
X28932702Y25896903D01*
X29176671Y25968486D01*
X29297571Y26223996D01*
X29366300Y26498184D01*
X29380217Y26780512D01*
X29338787Y27060130D01*
X29243603Y27326292D01*
X29176671Y27451514D01*
X28932702Y27523097D01*
X28119605Y26710000D01*
X27760395Y26710000D01*
X26947298Y27523097D01*
X26703329Y27451514D01*
X26672029Y27385364D01*
X26636671Y27451514D01*
X26392702Y27523097D01*
X25579605Y26710000D01*
X25220395Y26710000D01*
X25206253Y26724142D01*
X25385858Y26903747D01*
X25400000Y26889605D01*
X26213097Y27702702D01*
X26141514Y27946671D01*
X26112659Y27960324D01*
X26314759Y28095363D01*
X26514637Y28295241D01*
X26670000Y28527759D01*
X26825363Y28295241D01*
X27025241Y28095363D01*
X27225869Y27961308D01*
X27198486Y27946671D01*
X27126903Y27702702D01*
X27940000Y26889605D01*
X28753097Y27702702D01*
X28681514Y27946671D01*
X28652659Y27960324D01*
X28854759Y28095363D01*
X29054637Y28295241D01*
X29141339Y28425000D01*
X29398930Y28425000D01*
X29443038Y28358987D01*
X29628987Y28173038D01*
X29847641Y28026939D01*
X30090595Y27926304D01*
X30348514Y27875000D01*
X30611486Y27875000D01*
X30869405Y27926304D01*
X31112359Y28026939D01*
X31331013Y28173038D01*
X31516962Y28358987D01*
X31663061Y28577641D01*
X31763696Y28820595D01*
X31815000Y29078514D01*
X31815000Y29341486D01*
X31763696Y29599405D01*
X31663061Y29842359D01*
X31516962Y30061013D01*
X31331013Y30246962D01*
X31112359Y30393061D01*
X30869405Y30493696D01*
X30611486Y30545000D01*
X30348514Y30545000D01*
X30090595Y30493696D01*
X29847641Y30393061D01*
X29628987Y30246962D01*
X29443038Y30061013D01*
X29398930Y29995000D01*
X29141339Y29995000D01*
X29054637Y30124759D01*
X28854759Y30324637D01*
X28619727Y30481680D01*
X28358574Y30589853D01*
X28292078Y30603080D01*
X27995158Y30900000D01*
X28086260Y30900000D01*
X28373158Y30957068D01*
X28643411Y31069010D01*
X28886632Y31231525D01*
X29093475Y31438368D01*
X29210000Y31612760D01*
X29326525Y31438368D01*
X29533368Y31231525D01*
X29776589Y31069010D01*
X30046842Y30957068D01*
X30333740Y30900000D01*
X30626260Y30900000D01*
X30913158Y30957068D01*
X31183411Y31069010D01*
X31426632Y31231525D01*
X31633475Y31438368D01*
X31750000Y31612760D01*
X31866525Y31438368D01*
G37*
G04 #@! TD.AperFunction*
D24*
X15179748Y26684142D02*
X15165605Y26670000D01*
X15179748Y26655857D01*
X15000143Y26476252D01*
X14986000Y26490395D01*
X14971858Y26476252D01*
X14792253Y26655857D01*
X14806395Y26670000D01*
X14792253Y26684142D01*
X14971858Y26863747D01*
X14986000Y26849605D01*
X15000143Y26863747D01*
X15179748Y26684142D01*
G04 #@! TA.AperFunction,Conductor*
D25*
G36*
X15179748Y26684142D02*
G01*
X15165605Y26670000D01*
X15179748Y26655857D01*
X15000143Y26476252D01*
X14986000Y26490395D01*
X14971858Y26476252D01*
X14792253Y26655857D01*
X14806395Y26670000D01*
X14792253Y26684142D01*
X14971858Y26863747D01*
X14986000Y26849605D01*
X15000143Y26863747D01*
X15179748Y26684142D01*
G37*
G04 #@! TD.AperFunction*
D24*
X23053748Y26724142D02*
X23039605Y26710000D01*
X23053748Y26695857D01*
X22874143Y26516252D01*
X22860000Y26530395D01*
X22845858Y26516252D01*
X22666253Y26695857D01*
X22680395Y26710000D01*
X22666253Y26724142D01*
X22845858Y26903747D01*
X22860000Y26889605D01*
X22874143Y26903747D01*
X23053748Y26724142D01*
G04 #@! TA.AperFunction,Conductor*
D25*
G36*
X23053748Y26724142D02*
G01*
X23039605Y26710000D01*
X23053748Y26695857D01*
X22874143Y26516252D01*
X22860000Y26530395D01*
X22845858Y26516252D01*
X22666253Y26695857D01*
X22680395Y26710000D01*
X22666253Y26724142D01*
X22845858Y26903747D01*
X22860000Y26889605D01*
X22874143Y26903747D01*
X23053748Y26724142D01*
G37*
G04 #@! TD.AperFunction*
D24*
X20513748Y26724142D02*
X20499605Y26710000D01*
X20513748Y26695857D01*
X20334143Y26516252D01*
X20320000Y26530395D01*
X20305858Y26516252D01*
X20126253Y26695857D01*
X20140395Y26710000D01*
X20126253Y26724142D01*
X20305858Y26903747D01*
X20320000Y26889605D01*
X20334143Y26903747D01*
X20513748Y26724142D01*
G04 #@! TA.AperFunction,Conductor*
D25*
G36*
X20513748Y26724142D02*
G01*
X20499605Y26710000D01*
X20513748Y26695857D01*
X20334143Y26516252D01*
X20320000Y26530395D01*
X20305858Y26516252D01*
X20126253Y26695857D01*
X20140395Y26710000D01*
X20126253Y26724142D01*
X20305858Y26903747D01*
X20320000Y26889605D01*
X20334143Y26903747D01*
X20513748Y26724142D01*
G37*
G04 #@! TD.AperFunction*
G04 #@! TD*
M02*
