G04 #@! TF.GenerationSoftware,KiCad,Pcbnew,(5.1.10)-1*
G04 #@! TF.CreationDate,2021-08-27T23:45:12+02:00*
G04 #@! TF.ProjectId,JuntekOnSteroidsTTGO,4a756e74-656b-44f6-9e53-7465726f6964,2.5*
G04 #@! TF.SameCoordinates,PX5b716c8PY5b716c8*
G04 #@! TF.FileFunction,Legend,Top*
G04 #@! TF.FilePolarity,Positive*
%FSLAX46Y46*%
G04 Gerber Fmt 4.6, Leading zero omitted, Abs format (unit mm)*
G04 Created by KiCad (PCBNEW (5.1.10)-1) date 2021-08-27 23:45:12*
%MOMM*%
%LPD*%
G01*
G04 APERTURE LIST*
%ADD10C,0.150000*%
%ADD11C,0.120000*%
G04 APERTURE END LIST*
D10*
X48839380Y12993810D02*
X47839380Y12993810D01*
X47934619Y13422381D02*
X47887000Y13470000D01*
X47839380Y13565239D01*
X47839380Y13803334D01*
X47887000Y13898572D01*
X47934619Y13946191D01*
X48029857Y13993810D01*
X48125095Y13993810D01*
X48267952Y13946191D01*
X48839380Y13374762D01*
X48839380Y13993810D01*
X48744142Y14993810D02*
X48791761Y14946191D01*
X48839380Y14803334D01*
X48839380Y14708096D01*
X48791761Y14565239D01*
X48696523Y14470000D01*
X48601285Y14422381D01*
X48410809Y14374762D01*
X48267952Y14374762D01*
X48077476Y14422381D01*
X47982238Y14470000D01*
X47887000Y14565239D01*
X47839380Y14708096D01*
X47839380Y14803334D01*
X47887000Y14946191D01*
X47934619Y14993810D01*
X25997523Y15360667D02*
X26378476Y15360667D01*
X25921333Y15132096D02*
X26188000Y15932096D01*
X26454666Y15132096D01*
X26721333Y15132096D02*
X26721333Y15932096D01*
X26911809Y15932096D01*
X27026095Y15894000D01*
X27102285Y15817810D01*
X27140380Y15741620D01*
X27178476Y15589239D01*
X27178476Y15474953D01*
X27140380Y15322572D01*
X27102285Y15246381D01*
X27026095Y15170191D01*
X26911809Y15132096D01*
X26721333Y15132096D01*
X27978476Y15208286D02*
X27940380Y15170191D01*
X27826095Y15132096D01*
X27749904Y15132096D01*
X27635619Y15170191D01*
X27559428Y15246381D01*
X27521333Y15322572D01*
X27483238Y15474953D01*
X27483238Y15589239D01*
X27521333Y15741620D01*
X27559428Y15817810D01*
X27635619Y15894000D01*
X27749904Y15932096D01*
X27826095Y15932096D01*
X27940380Y15894000D01*
X27978476Y15855905D01*
X28740380Y15132096D02*
X28283238Y15132096D01*
X28511809Y15132096D02*
X28511809Y15932096D01*
X28435619Y15817810D01*
X28359428Y15741620D01*
X28283238Y15703524D01*
X29502285Y15132096D02*
X29045142Y15132096D01*
X29273714Y15132096D02*
X29273714Y15932096D01*
X29197523Y15817810D01*
X29121333Y15741620D01*
X29045142Y15703524D01*
X30264190Y15132096D02*
X29807047Y15132096D01*
X30035619Y15132096D02*
X30035619Y15932096D01*
X29959428Y15817810D01*
X29883238Y15741620D01*
X29807047Y15703524D01*
X30988000Y15932096D02*
X30607047Y15932096D01*
X30568952Y15551143D01*
X30607047Y15589239D01*
X30683238Y15627334D01*
X30873714Y15627334D01*
X30949904Y15589239D01*
X30988000Y15551143D01*
X31026095Y15474953D01*
X31026095Y15284477D01*
X30988000Y15208286D01*
X30949904Y15170191D01*
X30873714Y15132096D01*
X30683238Y15132096D01*
X30607047Y15170191D01*
X30568952Y15208286D01*
X31978476Y15132096D02*
X31978476Y15665429D01*
X31978476Y15589239D02*
X32016571Y15627334D01*
X32092761Y15665429D01*
X32207047Y15665429D01*
X32283238Y15627334D01*
X32321333Y15551143D01*
X32321333Y15132096D01*
X32321333Y15551143D02*
X32359428Y15627334D01*
X32435619Y15665429D01*
X32549904Y15665429D01*
X32626095Y15627334D01*
X32664190Y15551143D01*
X32664190Y15132096D01*
X33159428Y15132096D02*
X33083238Y15170191D01*
X33045142Y15208286D01*
X33007047Y15284477D01*
X33007047Y15513048D01*
X33045142Y15589239D01*
X33083238Y15627334D01*
X33159428Y15665429D01*
X33273714Y15665429D01*
X33349904Y15627334D01*
X33388000Y15589239D01*
X33426095Y15513048D01*
X33426095Y15284477D01*
X33388000Y15208286D01*
X33349904Y15170191D01*
X33273714Y15132096D01*
X33159428Y15132096D01*
X34111809Y15132096D02*
X34111809Y15932096D01*
X34111809Y15170191D02*
X34035619Y15132096D01*
X33883238Y15132096D01*
X33807047Y15170191D01*
X33768952Y15208286D01*
X33730857Y15284477D01*
X33730857Y15513048D01*
X33768952Y15589239D01*
X33807047Y15627334D01*
X33883238Y15665429D01*
X34035619Y15665429D01*
X34111809Y15627334D01*
X34835619Y15665429D02*
X34835619Y15132096D01*
X34492761Y15665429D02*
X34492761Y15246381D01*
X34530857Y15170191D01*
X34607047Y15132096D01*
X34721333Y15132096D01*
X34797523Y15170191D01*
X34835619Y15208286D01*
X35330857Y15132096D02*
X35254666Y15170191D01*
X35216571Y15246381D01*
X35216571Y15932096D01*
X35940380Y15170191D02*
X35864190Y15132096D01*
X35711809Y15132096D01*
X35635619Y15170191D01*
X35597523Y15246381D01*
X35597523Y15551143D01*
X35635619Y15627334D01*
X35711809Y15665429D01*
X35864190Y15665429D01*
X35940380Y15627334D01*
X35978476Y15551143D01*
X35978476Y15474953D01*
X35597523Y15398762D01*
X23299047Y7042143D02*
X23565714Y7042143D01*
X23680000Y6623096D02*
X23299047Y6623096D01*
X23299047Y7423096D01*
X23680000Y7423096D01*
X23984761Y6661191D02*
X24099047Y6623096D01*
X24289523Y6623096D01*
X24365714Y6661191D01*
X24403809Y6699286D01*
X24441904Y6775477D01*
X24441904Y6851667D01*
X24403809Y6927858D01*
X24365714Y6965953D01*
X24289523Y7004048D01*
X24137142Y7042143D01*
X24060952Y7080239D01*
X24022857Y7118334D01*
X23984761Y7194524D01*
X23984761Y7270715D01*
X24022857Y7346905D01*
X24060952Y7385000D01*
X24137142Y7423096D01*
X24327619Y7423096D01*
X24441904Y7385000D01*
X24784761Y6623096D02*
X24784761Y7423096D01*
X25089523Y7423096D01*
X25165714Y7385000D01*
X25203809Y7346905D01*
X25241904Y7270715D01*
X25241904Y7156429D01*
X25203809Y7080239D01*
X25165714Y7042143D01*
X25089523Y7004048D01*
X24784761Y7004048D01*
X25508571Y7423096D02*
X26003809Y7423096D01*
X25737142Y7118334D01*
X25851428Y7118334D01*
X25927619Y7080239D01*
X25965714Y7042143D01*
X26003809Y6965953D01*
X26003809Y6775477D01*
X25965714Y6699286D01*
X25927619Y6661191D01*
X25851428Y6623096D01*
X25622857Y6623096D01*
X25546666Y6661191D01*
X25508571Y6699286D01*
X26308571Y7346905D02*
X26346666Y7385000D01*
X26422857Y7423096D01*
X26613333Y7423096D01*
X26689523Y7385000D01*
X26727619Y7346905D01*
X26765714Y7270715D01*
X26765714Y7194524D01*
X26727619Y7080239D01*
X26270476Y6623096D01*
X26765714Y6623096D01*
X27603809Y7423096D02*
X28060952Y7423096D01*
X27832380Y6623096D02*
X27832380Y7423096D01*
X28213333Y7423096D02*
X28670476Y7423096D01*
X28441904Y6623096D02*
X28441904Y7423096D01*
X29356190Y7385000D02*
X29280000Y7423096D01*
X29165714Y7423096D01*
X29051428Y7385000D01*
X28975238Y7308810D01*
X28937142Y7232620D01*
X28899047Y7080239D01*
X28899047Y6965953D01*
X28937142Y6813572D01*
X28975238Y6737381D01*
X29051428Y6661191D01*
X29165714Y6623096D01*
X29241904Y6623096D01*
X29356190Y6661191D01*
X29394285Y6699286D01*
X29394285Y6965953D01*
X29241904Y6965953D01*
X29889523Y7423096D02*
X30041904Y7423096D01*
X30118095Y7385000D01*
X30194285Y7308810D01*
X30232380Y7156429D01*
X30232380Y6889762D01*
X30194285Y6737381D01*
X30118095Y6661191D01*
X30041904Y6623096D01*
X29889523Y6623096D01*
X29813333Y6661191D01*
X29737142Y6737381D01*
X29699047Y6889762D01*
X29699047Y7156429D01*
X29737142Y7308810D01*
X29813333Y7385000D01*
X29889523Y7423096D01*
X31070476Y7423096D02*
X31527619Y7423096D01*
X31299047Y6623096D02*
X31299047Y7423096D01*
X32060952Y7042143D02*
X31794285Y7042143D01*
X31794285Y6623096D02*
X31794285Y7423096D01*
X32175238Y7423096D01*
X32365714Y7423096D02*
X32822857Y7423096D01*
X32594285Y6623096D02*
X32594285Y7423096D01*
X33699047Y6623096D02*
X33699047Y7156429D01*
X33699047Y7080239D02*
X33737142Y7118334D01*
X33813333Y7156429D01*
X33927619Y7156429D01*
X34003809Y7118334D01*
X34041904Y7042143D01*
X34041904Y6623096D01*
X34041904Y7042143D02*
X34080000Y7118334D01*
X34156190Y7156429D01*
X34270476Y7156429D01*
X34346666Y7118334D01*
X34384761Y7042143D01*
X34384761Y6623096D01*
X34880000Y6623096D02*
X34803809Y6661191D01*
X34765714Y6699286D01*
X34727619Y6775477D01*
X34727619Y7004048D01*
X34765714Y7080239D01*
X34803809Y7118334D01*
X34880000Y7156429D01*
X34994285Y7156429D01*
X35070476Y7118334D01*
X35108571Y7080239D01*
X35146666Y7004048D01*
X35146666Y6775477D01*
X35108571Y6699286D01*
X35070476Y6661191D01*
X34994285Y6623096D01*
X34880000Y6623096D01*
X35832380Y6623096D02*
X35832380Y7423096D01*
X35832380Y6661191D02*
X35756190Y6623096D01*
X35603809Y6623096D01*
X35527619Y6661191D01*
X35489523Y6699286D01*
X35451428Y6775477D01*
X35451428Y7004048D01*
X35489523Y7080239D01*
X35527619Y7118334D01*
X35603809Y7156429D01*
X35756190Y7156429D01*
X35832380Y7118334D01*
X36556190Y7156429D02*
X36556190Y6623096D01*
X36213333Y7156429D02*
X36213333Y6737381D01*
X36251428Y6661191D01*
X36327619Y6623096D01*
X36441904Y6623096D01*
X36518095Y6661191D01*
X36556190Y6699286D01*
X37051428Y6623096D02*
X36975238Y6661191D01*
X36937142Y6737381D01*
X36937142Y7423096D01*
X37660952Y6661191D02*
X37584761Y6623096D01*
X37432380Y6623096D01*
X37356190Y6661191D01*
X37318095Y6737381D01*
X37318095Y7042143D01*
X37356190Y7118334D01*
X37432380Y7156429D01*
X37584761Y7156429D01*
X37660952Y7118334D01*
X37699047Y7042143D01*
X37699047Y6965953D01*
X37318095Y6889762D01*
X13997142Y6713572D02*
X13797142Y6999286D01*
X13654285Y6713572D02*
X13654285Y7313572D01*
X13882857Y7313572D01*
X13940000Y7285000D01*
X13968571Y7256429D01*
X13997142Y7199286D01*
X13997142Y7113572D01*
X13968571Y7056429D01*
X13940000Y7027858D01*
X13882857Y6999286D01*
X13654285Y6999286D01*
X14482857Y6742143D02*
X14425714Y6713572D01*
X14311428Y6713572D01*
X14254285Y6742143D01*
X14225714Y6799286D01*
X14225714Y7027858D01*
X14254285Y7085000D01*
X14311428Y7113572D01*
X14425714Y7113572D01*
X14482857Y7085000D01*
X14511428Y7027858D01*
X14511428Y6970715D01*
X14225714Y6913572D01*
X14711428Y7113572D02*
X14854285Y6713572D01*
X14997142Y7113572D01*
X15654285Y7256429D02*
X15682857Y7285000D01*
X15740000Y7313572D01*
X15882857Y7313572D01*
X15940000Y7285000D01*
X15968571Y7256429D01*
X15997142Y7199286D01*
X15997142Y7142143D01*
X15968571Y7056429D01*
X15625714Y6713572D01*
X15997142Y6713572D01*
X16254285Y6770715D02*
X16282857Y6742143D01*
X16254285Y6713572D01*
X16225714Y6742143D01*
X16254285Y6770715D01*
X16254285Y6713572D01*
X16825714Y7313572D02*
X16540000Y7313572D01*
X16511428Y7027858D01*
X16540000Y7056429D01*
X16597142Y7085000D01*
X16740000Y7085000D01*
X16797142Y7056429D01*
X16825714Y7027858D01*
X16854285Y6970715D01*
X16854285Y6827858D01*
X16825714Y6770715D01*
X16797142Y6742143D01*
X16740000Y6713572D01*
X16597142Y6713572D01*
X16540000Y6742143D01*
X16511428Y6770715D01*
D11*
G04 #@! TO.C,C7*
X46355000Y28575000D02*
X52705000Y28575000D01*
X52705000Y28575000D02*
X52705000Y20955000D01*
X52705000Y20955000D02*
X46355000Y20955000D01*
X46355000Y20955000D02*
X46355000Y28575000D01*
X47625000Y20955000D02*
X47625000Y19685000D01*
X51435000Y20955000D02*
X51435000Y19685000D01*
G04 #@! TO.C,J3*
X3750000Y6925000D02*
X6410000Y6925000D01*
X3750000Y24765000D02*
X3750000Y6925000D01*
X6410000Y24765000D02*
X6410000Y6925000D01*
X3750000Y24765000D02*
X6410000Y24765000D01*
X3750000Y26035000D02*
X3750000Y27365000D01*
X3750000Y27365000D02*
X5080000Y27365000D01*
G04 #@! TO.C,C9*
X13575000Y13366000D02*
X14833000Y13366000D01*
X13575000Y11526000D02*
X14833000Y11526000D01*
G04 #@! TO.C,R16*
X23190000Y19050000D02*
X22240000Y19050000D01*
X17450000Y19050000D02*
X18400000Y19050000D01*
X22240000Y19970000D02*
X18400000Y19970000D01*
X22240000Y18130000D02*
X22240000Y19970000D01*
X18400000Y18130000D02*
X22240000Y18130000D01*
X18400000Y19970000D02*
X18400000Y18130000D01*
G04 #@! TO.C,J61*
X12125000Y34350000D02*
X9465000Y34350000D01*
X12125000Y29210000D02*
X12125000Y34350000D01*
X9465000Y29210000D02*
X9465000Y34350000D01*
X12125000Y29210000D02*
X9465000Y29210000D01*
X12125000Y27940000D02*
X12125000Y26610000D01*
X12125000Y26610000D02*
X10795000Y26610000D01*
G04 #@! TO.C,J22*
X12125000Y14030000D02*
X9465000Y14030000D01*
X12125000Y11430000D02*
X12125000Y14030000D01*
X9465000Y11430000D02*
X9465000Y14030000D01*
X12125000Y11430000D02*
X9465000Y11430000D01*
X12125000Y10160000D02*
X12125000Y8830000D01*
X12125000Y8830000D02*
X10795000Y8830000D01*
G04 #@! TO.C,J21*
X14665000Y24190000D02*
X9465000Y24190000D01*
X14665000Y16510000D02*
X14665000Y24190000D01*
X9465000Y13910000D02*
X9465000Y24190000D01*
X14665000Y16510000D02*
X12065000Y16510000D01*
X12065000Y16510000D02*
X12065000Y13910000D01*
X12065000Y13910000D02*
X9465000Y13910000D01*
X14665000Y15240000D02*
X14665000Y13910000D01*
X14665000Y13910000D02*
X13335000Y13910000D01*
G04 #@! TO.C,J7*
X53880000Y17300000D02*
X49160000Y17300000D01*
X49160000Y17300000D02*
X49160000Y7180000D01*
X49160000Y7180000D02*
X53880000Y7180000D01*
X53880000Y7180000D02*
X53880000Y17300000D01*
X53880000Y15540000D02*
X54080000Y15540000D01*
X54080000Y15540000D02*
X54080000Y15840000D01*
X54080000Y15840000D02*
X53880000Y15840000D01*
X53980000Y15540000D02*
X53980000Y15840000D01*
X53880000Y14740000D02*
X53270000Y14740000D01*
X53270000Y14740000D02*
X53270000Y16690000D01*
X53270000Y16690000D02*
X49770000Y16690000D01*
X49770000Y16690000D02*
X49770000Y7790000D01*
X49770000Y7790000D02*
X53270000Y7790000D01*
X53270000Y7790000D02*
X53270000Y9740000D01*
X53270000Y9740000D02*
X53880000Y9740000D01*
X52570000Y17300000D02*
X52570000Y16690000D01*
X51270000Y17300000D02*
X51270000Y16690000D01*
X52570000Y7180000D02*
X52570000Y7790000D01*
X51270000Y7180000D02*
X51270000Y7790000D01*
X49770000Y14340000D02*
X50270000Y14340000D01*
X50270000Y14340000D02*
X50270000Y14140000D01*
X50270000Y14140000D02*
X49770000Y14140000D01*
X49770000Y14240000D02*
X50270000Y14240000D01*
X49770000Y12340000D02*
X50270000Y12340000D01*
X50270000Y12340000D02*
X50270000Y12140000D01*
X50270000Y12140000D02*
X49770000Y12140000D01*
X49770000Y12240000D02*
X50270000Y12240000D01*
X49770000Y10340000D02*
X50270000Y10340000D01*
X50270000Y10340000D02*
X50270000Y10140000D01*
X50270000Y10140000D02*
X49770000Y10140000D01*
X49770000Y10240000D02*
X50270000Y10240000D01*
X54180000Y16350000D02*
X54180000Y17600000D01*
X54180000Y17600000D02*
X52930000Y17600000D01*
G04 #@! TO.C,J10*
X19050000Y12005000D02*
X19050000Y14665000D01*
X19050000Y12005000D02*
X41970000Y12005000D01*
X41970000Y12005000D02*
X41970000Y14665000D01*
X19050000Y14665000D02*
X41970000Y14665000D01*
X16450000Y14665000D02*
X17780000Y14665000D01*
X16450000Y13335000D02*
X16450000Y14665000D01*
G04 #@! TO.C,R13*
X38720000Y23780000D02*
X38720000Y21940000D01*
X38720000Y21940000D02*
X42560000Y21940000D01*
X42560000Y21940000D02*
X42560000Y23780000D01*
X42560000Y23780000D02*
X38720000Y23780000D01*
X37770000Y22860000D02*
X38720000Y22860000D01*
X43510000Y22860000D02*
X42560000Y22860000D01*
G04 #@! TO.C,C6*
X47910000Y9805000D02*
X47910000Y11063000D01*
X46070000Y9805000D02*
X46070000Y11063000D01*
G04 #@! TO.C,C5*
X15906000Y27291000D02*
X15906000Y28549000D01*
X14066000Y27291000D02*
X14066000Y28549000D01*
G04 #@! TO.C,R20*
X17780000Y22530000D02*
X17780000Y23480000D01*
X17780000Y28270000D02*
X17780000Y27320000D01*
X18700000Y23480000D02*
X18700000Y27320000D01*
X16860000Y23480000D02*
X18700000Y23480000D01*
X16860000Y27320000D02*
X16860000Y23480000D01*
X18700000Y27320000D02*
X16860000Y27320000D01*
G04 #@! TO.C,R18*
X23190000Y16510000D02*
X22240000Y16510000D01*
X17450000Y16510000D02*
X18400000Y16510000D01*
X22240000Y17430000D02*
X18400000Y17430000D01*
X22240000Y15590000D02*
X22240000Y17430000D01*
X18400000Y15590000D02*
X22240000Y15590000D01*
X18400000Y17430000D02*
X18400000Y15590000D01*
G04 #@! TO.C,R17*
X43510000Y19050000D02*
X42560000Y19050000D01*
X37770000Y19050000D02*
X38720000Y19050000D01*
X42560000Y19970000D02*
X38720000Y19970000D01*
X42560000Y18130000D02*
X42560000Y19970000D01*
X38720000Y18130000D02*
X42560000Y18130000D01*
X38720000Y19970000D02*
X38720000Y18130000D01*
G04 #@! TO.C,R15*
X43510000Y26670000D02*
X42560000Y26670000D01*
X37770000Y26670000D02*
X38720000Y26670000D01*
X42560000Y27590000D02*
X38720000Y27590000D01*
X42560000Y25750000D02*
X42560000Y27590000D01*
X38720000Y25750000D02*
X42560000Y25750000D01*
X38720000Y27590000D02*
X38720000Y25750000D01*
G04 #@! TO.C,R12*
X34290000Y28270000D02*
X34290000Y27320000D01*
X34290000Y22530000D02*
X34290000Y23480000D01*
X33370000Y27320000D02*
X33370000Y23480000D01*
X35210000Y27320000D02*
X33370000Y27320000D01*
X35210000Y23480000D02*
X35210000Y27320000D01*
X33370000Y23480000D02*
X35210000Y23480000D01*
G04 #@! TO.C,R11*
X21260000Y21590000D02*
X22210000Y21590000D01*
X27000000Y21590000D02*
X26050000Y21590000D01*
X22210000Y20670000D02*
X26050000Y20670000D01*
X22210000Y22510000D02*
X22210000Y20670000D01*
X26050000Y22510000D02*
X22210000Y22510000D01*
X26050000Y20670000D02*
X26050000Y22510000D01*
G04 #@! TO.C,C3*
X24480000Y28589000D02*
X24480000Y27331000D01*
X26320000Y28589000D02*
X26320000Y27331000D01*
G04 #@! TO.C,C2*
X21940000Y28589000D02*
X21940000Y27331000D01*
X23780000Y28589000D02*
X23780000Y27331000D01*
G04 #@! TO.C,C1*
X19400000Y28589000D02*
X19400000Y27331000D01*
X21240000Y28589000D02*
X21240000Y27331000D01*
G04 #@! TO.C,R14*
X30480000Y22530000D02*
X30480000Y23480000D01*
X30480000Y28270000D02*
X30480000Y27320000D01*
X31400000Y23480000D02*
X31400000Y27320000D01*
X29560000Y23480000D02*
X31400000Y23480000D01*
X29560000Y27320000D02*
X29560000Y23480000D01*
X31400000Y27320000D02*
X29560000Y27320000D01*
G04 #@! TO.C,C8*
X42519000Y30130000D02*
X41261000Y30130000D01*
X42519000Y28290000D02*
X41261000Y28290000D01*
G04 #@! TO.C,C4*
X27020000Y28589000D02*
X27020000Y27331000D01*
X28860000Y28589000D02*
X28860000Y27331000D01*
G04 #@! TO.C,J5*
X41910000Y10855000D02*
X41910000Y8195000D01*
X41910000Y10855000D02*
X13910000Y10855000D01*
X13910000Y10855000D02*
X13910000Y8195000D01*
X41910000Y8195000D02*
X13910000Y8195000D01*
X44510000Y8195000D02*
X43180000Y8195000D01*
X44510000Y9525000D02*
X44510000Y8195000D01*
G04 #@! TO.C,J4*
X41910000Y33715000D02*
X41910000Y31055000D01*
X41910000Y33715000D02*
X13910000Y33715000D01*
X13910000Y33715000D02*
X13910000Y31055000D01*
X41910000Y31055000D02*
X13910000Y31055000D01*
X44510000Y31055000D02*
X43180000Y31055000D01*
X44510000Y32385000D02*
X44510000Y31055000D01*
G04 #@! TO.C,C7*
D10*
X49208333Y24577858D02*
X49160714Y24530239D01*
X49017857Y24482620D01*
X48922619Y24482620D01*
X48779761Y24530239D01*
X48684523Y24625477D01*
X48636904Y24720715D01*
X48589285Y24911191D01*
X48589285Y25054048D01*
X48636904Y25244524D01*
X48684523Y25339762D01*
X48779761Y25435000D01*
X48922619Y25482620D01*
X49017857Y25482620D01*
X49160714Y25435000D01*
X49208333Y25387381D01*
X49541666Y25482620D02*
X50208333Y25482620D01*
X49779761Y24482620D01*
G04 #@! TO.C,J3*
X4746666Y28912620D02*
X4746666Y28198334D01*
X4699047Y28055477D01*
X4603809Y27960239D01*
X4460952Y27912620D01*
X4365714Y27912620D01*
X5127619Y28912620D02*
X5746666Y28912620D01*
X5413333Y28531667D01*
X5556190Y28531667D01*
X5651428Y28484048D01*
X5699047Y28436429D01*
X5746666Y28341191D01*
X5746666Y28103096D01*
X5699047Y28007858D01*
X5651428Y27960239D01*
X5556190Y27912620D01*
X5270476Y27912620D01*
X5175238Y27960239D01*
X5127619Y28007858D01*
G04 #@! TO.C,C9*
X13311142Y10247334D02*
X13358761Y10199715D01*
X13406380Y10056858D01*
X13406380Y9961620D01*
X13358761Y9818762D01*
X13263523Y9723524D01*
X13168285Y9675905D01*
X12977809Y9628286D01*
X12834952Y9628286D01*
X12644476Y9675905D01*
X12549238Y9723524D01*
X12454000Y9818762D01*
X12406380Y9961620D01*
X12406380Y10056858D01*
X12454000Y10199715D01*
X12501619Y10247334D01*
X13406380Y10723524D02*
X13406380Y10914000D01*
X13358761Y11009239D01*
X13311142Y11056858D01*
X13168285Y11152096D01*
X12977809Y11199715D01*
X12596857Y11199715D01*
X12501619Y11152096D01*
X12454000Y11104477D01*
X12406380Y11009239D01*
X12406380Y10818762D01*
X12454000Y10723524D01*
X12501619Y10675905D01*
X12596857Y10628286D01*
X12834952Y10628286D01*
X12930190Y10675905D01*
X12977809Y10723524D01*
X13025428Y10818762D01*
X13025428Y11009239D01*
X12977809Y11104477D01*
X12930190Y11152096D01*
X12834952Y11199715D01*
G04 #@! TO.C,R16*
X26027142Y17835620D02*
X25693809Y18311810D01*
X25455714Y17835620D02*
X25455714Y18835620D01*
X25836666Y18835620D01*
X25931904Y18788000D01*
X25979523Y18740381D01*
X26027142Y18645143D01*
X26027142Y18502286D01*
X25979523Y18407048D01*
X25931904Y18359429D01*
X25836666Y18311810D01*
X25455714Y18311810D01*
X26979523Y17835620D02*
X26408095Y17835620D01*
X26693809Y17835620D02*
X26693809Y18835620D01*
X26598571Y18692762D01*
X26503333Y18597524D01*
X26408095Y18549905D01*
X27836666Y18835620D02*
X27646190Y18835620D01*
X27550952Y18788000D01*
X27503333Y18740381D01*
X27408095Y18597524D01*
X27360476Y18407048D01*
X27360476Y18026096D01*
X27408095Y17930858D01*
X27455714Y17883239D01*
X27550952Y17835620D01*
X27741428Y17835620D01*
X27836666Y17883239D01*
X27884285Y17930858D01*
X27931904Y18026096D01*
X27931904Y18264191D01*
X27884285Y18359429D01*
X27836666Y18407048D01*
X27741428Y18454667D01*
X27550952Y18454667D01*
X27455714Y18407048D01*
X27408095Y18359429D01*
X27360476Y18264191D01*
G04 #@! TO.C,FID2*
X53332142Y32427858D02*
X53132142Y32427858D01*
X53132142Y32113572D02*
X53132142Y32713572D01*
X53417857Y32713572D01*
X53646428Y32113572D02*
X53646428Y32713572D01*
X53932142Y32113572D02*
X53932142Y32713572D01*
X54075000Y32713572D01*
X54160714Y32685000D01*
X54217857Y32627858D01*
X54246428Y32570715D01*
X54275000Y32456429D01*
X54275000Y32370715D01*
X54246428Y32256429D01*
X54217857Y32199286D01*
X54160714Y32142143D01*
X54075000Y32113572D01*
X53932142Y32113572D01*
X54503571Y32656429D02*
X54532142Y32685000D01*
X54589285Y32713572D01*
X54732142Y32713572D01*
X54789285Y32685000D01*
X54817857Y32656429D01*
X54846428Y32599286D01*
X54846428Y32542143D01*
X54817857Y32456429D01*
X54475000Y32113572D01*
X54846428Y32113572D01*
G04 #@! TO.C,J61*
X9350476Y26201620D02*
X9350476Y25487334D01*
X9302857Y25344477D01*
X9207619Y25249239D01*
X9064761Y25201620D01*
X8969523Y25201620D01*
X10255238Y26201620D02*
X10064761Y26201620D01*
X9969523Y26154000D01*
X9921904Y26106381D01*
X9826666Y25963524D01*
X9779047Y25773048D01*
X9779047Y25392096D01*
X9826666Y25296858D01*
X9874285Y25249239D01*
X9969523Y25201620D01*
X10160000Y25201620D01*
X10255238Y25249239D01*
X10302857Y25296858D01*
X10350476Y25392096D01*
X10350476Y25630191D01*
X10302857Y25725429D01*
X10255238Y25773048D01*
X10160000Y25820667D01*
X9969523Y25820667D01*
X9874285Y25773048D01*
X9826666Y25725429D01*
X9779047Y25630191D01*
X11302857Y25201620D02*
X10731428Y25201620D01*
X11017142Y25201620D02*
X11017142Y26201620D01*
X10921904Y26058762D01*
X10826666Y25963524D01*
X10731428Y25915905D01*
G04 #@! TO.C,J22*
X8088380Y8207477D02*
X8802666Y8207477D01*
X8945523Y8159858D01*
X9040761Y8064620D01*
X9088380Y7921762D01*
X9088380Y7826524D01*
X8183619Y8636048D02*
X8136000Y8683667D01*
X8088380Y8778905D01*
X8088380Y9017000D01*
X8136000Y9112239D01*
X8183619Y9159858D01*
X8278857Y9207477D01*
X8374095Y9207477D01*
X8516952Y9159858D01*
X9088380Y8588429D01*
X9088380Y9207477D01*
X8183619Y9588429D02*
X8136000Y9636048D01*
X8088380Y9731286D01*
X8088380Y9969381D01*
X8136000Y10064620D01*
X8183619Y10112239D01*
X8278857Y10159858D01*
X8374095Y10159858D01*
X8516952Y10112239D01*
X9088380Y9540810D01*
X9088380Y10159858D01*
G04 #@! TO.C,J21*
X12398476Y25439620D02*
X12398476Y24725334D01*
X12350857Y24582477D01*
X12255619Y24487239D01*
X12112761Y24439620D01*
X12017523Y24439620D01*
X12827047Y25344381D02*
X12874666Y25392000D01*
X12969904Y25439620D01*
X13208000Y25439620D01*
X13303238Y25392000D01*
X13350857Y25344381D01*
X13398476Y25249143D01*
X13398476Y25153905D01*
X13350857Y25011048D01*
X12779428Y24439620D01*
X13398476Y24439620D01*
X14350857Y24439620D02*
X13779428Y24439620D01*
X14065142Y24439620D02*
X14065142Y25439620D01*
X13969904Y25296762D01*
X13874666Y25201524D01*
X13779428Y25153905D01*
G04 #@! TO.C,J7*
X46315380Y13509667D02*
X47029666Y13509667D01*
X47172523Y13462048D01*
X47267761Y13366810D01*
X47315380Y13223953D01*
X47315380Y13128715D01*
X46315380Y13890620D02*
X46315380Y14557286D01*
X47315380Y14128715D01*
G04 #@! TO.C,J10*
X15192476Y15660620D02*
X15192476Y14946334D01*
X15144857Y14803477D01*
X15049619Y14708239D01*
X14906761Y14660620D01*
X14811523Y14660620D01*
X16192476Y14660620D02*
X15621047Y14660620D01*
X15906761Y14660620D02*
X15906761Y15660620D01*
X15811523Y15517762D01*
X15716285Y15422524D01*
X15621047Y15374905D01*
X16811523Y15660620D02*
X16906761Y15660620D01*
X17002000Y15613000D01*
X17049619Y15565381D01*
X17097238Y15470143D01*
X17144857Y15279667D01*
X17144857Y15041572D01*
X17097238Y14851096D01*
X17049619Y14755858D01*
X17002000Y14708239D01*
X16906761Y14660620D01*
X16811523Y14660620D01*
X16716285Y14708239D01*
X16668666Y14755858D01*
X16621047Y14851096D01*
X16573428Y15041572D01*
X16573428Y15279667D01*
X16621047Y15470143D01*
X16668666Y15565381D01*
X16716285Y15613000D01*
X16811523Y15660620D01*
G04 #@! TO.C,R13*
X36695142Y23931620D02*
X36361809Y24407810D01*
X36123714Y23931620D02*
X36123714Y24931620D01*
X36504666Y24931620D01*
X36599904Y24884000D01*
X36647523Y24836381D01*
X36695142Y24741143D01*
X36695142Y24598286D01*
X36647523Y24503048D01*
X36599904Y24455429D01*
X36504666Y24407810D01*
X36123714Y24407810D01*
X37647523Y23931620D02*
X37076095Y23931620D01*
X37361809Y23931620D02*
X37361809Y24931620D01*
X37266571Y24788762D01*
X37171333Y24693524D01*
X37076095Y24645905D01*
X37980857Y24931620D02*
X38599904Y24931620D01*
X38266571Y24550667D01*
X38409428Y24550667D01*
X38504666Y24503048D01*
X38552285Y24455429D01*
X38599904Y24360191D01*
X38599904Y24122096D01*
X38552285Y24026858D01*
X38504666Y23979239D01*
X38409428Y23931620D01*
X38123714Y23931620D01*
X38028476Y23979239D01*
X37980857Y24026858D01*
G04 #@! TO.C,C6*
X45569142Y8215334D02*
X45616761Y8167715D01*
X45664380Y8024858D01*
X45664380Y7929620D01*
X45616761Y7786762D01*
X45521523Y7691524D01*
X45426285Y7643905D01*
X45235809Y7596286D01*
X45092952Y7596286D01*
X44902476Y7643905D01*
X44807238Y7691524D01*
X44712000Y7786762D01*
X44664380Y7929620D01*
X44664380Y8024858D01*
X44712000Y8167715D01*
X44759619Y8215334D01*
X44664380Y9072477D02*
X44664380Y8882000D01*
X44712000Y8786762D01*
X44759619Y8739143D01*
X44902476Y8643905D01*
X45092952Y8596286D01*
X45473904Y8596286D01*
X45569142Y8643905D01*
X45616761Y8691524D01*
X45664380Y8786762D01*
X45664380Y8977239D01*
X45616761Y9072477D01*
X45569142Y9120096D01*
X45473904Y9167715D01*
X45235809Y9167715D01*
X45140571Y9120096D01*
X45092952Y9072477D01*
X45045333Y8977239D01*
X45045333Y8786762D01*
X45092952Y8691524D01*
X45140571Y8643905D01*
X45235809Y8596286D01*
G04 #@! TO.C,C5*
X13565142Y27011334D02*
X13612761Y26963715D01*
X13660380Y26820858D01*
X13660380Y26725620D01*
X13612761Y26582762D01*
X13517523Y26487524D01*
X13422285Y26439905D01*
X13231809Y26392286D01*
X13088952Y26392286D01*
X12898476Y26439905D01*
X12803238Y26487524D01*
X12708000Y26582762D01*
X12660380Y26725620D01*
X12660380Y26820858D01*
X12708000Y26963715D01*
X12755619Y27011334D01*
X12660380Y27916096D02*
X12660380Y27439905D01*
X13136571Y27392286D01*
X13088952Y27439905D01*
X13041333Y27535143D01*
X13041333Y27773239D01*
X13088952Y27868477D01*
X13136571Y27916096D01*
X13231809Y27963715D01*
X13469904Y27963715D01*
X13565142Y27916096D01*
X13612761Y27868477D01*
X13660380Y27773239D01*
X13660380Y27535143D01*
X13612761Y27439905D01*
X13565142Y27392286D01*
G04 #@! TO.C,R20*
X16454380Y21201143D02*
X15978190Y20867810D01*
X16454380Y20629715D02*
X15454380Y20629715D01*
X15454380Y21010667D01*
X15502000Y21105905D01*
X15549619Y21153524D01*
X15644857Y21201143D01*
X15787714Y21201143D01*
X15882952Y21153524D01*
X15930571Y21105905D01*
X15978190Y21010667D01*
X15978190Y20629715D01*
X15549619Y21582096D02*
X15502000Y21629715D01*
X15454380Y21724953D01*
X15454380Y21963048D01*
X15502000Y22058286D01*
X15549619Y22105905D01*
X15644857Y22153524D01*
X15740095Y22153524D01*
X15882952Y22105905D01*
X16454380Y21534477D01*
X16454380Y22153524D01*
X15454380Y22772572D02*
X15454380Y22867810D01*
X15502000Y22963048D01*
X15549619Y23010667D01*
X15644857Y23058286D01*
X15835333Y23105905D01*
X16073428Y23105905D01*
X16263904Y23058286D01*
X16359142Y23010667D01*
X16406761Y22963048D01*
X16454380Y22867810D01*
X16454380Y22772572D01*
X16406761Y22677334D01*
X16359142Y22629715D01*
X16263904Y22582096D01*
X16073428Y22534477D01*
X15835333Y22534477D01*
X15644857Y22582096D01*
X15549619Y22629715D01*
X15502000Y22677334D01*
X15454380Y22772572D01*
G04 #@! TO.C,R18*
X26027142Y16311620D02*
X25693809Y16787810D01*
X25455714Y16311620D02*
X25455714Y17311620D01*
X25836666Y17311620D01*
X25931904Y17264000D01*
X25979523Y17216381D01*
X26027142Y17121143D01*
X26027142Y16978286D01*
X25979523Y16883048D01*
X25931904Y16835429D01*
X25836666Y16787810D01*
X25455714Y16787810D01*
X26979523Y16311620D02*
X26408095Y16311620D01*
X26693809Y16311620D02*
X26693809Y17311620D01*
X26598571Y17168762D01*
X26503333Y17073524D01*
X26408095Y17025905D01*
X27550952Y16883048D02*
X27455714Y16930667D01*
X27408095Y16978286D01*
X27360476Y17073524D01*
X27360476Y17121143D01*
X27408095Y17216381D01*
X27455714Y17264000D01*
X27550952Y17311620D01*
X27741428Y17311620D01*
X27836666Y17264000D01*
X27884285Y17216381D01*
X27931904Y17121143D01*
X27931904Y17073524D01*
X27884285Y16978286D01*
X27836666Y16930667D01*
X27741428Y16883048D01*
X27550952Y16883048D01*
X27455714Y16835429D01*
X27408095Y16787810D01*
X27360476Y16692572D01*
X27360476Y16502096D01*
X27408095Y16406858D01*
X27455714Y16359239D01*
X27550952Y16311620D01*
X27741428Y16311620D01*
X27836666Y16359239D01*
X27884285Y16406858D01*
X27931904Y16502096D01*
X27931904Y16692572D01*
X27884285Y16787810D01*
X27836666Y16835429D01*
X27741428Y16883048D01*
G04 #@! TO.C,R17*
X36695142Y20121620D02*
X36361809Y20597810D01*
X36123714Y20121620D02*
X36123714Y21121620D01*
X36504666Y21121620D01*
X36599904Y21074000D01*
X36647523Y21026381D01*
X36695142Y20931143D01*
X36695142Y20788286D01*
X36647523Y20693048D01*
X36599904Y20645429D01*
X36504666Y20597810D01*
X36123714Y20597810D01*
X37647523Y20121620D02*
X37076095Y20121620D01*
X37361809Y20121620D02*
X37361809Y21121620D01*
X37266571Y20978762D01*
X37171333Y20883524D01*
X37076095Y20835905D01*
X37980857Y21121620D02*
X38647523Y21121620D01*
X38218952Y20121620D01*
G04 #@! TO.C,R15*
X36441142Y27741620D02*
X36107809Y28217810D01*
X35869714Y27741620D02*
X35869714Y28741620D01*
X36250666Y28741620D01*
X36345904Y28694000D01*
X36393523Y28646381D01*
X36441142Y28551143D01*
X36441142Y28408286D01*
X36393523Y28313048D01*
X36345904Y28265429D01*
X36250666Y28217810D01*
X35869714Y28217810D01*
X37393523Y27741620D02*
X36822095Y27741620D01*
X37107809Y27741620D02*
X37107809Y28741620D01*
X37012571Y28598762D01*
X36917333Y28503524D01*
X36822095Y28455905D01*
X38298285Y28741620D02*
X37822095Y28741620D01*
X37774476Y28265429D01*
X37822095Y28313048D01*
X37917333Y28360667D01*
X38155428Y28360667D01*
X38250666Y28313048D01*
X38298285Y28265429D01*
X38345904Y28170191D01*
X38345904Y27932096D01*
X38298285Y27836858D01*
X38250666Y27789239D01*
X38155428Y27741620D01*
X37917333Y27741620D01*
X37822095Y27789239D01*
X37774476Y27836858D01*
G04 #@! TO.C,R12*
X33980380Y18915143D02*
X33504190Y18581810D01*
X33980380Y18343715D02*
X32980380Y18343715D01*
X32980380Y18724667D01*
X33028000Y18819905D01*
X33075619Y18867524D01*
X33170857Y18915143D01*
X33313714Y18915143D01*
X33408952Y18867524D01*
X33456571Y18819905D01*
X33504190Y18724667D01*
X33504190Y18343715D01*
X33980380Y19867524D02*
X33980380Y19296096D01*
X33980380Y19581810D02*
X32980380Y19581810D01*
X33123238Y19486572D01*
X33218476Y19391334D01*
X33266095Y19296096D01*
X33075619Y20248477D02*
X33028000Y20296096D01*
X32980380Y20391334D01*
X32980380Y20629429D01*
X33028000Y20724667D01*
X33075619Y20772286D01*
X33170857Y20819905D01*
X33266095Y20819905D01*
X33408952Y20772286D01*
X33980380Y20200858D01*
X33980380Y20819905D01*
G04 #@! TO.C,R11*
X26789142Y19359620D02*
X26455809Y19835810D01*
X26217714Y19359620D02*
X26217714Y20359620D01*
X26598666Y20359620D01*
X26693904Y20312000D01*
X26741523Y20264381D01*
X26789142Y20169143D01*
X26789142Y20026286D01*
X26741523Y19931048D01*
X26693904Y19883429D01*
X26598666Y19835810D01*
X26217714Y19835810D01*
X27741523Y19359620D02*
X27170095Y19359620D01*
X27455809Y19359620D02*
X27455809Y20359620D01*
X27360571Y20216762D01*
X27265333Y20121524D01*
X27170095Y20073905D01*
X28693904Y19359620D02*
X28122476Y19359620D01*
X28408190Y19359620D02*
X28408190Y20359620D01*
X28312952Y20216762D01*
X28217714Y20121524D01*
X28122476Y20073905D01*
G04 #@! TO.C,C3*
X25757142Y24638334D02*
X25804761Y24590715D01*
X25852380Y24447858D01*
X25852380Y24352620D01*
X25804761Y24209762D01*
X25709523Y24114524D01*
X25614285Y24066905D01*
X25423809Y24019286D01*
X25280952Y24019286D01*
X25090476Y24066905D01*
X24995238Y24114524D01*
X24900000Y24209762D01*
X24852380Y24352620D01*
X24852380Y24447858D01*
X24900000Y24590715D01*
X24947619Y24638334D01*
X24852380Y24971667D02*
X24852380Y25590715D01*
X25233333Y25257381D01*
X25233333Y25400239D01*
X25280952Y25495477D01*
X25328571Y25543096D01*
X25423809Y25590715D01*
X25661904Y25590715D01*
X25757142Y25543096D01*
X25804761Y25495477D01*
X25852380Y25400239D01*
X25852380Y25114524D01*
X25804761Y25019286D01*
X25757142Y24971667D01*
G04 #@! TO.C,C2*
X23217142Y24471334D02*
X23264761Y24423715D01*
X23312380Y24280858D01*
X23312380Y24185620D01*
X23264761Y24042762D01*
X23169523Y23947524D01*
X23074285Y23899905D01*
X22883809Y23852286D01*
X22740952Y23852286D01*
X22550476Y23899905D01*
X22455238Y23947524D01*
X22360000Y24042762D01*
X22312380Y24185620D01*
X22312380Y24280858D01*
X22360000Y24423715D01*
X22407619Y24471334D01*
X22407619Y24852286D02*
X22360000Y24899905D01*
X22312380Y24995143D01*
X22312380Y25233239D01*
X22360000Y25328477D01*
X22407619Y25376096D01*
X22502857Y25423715D01*
X22598095Y25423715D01*
X22740952Y25376096D01*
X23312380Y24804667D01*
X23312380Y25423715D01*
G04 #@! TO.C,C1*
X20677142Y24598334D02*
X20724761Y24550715D01*
X20772380Y24407858D01*
X20772380Y24312620D01*
X20724761Y24169762D01*
X20629523Y24074524D01*
X20534285Y24026905D01*
X20343809Y23979286D01*
X20200952Y23979286D01*
X20010476Y24026905D01*
X19915238Y24074524D01*
X19820000Y24169762D01*
X19772380Y24312620D01*
X19772380Y24407858D01*
X19820000Y24550715D01*
X19867619Y24598334D01*
X20772380Y25550715D02*
X20772380Y24979286D01*
X20772380Y25265000D02*
X19772380Y25265000D01*
X19915238Y25169762D01*
X20010476Y25074524D01*
X20058095Y24979286D01*
G04 #@! TO.C,R14*
X32456380Y18915143D02*
X31980190Y18581810D01*
X32456380Y18343715D02*
X31456380Y18343715D01*
X31456380Y18724667D01*
X31504000Y18819905D01*
X31551619Y18867524D01*
X31646857Y18915143D01*
X31789714Y18915143D01*
X31884952Y18867524D01*
X31932571Y18819905D01*
X31980190Y18724667D01*
X31980190Y18343715D01*
X32456380Y19867524D02*
X32456380Y19296096D01*
X32456380Y19581810D02*
X31456380Y19581810D01*
X31599238Y19486572D01*
X31694476Y19391334D01*
X31742095Y19296096D01*
X31789714Y20724667D02*
X32456380Y20724667D01*
X31408761Y20486572D02*
X32123047Y20248477D01*
X32123047Y20867524D01*
G04 #@! TO.C,C8*
X45045333Y29360858D02*
X44997714Y29313239D01*
X44854857Y29265620D01*
X44759619Y29265620D01*
X44616761Y29313239D01*
X44521523Y29408477D01*
X44473904Y29503715D01*
X44426285Y29694191D01*
X44426285Y29837048D01*
X44473904Y30027524D01*
X44521523Y30122762D01*
X44616761Y30218000D01*
X44759619Y30265620D01*
X44854857Y30265620D01*
X44997714Y30218000D01*
X45045333Y30170381D01*
X45616761Y29837048D02*
X45521523Y29884667D01*
X45473904Y29932286D01*
X45426285Y30027524D01*
X45426285Y30075143D01*
X45473904Y30170381D01*
X45521523Y30218000D01*
X45616761Y30265620D01*
X45807238Y30265620D01*
X45902476Y30218000D01*
X45950095Y30170381D01*
X45997714Y30075143D01*
X45997714Y30027524D01*
X45950095Y29932286D01*
X45902476Y29884667D01*
X45807238Y29837048D01*
X45616761Y29837048D01*
X45521523Y29789429D01*
X45473904Y29741810D01*
X45426285Y29646572D01*
X45426285Y29456096D01*
X45473904Y29360858D01*
X45521523Y29313239D01*
X45616761Y29265620D01*
X45807238Y29265620D01*
X45902476Y29313239D01*
X45950095Y29360858D01*
X45997714Y29456096D01*
X45997714Y29646572D01*
X45950095Y29741810D01*
X45902476Y29789429D01*
X45807238Y29837048D01*
G04 #@! TO.C,C4*
X28297142Y24471334D02*
X28344761Y24423715D01*
X28392380Y24280858D01*
X28392380Y24185620D01*
X28344761Y24042762D01*
X28249523Y23947524D01*
X28154285Y23899905D01*
X27963809Y23852286D01*
X27820952Y23852286D01*
X27630476Y23899905D01*
X27535238Y23947524D01*
X27440000Y24042762D01*
X27392380Y24185620D01*
X27392380Y24280858D01*
X27440000Y24423715D01*
X27487619Y24471334D01*
X27725714Y25328477D02*
X28392380Y25328477D01*
X27344761Y25090381D02*
X28059047Y24852286D01*
X28059047Y25471334D01*
G04 #@! TO.C,FID3*
X55237142Y6392858D02*
X55037142Y6392858D01*
X55037142Y6078572D02*
X55037142Y6678572D01*
X55322857Y6678572D01*
X55551428Y6078572D02*
X55551428Y6678572D01*
X55837142Y6078572D02*
X55837142Y6678572D01*
X55980000Y6678572D01*
X56065714Y6650000D01*
X56122857Y6592858D01*
X56151428Y6535715D01*
X56180000Y6421429D01*
X56180000Y6335715D01*
X56151428Y6221429D01*
X56122857Y6164286D01*
X56065714Y6107143D01*
X55980000Y6078572D01*
X55837142Y6078572D01*
X56380000Y6678572D02*
X56751428Y6678572D01*
X56551428Y6450000D01*
X56637142Y6450000D01*
X56694285Y6421429D01*
X56722857Y6392858D01*
X56751428Y6335715D01*
X56751428Y6192858D01*
X56722857Y6135715D01*
X56694285Y6107143D01*
X56637142Y6078572D01*
X56465714Y6078572D01*
X56408571Y6107143D01*
X56380000Y6135715D01*
G04 #@! TO.C,FID1*
X7485142Y34078858D02*
X7285142Y34078858D01*
X7285142Y33764572D02*
X7285142Y34364572D01*
X7570857Y34364572D01*
X7799428Y33764572D02*
X7799428Y34364572D01*
X8085142Y33764572D02*
X8085142Y34364572D01*
X8228000Y34364572D01*
X8313714Y34336000D01*
X8370857Y34278858D01*
X8399428Y34221715D01*
X8428000Y34107429D01*
X8428000Y34021715D01*
X8399428Y33907429D01*
X8370857Y33850286D01*
X8313714Y33793143D01*
X8228000Y33764572D01*
X8085142Y33764572D01*
X8999428Y33764572D02*
X8656571Y33764572D01*
X8828000Y33764572D02*
X8828000Y34364572D01*
X8770857Y34278858D01*
X8713714Y34221715D01*
X8656571Y34193143D01*
G04 #@! TO.C,J5*
X42846666Y7532620D02*
X42846666Y6818334D01*
X42799047Y6675477D01*
X42703809Y6580239D01*
X42560952Y6532620D01*
X42465714Y6532620D01*
X43799047Y7532620D02*
X43322857Y7532620D01*
X43275238Y7056429D01*
X43322857Y7104048D01*
X43418095Y7151667D01*
X43656190Y7151667D01*
X43751428Y7104048D01*
X43799047Y7056429D01*
X43846666Y6961191D01*
X43846666Y6723096D01*
X43799047Y6627858D01*
X43751428Y6580239D01*
X43656190Y6532620D01*
X43418095Y6532620D01*
X43322857Y6580239D01*
X43275238Y6627858D01*
G04 #@! TO.C,J4*
X45386666Y34075620D02*
X45386666Y33361334D01*
X45339047Y33218477D01*
X45243809Y33123239D01*
X45100952Y33075620D01*
X45005714Y33075620D01*
X46291428Y33742286D02*
X46291428Y33075620D01*
X46053333Y34123239D02*
X45815238Y33408953D01*
X46434285Y33408953D01*
G04 #@! TD*
M02*
