G04 #@! TF.GenerationSoftware,KiCad,Pcbnew,(5.1.10)-1*
G04 #@! TF.CreationDate,2021-08-26T20:40:18+02:00*
G04 #@! TF.ProjectId,JuntekOnSteroidsTTGO,4a756e74-656b-44f6-9e53-7465726f6964,2.5*
G04 #@! TF.SameCoordinates,PX5b716c8PY5b716c8*
G04 #@! TF.FileFunction,Copper,L2,Bot*
G04 #@! TF.FilePolarity,Positive*
%FSLAX46Y46*%
G04 Gerber Fmt 4.6, Leading zero omitted, Abs format (unit mm)*
G04 Created by KiCad (PCBNEW (5.1.10)-1) date 2021-08-26 20:40:18*
%MOMM*%
%LPD*%
G01*
G04 APERTURE LIST*
G04 #@! TA.AperFunction,ComponentPad*
%ADD10O,1.700000X1.700000*%
G04 #@! TD*
G04 #@! TA.AperFunction,ComponentPad*
%ADD11R,1.700000X1.700000*%
G04 #@! TD*
G04 #@! TA.AperFunction,ComponentPad*
%ADD12O,1.750000X1.200000*%
G04 #@! TD*
G04 #@! TA.AperFunction,ComponentPad*
%ADD13O,1.400000X1.400000*%
G04 #@! TD*
G04 #@! TA.AperFunction,ComponentPad*
%ADD14C,1.400000*%
G04 #@! TD*
G04 #@! TA.AperFunction,SMDPad,CuDef*
%ADD15R,1.500000X1.000000*%
G04 #@! TD*
G04 #@! TA.AperFunction,SMDPad,CuDef*
%ADD16C,0.100000*%
G04 #@! TD*
G04 #@! TA.AperFunction,ComponentPad*
%ADD17C,1.600000*%
G04 #@! TD*
G04 #@! TA.AperFunction,ComponentPad*
%ADD18R,1.600000X1.600000*%
G04 #@! TD*
G04 #@! TA.AperFunction,ViaPad*
%ADD19C,0.800000*%
G04 #@! TD*
G04 #@! TA.AperFunction,Conductor*
%ADD20C,0.570000*%
G04 #@! TD*
G04 #@! TA.AperFunction,Conductor*
%ADD21C,0.220000*%
G04 #@! TD*
G04 #@! TA.AperFunction,Conductor*
%ADD22C,0.550000*%
G04 #@! TD*
G04 #@! TA.AperFunction,Conductor*
%ADD23C,0.254000*%
G04 #@! TD*
G04 #@! TA.AperFunction,Conductor*
%ADD24C,0.100000*%
G04 #@! TD*
G04 APERTURE END LIST*
D10*
G04 #@! TO.P,J61,3*
G04 #@! TO.N,/J6.3*
X10795000Y33020000D03*
G04 #@! TO.P,J61,2*
G04 #@! TO.N,/J6.2*
X10795000Y30480000D03*
D11*
G04 #@! TO.P,J61,1*
G04 #@! TO.N,/J6.1*
X10795000Y27940000D03*
G04 #@! TD*
D10*
G04 #@! TO.P,J12,3*
G04 #@! TO.N,/J1.8*
X5080000Y10795000D03*
G04 #@! TO.P,J12,2*
G04 #@! TO.N,/J1.7*
X5080000Y13335000D03*
D11*
G04 #@! TO.P,J12,1*
G04 #@! TO.N,/J1.6*
X5080000Y15875000D03*
G04 #@! TD*
D10*
G04 #@! TO.P,J22,2*
G04 #@! TO.N,Net-(J22-Pad2)*
X10795000Y12700000D03*
D11*
G04 #@! TO.P,J22,1*
G04 #@! TO.N,Net-(J22-Pad1)*
X10795000Y10160000D03*
G04 #@! TD*
D10*
G04 #@! TO.P,J21,8*
G04 #@! TO.N,Net-(J21-Pad8)*
X10795000Y22860000D03*
G04 #@! TO.P,J21,7*
G04 #@! TO.N,Net-(J21-Pad7)*
X13335000Y22860000D03*
G04 #@! TO.P,J21,6*
G04 #@! TO.N,/ADC2*
X10795000Y20320000D03*
G04 #@! TO.P,J21,5*
G04 #@! TO.N,Net-(J21-Pad5)*
X13335000Y20320000D03*
G04 #@! TO.P,J21,4*
G04 #@! TO.N,/ADC1*
X10795000Y17780000D03*
G04 #@! TO.P,J21,3*
G04 #@! TO.N,/A1*
X13335000Y17780000D03*
G04 #@! TO.P,J21,2*
G04 #@! TO.N,/ADC0*
X10795000Y15240000D03*
D11*
G04 #@! TO.P,J21,1*
G04 #@! TO.N,/A0*
X13335000Y15240000D03*
G04 #@! TD*
D10*
G04 #@! TO.P,J11,3*
G04 #@! TO.N,/J1.3*
X5080000Y19050000D03*
G04 #@! TO.P,J11,2*
G04 #@! TO.N,/J1.2*
X5080000Y21590000D03*
D11*
G04 #@! TO.P,J11,1*
G04 #@! TO.N,/J1.1*
X5080000Y24130000D03*
G04 #@! TD*
D12*
G04 #@! TO.P,J7,4*
G04 #@! TO.N,GND*
X52070000Y9240000D03*
G04 #@! TO.P,J7,3*
G04 #@! TO.N,/+3V3*
X52070000Y11240000D03*
G04 #@! TO.P,J7,2*
G04 #@! TO.N,/SDA*
X52070000Y13240000D03*
G04 #@! TO.P,J7,1*
G04 #@! TO.N,/SCL*
G04 #@! TA.AperFunction,ComponentPad*
G36*
G01*
X51444999Y15840000D02*
X52695001Y15840000D01*
G75*
G02*
X52945000Y15590001I0J-249999D01*
G01*
X52945000Y14889999D01*
G75*
G02*
X52695001Y14640000I-249999J0D01*
G01*
X51444999Y14640000D01*
G75*
G02*
X51195000Y14889999I0J249999D01*
G01*
X51195000Y15590001D01*
G75*
G02*
X51444999Y15840000I249999J0D01*
G01*
G37*
G04 #@! TD.AperFunction*
G04 #@! TD*
D10*
G04 #@! TO.P,J10,10*
G04 #@! TO.N,/A3*
X40640000Y13335000D03*
G04 #@! TO.P,J10,9*
G04 #@! TO.N,/A2*
X38100000Y13335000D03*
G04 #@! TO.P,J10,8*
G04 #@! TO.N,/A1*
X35560000Y13335000D03*
G04 #@! TO.P,J10,7*
G04 #@! TO.N,/A0*
X33020000Y13335000D03*
G04 #@! TO.P,J10,6*
G04 #@! TO.N,N/C*
X30480000Y13335000D03*
G04 #@! TO.P,J10,5*
X27940000Y13335000D03*
G04 #@! TO.P,J10,4*
G04 #@! TO.N,/SDA*
X25400000Y13335000D03*
G04 #@! TO.P,J10,3*
G04 #@! TO.N,/SCL*
X22860000Y13335000D03*
G04 #@! TO.P,J10,2*
G04 #@! TO.N,GND*
X20320000Y13335000D03*
D11*
G04 #@! TO.P,J10,1*
G04 #@! TO.N,/+3V3*
X17780000Y13335000D03*
G04 #@! TD*
D13*
G04 #@! TO.P,R13,2*
G04 #@! TO.N,/A2*
X39370000Y20955000D03*
D14*
G04 #@! TO.P,R13,1*
G04 #@! TO.N,Net-(J21-Pad5)*
X31750000Y20955000D03*
G04 #@! TD*
D15*
G04 #@! TO.P,JP1,2*
G04 #@! TO.N,GND*
X53340000Y22860000D03*
G04 #@! TA.AperFunction,SMDPad,CuDef*
D16*
G04 #@! TO.P,JP1,3*
G04 #@! TO.N,GNDD*
G36*
X54089398Y21560000D02*
G01*
X54089398Y21535466D01*
X54084588Y21486635D01*
X54075016Y21438510D01*
X54060772Y21391555D01*
X54041995Y21346222D01*
X54018864Y21302949D01*
X53991604Y21262150D01*
X53960476Y21224221D01*
X53925779Y21189524D01*
X53887850Y21158396D01*
X53847051Y21131136D01*
X53803778Y21108005D01*
X53758445Y21089228D01*
X53711490Y21074984D01*
X53663365Y21065412D01*
X53614534Y21060602D01*
X53590000Y21060602D01*
X53590000Y21060000D01*
X53090000Y21060000D01*
X53090000Y21060602D01*
X53065466Y21060602D01*
X53016635Y21065412D01*
X52968510Y21074984D01*
X52921555Y21089228D01*
X52876222Y21108005D01*
X52832949Y21131136D01*
X52792150Y21158396D01*
X52754221Y21189524D01*
X52719524Y21224221D01*
X52688396Y21262150D01*
X52661136Y21302949D01*
X52638005Y21346222D01*
X52619228Y21391555D01*
X52604984Y21438510D01*
X52595412Y21486635D01*
X52590602Y21535466D01*
X52590602Y21560000D01*
X52590000Y21560000D01*
X52590000Y22110000D01*
X54090000Y22110000D01*
X54090000Y21560000D01*
X54089398Y21560000D01*
G37*
G04 #@! TD.AperFunction*
G04 #@! TA.AperFunction,SMDPad,CuDef*
G04 #@! TO.P,JP1,1*
G04 #@! TO.N,GNDA*
G36*
X52590000Y23610000D02*
G01*
X52590000Y24160000D01*
X52590602Y24160000D01*
X52590602Y24184534D01*
X52595412Y24233365D01*
X52604984Y24281490D01*
X52619228Y24328445D01*
X52638005Y24373778D01*
X52661136Y24417051D01*
X52688396Y24457850D01*
X52719524Y24495779D01*
X52754221Y24530476D01*
X52792150Y24561604D01*
X52832949Y24588864D01*
X52876222Y24611995D01*
X52921555Y24630772D01*
X52968510Y24645016D01*
X53016635Y24654588D01*
X53065466Y24659398D01*
X53090000Y24659398D01*
X53090000Y24660000D01*
X53590000Y24660000D01*
X53590000Y24659398D01*
X53614534Y24659398D01*
X53663365Y24654588D01*
X53711490Y24645016D01*
X53758445Y24630772D01*
X53803778Y24611995D01*
X53847051Y24588864D01*
X53887850Y24561604D01*
X53925779Y24530476D01*
X53960476Y24495779D01*
X53991604Y24457850D01*
X54018864Y24417051D01*
X54041995Y24373778D01*
X54060772Y24328445D01*
X54075016Y24281490D01*
X54084588Y24233365D01*
X54089398Y24184534D01*
X54089398Y24160000D01*
X54090000Y24160000D01*
X54090000Y23610000D01*
X52590000Y23610000D01*
G37*
G04 #@! TD.AperFunction*
G04 #@! TD*
D17*
G04 #@! TO.P,C6,2*
G04 #@! TO.N,/+3V3*
X46990000Y10755000D03*
G04 #@! TO.P,C6,1*
G04 #@! TO.N,GND*
X46990000Y8255000D03*
G04 #@! TD*
G04 #@! TO.P,C5,2*
G04 #@! TO.N,/+3V3*
X13375000Y34925000D03*
G04 #@! TO.P,C5,1*
G04 #@! TO.N,GND*
X15875000Y34925000D03*
G04 #@! TD*
D10*
G04 #@! TO.P,J30,21*
G04 #@! TO.N,GND*
X55880000Y5080000D03*
G04 #@! TO.P,J30,20*
G04 #@! TO.N,N/C*
X53340000Y5080000D03*
G04 #@! TO.P,J30,19*
X50800000Y5080000D03*
G04 #@! TO.P,J30,18*
X48260000Y5080000D03*
G04 #@! TO.P,J30,17*
X45720000Y5080000D03*
G04 #@! TO.P,J30,16*
X43180000Y5080000D03*
G04 #@! TO.P,J30,15*
G04 #@! TO.N,VCC*
X40640000Y5080000D03*
G04 #@! TO.P,J30,14*
G04 #@! TO.N,/+3V3*
X38100000Y5080000D03*
G04 #@! TO.P,J30,13*
G04 #@! TO.N,GND*
X35560000Y5080000D03*
G04 #@! TO.P,J30,12*
G04 #@! TO.N,/GPIO33*
X33020000Y5080000D03*
G04 #@! TO.P,J30,11*
G04 #@! TO.N,/GPIO27*
X30480000Y5080000D03*
G04 #@! TO.P,J30,10*
G04 #@! TO.N,/GPIO26*
X27940000Y5080000D03*
G04 #@! TO.P,J30,9*
G04 #@! TO.N,/GPIO25*
X25400000Y5080000D03*
G04 #@! TO.P,J30,8*
G04 #@! TO.N,/GPIO12*
X22860000Y5080000D03*
G04 #@! TO.P,J30,7*
G04 #@! TO.N,/FanPWM*
X20320000Y5080000D03*
G04 #@! TO.P,J30,6*
G04 #@! TO.N,/GPIO13*
X17780000Y5080000D03*
G04 #@! TO.P,J30,5*
G04 #@! TO.N,/GPIO17*
X15240000Y5080000D03*
G04 #@! TO.P,J30,4*
G04 #@! TO.N,/SCL*
X12700000Y5080000D03*
G04 #@! TO.P,J30,3*
G04 #@! TO.N,/SDA*
X10160000Y5080000D03*
G04 #@! TO.P,J30,2*
G04 #@! TO.N,/+3V3*
X7620000Y5080000D03*
D11*
G04 #@! TO.P,J30,1*
G04 #@! TO.N,GND*
X5080000Y5080000D03*
G04 #@! TD*
D13*
G04 #@! TO.P,R20,2*
G04 #@! TO.N,GND*
X26670000Y28575000D03*
D14*
G04 #@! TO.P,R20,1*
G04 #@! TO.N,/J6.1*
X19050000Y28575000D03*
G04 #@! TD*
D13*
G04 #@! TO.P,R18,2*
G04 #@! TO.N,/FanPWM*
X26670000Y17145000D03*
D14*
G04 #@! TO.P,R18,1*
G04 #@! TO.N,Net-(J22-Pad1)*
X19050000Y17145000D03*
G04 #@! TD*
D13*
G04 #@! TO.P,R17,2*
G04 #@! TO.N,/A3*
X39370000Y17145000D03*
D14*
G04 #@! TO.P,R17,1*
G04 #@! TO.N,Net-(J21-Pad7)*
X31750000Y17145000D03*
G04 #@! TD*
D13*
G04 #@! TO.P,R16,2*
G04 #@! TO.N,/GPIO12*
X19050000Y20955000D03*
D14*
G04 #@! TO.P,R16,1*
G04 #@! TO.N,Net-(J22-Pad2)*
X26670000Y20955000D03*
G04 #@! TD*
D13*
G04 #@! TO.P,R15,2*
G04 #@! TO.N,GND*
X43180000Y28575000D03*
D14*
G04 #@! TO.P,R15,1*
G04 #@! TO.N,Net-(J22-Pad2)*
X43180000Y20955000D03*
G04 #@! TD*
D13*
G04 #@! TO.P,R12,2*
G04 #@! TO.N,/J1.4*
X31750000Y28575000D03*
D14*
G04 #@! TO.P,R12,1*
G04 #@! TO.N,/GPIO15*
X39370000Y28575000D03*
G04 #@! TD*
D13*
G04 #@! TO.P,R11,2*
G04 #@! TO.N,/J1.5*
X31750000Y24765000D03*
D14*
G04 #@! TO.P,R11,1*
G04 #@! TO.N,/GPIO13*
X39370000Y24765000D03*
G04 #@! TD*
D17*
G04 #@! TO.P,C3,2*
G04 #@! TO.N,GND*
X36790000Y34925000D03*
G04 #@! TO.P,C3,1*
G04 #@! TO.N,/ADC2*
X34290000Y34925000D03*
G04 #@! TD*
G04 #@! TO.P,C2,2*
G04 #@! TO.N,GND*
X27305000Y34925000D03*
G04 #@! TO.P,C2,1*
G04 #@! TO.N,/ADC1*
X29805000Y34925000D03*
G04 #@! TD*
G04 #@! TO.P,C1,2*
G04 #@! TO.N,GND*
X22820000Y34925000D03*
G04 #@! TO.P,C1,1*
G04 #@! TO.N,/ADC0*
X20320000Y34925000D03*
G04 #@! TD*
D13*
G04 #@! TO.P,R14,2*
G04 #@! TO.N,Net-(J21-Pad8)*
X19050000Y24765000D03*
D14*
G04 #@! TO.P,R14,1*
G04 #@! TO.N,/ADC3*
X26670000Y24765000D03*
G04 #@! TD*
D10*
G04 #@! TO.P,J6,3*
G04 #@! TO.N,/J6.3*
X5080000Y29210000D03*
G04 #@! TO.P,J6,2*
G04 #@! TO.N,/J6.2*
X5080000Y31750000D03*
D11*
G04 #@! TO.P,J6,1*
G04 #@! TO.N,/J6.1*
X5080000Y34290000D03*
G04 #@! TD*
D17*
G04 #@! TO.P,C8,2*
G04 #@! TO.N,GND*
X44450000Y14010000D03*
G04 #@! TO.P,C8,1*
G04 #@! TO.N,VCC*
X44450000Y16510000D03*
G04 #@! TD*
G04 #@! TO.P,C4,2*
G04 #@! TO.N,GND*
X41315000Y34925000D03*
G04 #@! TO.P,C4,1*
G04 #@! TO.N,/ADC3*
X43815000Y34925000D03*
G04 #@! TD*
G04 #@! TO.P,C7,2*
G04 #@! TO.N,GND*
X51125000Y19685000D03*
D18*
G04 #@! TO.P,C7,1*
G04 #@! TO.N,VCC*
X47625000Y19685000D03*
G04 #@! TD*
D10*
G04 #@! TO.P,J5,12*
G04 #@! TO.N,GND*
X15240000Y9525000D03*
G04 #@! TO.P,J5,11*
X17780000Y9525000D03*
G04 #@! TO.P,J5,10*
G04 #@! TO.N,/SDA*
X20320000Y9525000D03*
G04 #@! TO.P,J5,9*
G04 #@! TO.N,/SCL*
X22860000Y9525000D03*
G04 #@! TO.P,J5,8*
G04 #@! TO.N,/GPIO17*
X25400000Y9525000D03*
G04 #@! TO.P,J5,7*
G04 #@! TO.N,/FanPWM*
X27940000Y9525000D03*
G04 #@! TO.P,J5,6*
G04 #@! TO.N,/GPIO15*
X30480000Y9525000D03*
G04 #@! TO.P,J5,5*
G04 #@! TO.N,/GPIO13*
X33020000Y9525000D03*
G04 #@! TO.P,J5,4*
G04 #@! TO.N,/GPIO12*
X35560000Y9525000D03*
G04 #@! TO.P,J5,3*
G04 #@! TO.N,GND*
X38100000Y9525000D03*
G04 #@! TO.P,J5,2*
X40640000Y9525000D03*
D11*
G04 #@! TO.P,J5,1*
G04 #@! TO.N,/+3V3*
X43180000Y9525000D03*
G04 #@! TD*
D10*
G04 #@! TO.P,J4,12*
G04 #@! TO.N,/+3V3*
X15240000Y32385000D03*
G04 #@! TO.P,J4,11*
G04 #@! TO.N,/ADC0*
X17780000Y32385000D03*
G04 #@! TO.P,J4,10*
G04 #@! TO.N,/ADC1*
X20320000Y32385000D03*
G04 #@! TO.P,J4,9*
G04 #@! TO.N,/ADC2*
X22860000Y32385000D03*
G04 #@! TO.P,J4,8*
G04 #@! TO.N,/ADC3*
X25400000Y32385000D03*
G04 #@! TO.P,J4,7*
G04 #@! TO.N,/GPIO32*
X27940000Y32385000D03*
G04 #@! TO.P,J4,6*
G04 #@! TO.N,/GPIO33*
X30480000Y32385000D03*
G04 #@! TO.P,J4,5*
G04 #@! TO.N,/GPIO25*
X33020000Y32385000D03*
G04 #@! TO.P,J4,4*
G04 #@! TO.N,/GPIO26*
X35560000Y32385000D03*
G04 #@! TO.P,J4,3*
G04 #@! TO.N,/GPIO27*
X38100000Y32385000D03*
G04 #@! TO.P,J4,2*
G04 #@! TO.N,GND*
X40640000Y32385000D03*
D11*
G04 #@! TO.P,J4,1*
G04 #@! TO.N,VCC*
X43180000Y32385000D03*
G04 #@! TD*
D10*
G04 #@! TO.P,J2,8*
G04 #@! TO.N,/GPIO32*
X55880000Y12700000D03*
G04 #@! TO.P,J2,7*
G04 #@! TO.N,/GPIO17*
X55880000Y15240000D03*
G04 #@! TO.P,J2,6*
G04 #@! TO.N,VCC*
X55880000Y17780000D03*
G04 #@! TO.P,J2,5*
X55880000Y20320000D03*
G04 #@! TO.P,J2,4*
G04 #@! TO.N,GNDD*
X55880000Y22860000D03*
G04 #@! TO.P,J2,3*
X55880000Y25400000D03*
G04 #@! TO.P,J2,2*
G04 #@! TO.N,GNDA*
X55880000Y27940000D03*
D11*
G04 #@! TO.P,J2,1*
X55880000Y30480000D03*
G04 #@! TD*
D10*
G04 #@! TO.P,J1,8*
G04 #@! TO.N,/J1.8*
X7620000Y12700000D03*
G04 #@! TO.P,J1,7*
G04 #@! TO.N,/J1.7*
X7620000Y15240000D03*
G04 #@! TO.P,J1,6*
G04 #@! TO.N,/J1.6*
X7620000Y17780000D03*
G04 #@! TO.P,J1,5*
G04 #@! TO.N,/J1.5*
X7620000Y20320000D03*
G04 #@! TO.P,J1,4*
G04 #@! TO.N,/J1.4*
X7620000Y22860000D03*
G04 #@! TO.P,J1,3*
G04 #@! TO.N,/J1.3*
X7620000Y25400000D03*
G04 #@! TO.P,J1,2*
G04 #@! TO.N,/J1.2*
X7620000Y27940000D03*
D11*
G04 #@! TO.P,J1,1*
G04 #@! TO.N,/J1.1*
X7620000Y30480000D03*
G04 #@! TD*
D19*
G04 #@! TO.N,/GPIO13*
X33660000Y22860000D03*
G04 #@! TO.N,/GPIO32*
X47602389Y30457389D03*
G04 #@! TO.N,/A2*
X37460000Y19685000D03*
G04 #@! TO.N,/GPIO15*
X33020000Y26035000D03*
G04 #@! TD*
D20*
G04 #@! TO.N,VCC*
X55880000Y20320000D02*
X55880000Y17780000D01*
X49530000Y17780000D02*
X55880000Y17780000D01*
X47625000Y19685000D02*
X49530000Y17780000D01*
X47625000Y19685000D02*
X44450000Y16510000D01*
X46990000Y19050000D02*
X47625000Y19685000D01*
X57145001Y16514999D02*
X55880000Y17780000D01*
X57145001Y12092799D02*
X57145001Y16514999D01*
X52037202Y6985000D02*
X57145001Y12092799D01*
X41910000Y6985000D02*
X52037202Y6985000D01*
X41910000Y6350000D02*
X41910000Y6985000D01*
X40640000Y5080000D02*
X41910000Y6350000D01*
G04 #@! TO.N,GNDD*
X54580000Y21560000D02*
X55880000Y22860000D01*
X53340000Y21560000D02*
X54580000Y21560000D01*
X55880000Y22860000D02*
X55880000Y25400000D01*
G04 #@! TO.N,GNDA*
X53340000Y25400000D02*
X55880000Y27940000D01*
X53340000Y24160000D02*
X53340000Y25400000D01*
X55880000Y27940000D02*
X55880000Y30480000D01*
D21*
G04 #@! TO.N,/SDA*
X22336799Y14425001D02*
X21590000Y13678202D01*
X24309999Y14425001D02*
X22336799Y14425001D01*
X25400000Y13335000D02*
X24309999Y14425001D01*
X21590000Y10795000D02*
X20320000Y9525000D01*
X21590000Y13678202D02*
X21590000Y10795000D01*
X13514999Y8434999D02*
X10160000Y5080000D01*
X19229999Y8434999D02*
X13514999Y8434999D01*
X20320000Y9525000D02*
X19229999Y8434999D01*
X26490001Y12244999D02*
X25400000Y13335000D01*
X52070000Y13240000D02*
X45900002Y13240000D01*
X45900002Y13240000D02*
X44905001Y12244999D01*
X44905001Y12244999D02*
X26490001Y12244999D01*
G04 #@! TO.N,/SCL*
X22860000Y9525000D02*
X22860000Y13335000D01*
X12700000Y5080000D02*
X15704989Y8084989D01*
X21419989Y8084989D02*
X22860000Y9525000D01*
X15704989Y8084989D02*
X21419989Y8084989D01*
X24300011Y11894989D02*
X22860000Y13335000D01*
X45255011Y11894989D02*
X24300011Y11894989D01*
X45760012Y12399990D02*
X45255011Y11894989D01*
X52692943Y12399990D02*
X45760012Y12399990D01*
X53185010Y12892057D02*
X52692943Y12399990D01*
X53185010Y14124990D02*
X53185010Y12892057D01*
X52070000Y15240000D02*
X53185010Y14124990D01*
G04 #@! TO.N,/GPIO13*
X17780000Y5080000D02*
X20084969Y7384969D01*
X29389999Y9001799D02*
X29956799Y8434999D01*
X29389999Y9688203D02*
X29389999Y9001799D01*
X27416799Y10615001D02*
X28463201Y10615001D01*
X26849999Y10048201D02*
X27416799Y10615001D01*
X29956799Y8434999D02*
X31929999Y8434999D01*
X26849999Y9361797D02*
X26849999Y10048201D01*
X31929999Y8434999D02*
X33020000Y9525000D01*
X24873171Y7384969D02*
X26849999Y9361797D01*
X28463201Y10615001D02*
X29389999Y9688203D01*
X20084969Y7384969D02*
X24873171Y7384969D01*
X37465000Y22860000D02*
X39370000Y24765000D01*
X33660000Y22860000D02*
X37465000Y22860000D01*
G04 #@! TO.N,/ADC0*
X9004979Y17030021D02*
X10795000Y15240000D01*
X9004979Y23673157D02*
X9004979Y17030021D01*
X13906822Y28575000D02*
X9004979Y23673157D01*
X20320000Y34925000D02*
X17780000Y32385000D01*
X17716822Y32385000D02*
X9004979Y23673157D01*
X17780000Y32385000D02*
X17716822Y32385000D01*
G04 #@! TO.N,/ADC1*
X20320000Y32385000D02*
X21819999Y33884999D01*
X9354989Y19220011D02*
X10795000Y17780000D01*
X9354989Y23528179D02*
X9354989Y19220011D01*
X18536202Y26670000D02*
X12496810Y26670000D01*
X20320000Y28453798D02*
X18536202Y26670000D01*
X12496810Y26670000D02*
X9354989Y23528179D01*
X20320000Y32385000D02*
X20320000Y28453798D01*
X28804999Y33924999D02*
X28804999Y33884999D01*
X29805000Y34925000D02*
X28804999Y33924999D01*
X21819999Y33884999D02*
X28804999Y33884999D01*
G04 #@! TO.N,/ADC2*
X22860000Y32385000D02*
X24009989Y33534989D01*
X9704999Y21410001D02*
X10795000Y20320000D01*
X9704999Y23383201D02*
X9704999Y21410001D01*
X22860000Y32385000D02*
X22860000Y29845000D01*
X12356798Y26035000D02*
X9704999Y23383201D01*
X22860000Y29845000D02*
X19050000Y26035000D01*
X19050000Y26035000D02*
X12356798Y26035000D01*
X34290000Y34925000D02*
X32899989Y33534989D01*
X24009989Y33534989D02*
X32899989Y33534989D01*
G04 #@! TO.N,/ADC3*
X25400000Y32385000D02*
X25400000Y26035000D01*
X25400000Y26035000D02*
X26035000Y25400000D01*
X26035000Y25400000D02*
X26670000Y24765000D01*
G04 #@! TO.N,/GPIO32*
X29867611Y30457389D02*
X47602389Y30457389D01*
X27940000Y32385000D02*
X29867611Y30457389D01*
G04 #@! TO.N,/GPIO17*
X23609979Y7734979D02*
X25400000Y9525000D01*
X17894979Y7734979D02*
X23609979Y7734979D01*
X15240000Y5080000D02*
X17894979Y7734979D01*
X44820021Y10965011D02*
X26840011Y10965011D01*
X45904990Y12049980D02*
X44820021Y10965011D01*
X26840011Y10965011D02*
X25400000Y9525000D01*
X49797067Y12049980D02*
X45904990Y12049980D01*
X52692943Y10399990D02*
X51447057Y10399990D01*
X51447057Y10399990D02*
X49797067Y12049980D01*
X53185010Y10892057D02*
X52692943Y10399990D01*
X55880000Y14282933D02*
X53185010Y11587943D01*
X53185010Y11587943D02*
X53185010Y10892057D01*
X55880000Y15240000D02*
X55880000Y14282933D01*
G04 #@! TO.N,/A2*
X38100000Y19685000D02*
X39370000Y20955000D01*
X37460000Y19685000D02*
X38100000Y19685000D01*
G04 #@! TO.N,/A1*
X13990011Y18435011D02*
X13335000Y17780000D01*
X27266179Y18435011D02*
X13990011Y18435011D01*
X27286190Y18415000D02*
X27266179Y18435011D01*
X27305000Y18415000D02*
X27286190Y18415000D01*
X30944989Y14775011D02*
X27305000Y18415000D01*
X34119989Y14775011D02*
X30944989Y14775011D01*
X35560000Y13335000D02*
X34119989Y14775011D01*
G04 #@! TO.N,/A0*
X15557500Y17462500D02*
X13335000Y15240000D01*
X16180001Y18085001D02*
X15557500Y17462500D01*
X30781201Y14425001D02*
X27121201Y18085001D01*
X31929999Y14425001D02*
X30781201Y14425001D01*
X27121201Y18085001D02*
X16180001Y18085001D01*
X33020000Y13335000D02*
X31929999Y14425001D01*
G04 #@! TO.N,/J1.8*
X6985000Y12700000D02*
X7620000Y12700000D01*
X5080000Y10795000D02*
X6985000Y12700000D01*
G04 #@! TO.N,/J1.3*
X6529999Y20499999D02*
X6529999Y24309999D01*
X5080000Y19050000D02*
X6529999Y20499999D01*
X6529999Y24309999D02*
X7620000Y25400000D01*
G04 #@! TO.N,/J1.2*
X6170001Y22680001D02*
X6170001Y26490001D01*
X5080000Y21590000D02*
X6170001Y22680001D01*
X6170001Y26490001D02*
X7620000Y27940000D01*
G04 #@! TO.N,/J1.6*
X5715000Y15875000D02*
X7620000Y17780000D01*
X5080000Y15875000D02*
X5715000Y15875000D01*
D20*
G04 #@! TO.N,/+3V3*
X3814999Y32357201D02*
X3814999Y8885001D01*
X3814999Y8885001D02*
X7620000Y5080000D01*
X4472799Y33015001D02*
X3814999Y32357201D01*
X6252003Y33015001D02*
X4472799Y33015001D01*
X8162002Y34925000D02*
X6252003Y33015001D01*
X8162002Y34925000D02*
X13375000Y34925000D01*
X13375000Y34250000D02*
X15240000Y32385000D01*
X13375000Y34925000D02*
X13375000Y34250000D01*
X16417002Y13335000D02*
X17780000Y13335000D01*
X8162002Y5080000D02*
X16417002Y13335000D01*
X7620000Y5080000D02*
X8162002Y5080000D01*
D21*
G04 #@! TO.N,/GPIO12*
X22860000Y5080000D02*
X24464951Y6684951D01*
X24464951Y6684951D02*
X25734951Y6684951D01*
X25734951Y6684951D02*
X27134989Y8084989D01*
X34119989Y8084989D02*
X35560000Y9525000D01*
X27134989Y8084989D02*
X34119989Y8084989D01*
G04 #@! TO.N,/J1.1*
X7620000Y29553202D02*
X7620000Y30480000D01*
X5080000Y27013202D02*
X7620000Y29553202D01*
X5080000Y24130000D02*
X5080000Y27013202D01*
G04 #@! TO.N,/J1.7*
X6985000Y15240000D02*
X7620000Y15240000D01*
X5080000Y13335000D02*
X6985000Y15240000D01*
G04 #@! TO.N,/FanPWM*
X22274961Y7034961D02*
X25449961Y7034961D01*
X25449961Y7034961D02*
X27940000Y9525000D01*
X20320000Y5080000D02*
X22274961Y7034961D01*
G04 #@! TO.N,Net-(J21-Pad7)*
X12991798Y19050000D02*
X27940000Y19050000D01*
X29845000Y17145000D02*
X31750000Y17145000D01*
X13335000Y22860000D02*
X12244999Y21769999D01*
X12244999Y19796799D02*
X12991798Y19050000D01*
X12244999Y21769999D02*
X12244999Y19796799D01*
X27940000Y19050000D02*
X29845000Y17145000D01*
G04 #@! TO.N,Net-(J21-Pad5)*
X14184999Y19470001D02*
X13335000Y20320000D01*
X27090001Y19470001D02*
X28575000Y20955000D01*
X27090001Y19470001D02*
X14184999Y19470001D01*
X28575000Y20955000D02*
X30480000Y20955000D01*
X31750000Y20955000D02*
X30480000Y20955000D01*
G04 #@! TO.N,Net-(J21-Pad8)*
X12700000Y24765000D02*
X19050000Y24765000D01*
X10795000Y22860000D02*
X12700000Y24765000D01*
G04 #@! TO.N,Net-(J22-Pad2)*
X42239999Y21895001D02*
X43180000Y20955000D01*
X27610001Y21895001D02*
X42239999Y21895001D01*
X26670000Y20955000D02*
X27610001Y21895001D01*
G04 #@! TO.N,Net-(J22-Pad1)*
X17780000Y17145000D02*
X10795000Y10160000D01*
X19050000Y17145000D02*
X17780000Y17145000D01*
D22*
G04 #@! TO.N,GND*
X51125000Y21965000D02*
X51125000Y19685000D01*
X52020000Y22860000D02*
X51125000Y21965000D01*
X53340000Y22860000D02*
X52020000Y22860000D01*
X15240000Y9525000D02*
X17780000Y9525000D01*
X17780000Y10795000D02*
X20320000Y13335000D01*
X17780000Y9525000D02*
X17780000Y10795000D01*
X38100000Y9525000D02*
X40640000Y9525000D01*
X41910000Y8255000D02*
X46990000Y8255000D01*
X40640000Y9525000D02*
X41910000Y8255000D01*
X5080000Y5080000D02*
X6345001Y3814999D01*
X43180000Y26924798D02*
X43180000Y28575000D01*
X48422500Y22387500D02*
X45557500Y22387500D01*
X45557500Y22387500D02*
X44450000Y23495000D01*
X48422500Y22387500D02*
X51125000Y19685000D01*
X43180000Y24765000D02*
X45557500Y22387500D01*
X43180000Y28575000D02*
X43180000Y24765000D01*
X40640000Y34250000D02*
X41315000Y34925000D01*
X40640000Y32385000D02*
X40640000Y34250000D01*
X35560000Y5080000D02*
X35560000Y6985000D01*
X30484999Y3814999D02*
X31087201Y3814999D01*
X6345001Y3814999D02*
X30484999Y3814999D01*
X35560000Y6985000D02*
X38100000Y9525000D01*
X41910000Y29845000D02*
X43180000Y28575000D01*
X28575000Y29845000D02*
X41910000Y29845000D01*
X27305000Y28575000D02*
X28575000Y29845000D01*
X26670000Y28575000D02*
X27305000Y28575000D01*
X34294999Y3814999D02*
X35560000Y5080000D01*
X31087201Y3814999D02*
X34294999Y3814999D01*
D21*
G04 #@! TO.N,/GPIO15*
X36830000Y26035000D02*
X39370000Y28575000D01*
X33020000Y26035000D02*
X36830000Y26035000D01*
G04 #@! TD*
D23*
G04 #@! TO.N,GND*
X6673368Y3926525D02*
X6810345Y3835000D01*
X6427295Y3835000D01*
X6460537Y3875506D01*
X6519502Y3985820D01*
X6541513Y4058380D01*
X6673368Y3926525D01*
G04 #@! TA.AperFunction,Conductor*
D24*
G36*
X6673368Y3926525D02*
G01*
X6810345Y3835000D01*
X6427295Y3835000D01*
X6460537Y3875506D01*
X6519502Y3985820D01*
X6541513Y4058380D01*
X6673368Y3926525D01*
G37*
G04 #@! TD.AperFunction*
D23*
X5207000Y5207000D02*
X5227000Y5207000D01*
X5227000Y4953000D01*
X5207000Y4953000D01*
X5207000Y4933000D01*
X4953000Y4933000D01*
X4953000Y4953000D01*
X4933000Y4953000D01*
X4933000Y5207000D01*
X4953000Y5207000D01*
X4953000Y5227000D01*
X5207000Y5227000D01*
X5207000Y5207000D01*
G04 #@! TA.AperFunction,Conductor*
D24*
G36*
X5207000Y5207000D02*
G01*
X5227000Y5207000D01*
X5227000Y4953000D01*
X5207000Y4953000D01*
X5207000Y4933000D01*
X4953000Y4933000D01*
X4953000Y4953000D01*
X4933000Y4953000D01*
X4933000Y5207000D01*
X4953000Y5207000D01*
X4953000Y5227000D01*
X5207000Y5227000D01*
X5207000Y5207000D01*
G37*
G04 #@! TD.AperFunction*
D23*
X50807252Y9986206D02*
X50697579Y9820533D01*
X50605409Y9595282D01*
X50601538Y9557609D01*
X50726269Y9367000D01*
X51943000Y9367000D01*
X51943000Y9387000D01*
X52197000Y9387000D01*
X52197000Y9367000D01*
X52217000Y9367000D01*
X52217000Y9113000D01*
X52197000Y9113000D01*
X52197000Y9093000D01*
X51943000Y9093000D01*
X51943000Y9113000D01*
X50726269Y9113000D01*
X50601538Y8922391D01*
X50605409Y8884718D01*
X50697579Y8659467D01*
X50831922Y8456526D01*
X51003275Y8283693D01*
X51205054Y8147610D01*
X51429504Y8053507D01*
X51668000Y8005000D01*
X51756127Y8005000D01*
X51656127Y7905000D01*
X48381662Y7905000D01*
X48416300Y8043184D01*
X48430217Y8325512D01*
X48388787Y8605130D01*
X48293603Y8871292D01*
X48226671Y8996514D01*
X47982702Y9068097D01*
X47169605Y8255000D01*
X47183748Y8240857D01*
X47004143Y8061252D01*
X46990000Y8075395D01*
X46975858Y8061252D01*
X46796253Y8240857D01*
X46810395Y8255000D01*
X45997298Y9068097D01*
X45753329Y8996514D01*
X45632429Y8741004D01*
X45563700Y8466816D01*
X45549783Y8184488D01*
X45591194Y7905000D01*
X41955192Y7905000D01*
X41910000Y7909451D01*
X41864808Y7905000D01*
X41729649Y7891688D01*
X41556228Y7839081D01*
X41396403Y7753653D01*
X41256314Y7638686D01*
X41141347Y7498597D01*
X41055919Y7338772D01*
X41003312Y7165351D01*
X40985549Y6985000D01*
X40990000Y6939808D01*
X40990000Y6731076D01*
X40817675Y6558751D01*
X40786260Y6565000D01*
X40493740Y6565000D01*
X40206842Y6507932D01*
X39936589Y6395990D01*
X39693368Y6233475D01*
X39486525Y6026632D01*
X39370000Y5852240D01*
X39253475Y6026632D01*
X39046632Y6233475D01*
X38803411Y6395990D01*
X38533158Y6507932D01*
X38246260Y6565000D01*
X37953740Y6565000D01*
X37666842Y6507932D01*
X37396589Y6395990D01*
X37153368Y6233475D01*
X36946525Y6026632D01*
X36824805Y5844466D01*
X36755178Y5961355D01*
X36560269Y6177588D01*
X36326920Y6351641D01*
X36064099Y6476825D01*
X35916890Y6521476D01*
X35687000Y6400155D01*
X35687000Y5207000D01*
X35707000Y5207000D01*
X35707000Y4953000D01*
X35687000Y4953000D01*
X35687000Y4933000D01*
X35433000Y4933000D01*
X35433000Y4953000D01*
X35413000Y4953000D01*
X35413000Y5207000D01*
X35433000Y5207000D01*
X35433000Y6400155D01*
X35203110Y6521476D01*
X35055901Y6476825D01*
X34793080Y6351641D01*
X34559731Y6177588D01*
X34364822Y5961355D01*
X34295195Y5844466D01*
X34173475Y6026632D01*
X33966632Y6233475D01*
X33723411Y6395990D01*
X33453158Y6507932D01*
X33166260Y6565000D01*
X32873740Y6565000D01*
X32586842Y6507932D01*
X32316589Y6395990D01*
X32073368Y6233475D01*
X31866525Y6026632D01*
X31750000Y5852240D01*
X31633475Y6026632D01*
X31426632Y6233475D01*
X31183411Y6395990D01*
X30913158Y6507932D01*
X30626260Y6565000D01*
X30333740Y6565000D01*
X30046842Y6507932D01*
X29776589Y6395990D01*
X29533368Y6233475D01*
X29326525Y6026632D01*
X29210000Y5852240D01*
X29093475Y6026632D01*
X28886632Y6233475D01*
X28643411Y6395990D01*
X28373158Y6507932D01*
X28086260Y6565000D01*
X27793740Y6565000D01*
X27506842Y6507932D01*
X27236589Y6395990D01*
X26993368Y6233475D01*
X26786525Y6026632D01*
X26670000Y5852240D01*
X26553475Y6026632D01*
X26346632Y6233475D01*
X26340896Y6237307D01*
X27443578Y7339989D01*
X34083399Y7339989D01*
X34119989Y7336385D01*
X34156579Y7339989D01*
X34156581Y7339989D01*
X34266034Y7350769D01*
X34406467Y7393369D01*
X34535891Y7462548D01*
X34649332Y7555646D01*
X34672658Y7584069D01*
X35175899Y8087310D01*
X35413740Y8040000D01*
X35706260Y8040000D01*
X35993158Y8097068D01*
X36263411Y8209010D01*
X36506632Y8371525D01*
X36713475Y8578368D01*
X36835195Y8760534D01*
X36904822Y8643645D01*
X37099731Y8427412D01*
X37333080Y8253359D01*
X37595901Y8128175D01*
X37743110Y8083524D01*
X37973000Y8204845D01*
X37973000Y9398000D01*
X38227000Y9398000D01*
X38227000Y8204845D01*
X38456890Y8083524D01*
X38604099Y8128175D01*
X38866920Y8253359D01*
X39100269Y8427412D01*
X39295178Y8643645D01*
X39370000Y8769255D01*
X39444822Y8643645D01*
X39639731Y8427412D01*
X39873080Y8253359D01*
X40135901Y8128175D01*
X40283110Y8083524D01*
X40513000Y8204845D01*
X40513000Y9398000D01*
X38227000Y9398000D01*
X37973000Y9398000D01*
X37953000Y9398000D01*
X37953000Y9652000D01*
X37973000Y9652000D01*
X37973000Y9672000D01*
X38227000Y9672000D01*
X38227000Y9652000D01*
X40513000Y9652000D01*
X40513000Y9672000D01*
X40767000Y9672000D01*
X40767000Y9652000D01*
X40787000Y9652000D01*
X40787000Y9398000D01*
X40767000Y9398000D01*
X40767000Y8204845D01*
X40996890Y8083524D01*
X41144099Y8128175D01*
X41406920Y8253359D01*
X41640269Y8427412D01*
X41716034Y8511466D01*
X41740498Y8430820D01*
X41799463Y8320506D01*
X41878815Y8223815D01*
X41975506Y8144463D01*
X42085820Y8085498D01*
X42205518Y8049188D01*
X42330000Y8036928D01*
X44030000Y8036928D01*
X44154482Y8049188D01*
X44274180Y8085498D01*
X44384494Y8144463D01*
X44481185Y8223815D01*
X44560537Y8320506D01*
X44619502Y8430820D01*
X44655812Y8550518D01*
X44668072Y8675000D01*
X44668072Y10220011D01*
X44783431Y10220011D01*
X44820021Y10216407D01*
X44856611Y10220011D01*
X44856613Y10220011D01*
X44966066Y10230791D01*
X45106499Y10273391D01*
X45235923Y10342570D01*
X45349364Y10435668D01*
X45372690Y10464091D01*
X45555000Y10646401D01*
X45555000Y10613665D01*
X45610147Y10336426D01*
X45718320Y10075273D01*
X45875363Y9840241D01*
X46075241Y9640363D01*
X46275869Y9506308D01*
X46248486Y9491671D01*
X46176903Y9247702D01*
X46990000Y8434605D01*
X47803097Y9247702D01*
X47731514Y9491671D01*
X47702659Y9505324D01*
X47904759Y9640363D01*
X48104637Y9840241D01*
X48261680Y10075273D01*
X48369853Y10336426D01*
X48425000Y10613665D01*
X48425000Y10896335D01*
X48369853Y11173574D01*
X48315423Y11304980D01*
X49488478Y11304980D01*
X50807252Y9986206D01*
G04 #@! TA.AperFunction,Conductor*
D24*
G36*
X50807252Y9986206D02*
G01*
X50697579Y9820533D01*
X50605409Y9595282D01*
X50601538Y9557609D01*
X50726269Y9367000D01*
X51943000Y9367000D01*
X51943000Y9387000D01*
X52197000Y9387000D01*
X52197000Y9367000D01*
X52217000Y9367000D01*
X52217000Y9113000D01*
X52197000Y9113000D01*
X52197000Y9093000D01*
X51943000Y9093000D01*
X51943000Y9113000D01*
X50726269Y9113000D01*
X50601538Y8922391D01*
X50605409Y8884718D01*
X50697579Y8659467D01*
X50831922Y8456526D01*
X51003275Y8283693D01*
X51205054Y8147610D01*
X51429504Y8053507D01*
X51668000Y8005000D01*
X51756127Y8005000D01*
X51656127Y7905000D01*
X48381662Y7905000D01*
X48416300Y8043184D01*
X48430217Y8325512D01*
X48388787Y8605130D01*
X48293603Y8871292D01*
X48226671Y8996514D01*
X47982702Y9068097D01*
X47169605Y8255000D01*
X47183748Y8240857D01*
X47004143Y8061252D01*
X46990000Y8075395D01*
X46975858Y8061252D01*
X46796253Y8240857D01*
X46810395Y8255000D01*
X45997298Y9068097D01*
X45753329Y8996514D01*
X45632429Y8741004D01*
X45563700Y8466816D01*
X45549783Y8184488D01*
X45591194Y7905000D01*
X41955192Y7905000D01*
X41910000Y7909451D01*
X41864808Y7905000D01*
X41729649Y7891688D01*
X41556228Y7839081D01*
X41396403Y7753653D01*
X41256314Y7638686D01*
X41141347Y7498597D01*
X41055919Y7338772D01*
X41003312Y7165351D01*
X40985549Y6985000D01*
X40990000Y6939808D01*
X40990000Y6731076D01*
X40817675Y6558751D01*
X40786260Y6565000D01*
X40493740Y6565000D01*
X40206842Y6507932D01*
X39936589Y6395990D01*
X39693368Y6233475D01*
X39486525Y6026632D01*
X39370000Y5852240D01*
X39253475Y6026632D01*
X39046632Y6233475D01*
X38803411Y6395990D01*
X38533158Y6507932D01*
X38246260Y6565000D01*
X37953740Y6565000D01*
X37666842Y6507932D01*
X37396589Y6395990D01*
X37153368Y6233475D01*
X36946525Y6026632D01*
X36824805Y5844466D01*
X36755178Y5961355D01*
X36560269Y6177588D01*
X36326920Y6351641D01*
X36064099Y6476825D01*
X35916890Y6521476D01*
X35687000Y6400155D01*
X35687000Y5207000D01*
X35707000Y5207000D01*
X35707000Y4953000D01*
X35687000Y4953000D01*
X35687000Y4933000D01*
X35433000Y4933000D01*
X35433000Y4953000D01*
X35413000Y4953000D01*
X35413000Y5207000D01*
X35433000Y5207000D01*
X35433000Y6400155D01*
X35203110Y6521476D01*
X35055901Y6476825D01*
X34793080Y6351641D01*
X34559731Y6177588D01*
X34364822Y5961355D01*
X34295195Y5844466D01*
X34173475Y6026632D01*
X33966632Y6233475D01*
X33723411Y6395990D01*
X33453158Y6507932D01*
X33166260Y6565000D01*
X32873740Y6565000D01*
X32586842Y6507932D01*
X32316589Y6395990D01*
X32073368Y6233475D01*
X31866525Y6026632D01*
X31750000Y5852240D01*
X31633475Y6026632D01*
X31426632Y6233475D01*
X31183411Y6395990D01*
X30913158Y6507932D01*
X30626260Y6565000D01*
X30333740Y6565000D01*
X30046842Y6507932D01*
X29776589Y6395990D01*
X29533368Y6233475D01*
X29326525Y6026632D01*
X29210000Y5852240D01*
X29093475Y6026632D01*
X28886632Y6233475D01*
X28643411Y6395990D01*
X28373158Y6507932D01*
X28086260Y6565000D01*
X27793740Y6565000D01*
X27506842Y6507932D01*
X27236589Y6395990D01*
X26993368Y6233475D01*
X26786525Y6026632D01*
X26670000Y5852240D01*
X26553475Y6026632D01*
X26346632Y6233475D01*
X26340896Y6237307D01*
X27443578Y7339989D01*
X34083399Y7339989D01*
X34119989Y7336385D01*
X34156579Y7339989D01*
X34156581Y7339989D01*
X34266034Y7350769D01*
X34406467Y7393369D01*
X34535891Y7462548D01*
X34649332Y7555646D01*
X34672658Y7584069D01*
X35175899Y8087310D01*
X35413740Y8040000D01*
X35706260Y8040000D01*
X35993158Y8097068D01*
X36263411Y8209010D01*
X36506632Y8371525D01*
X36713475Y8578368D01*
X36835195Y8760534D01*
X36904822Y8643645D01*
X37099731Y8427412D01*
X37333080Y8253359D01*
X37595901Y8128175D01*
X37743110Y8083524D01*
X37973000Y8204845D01*
X37973000Y9398000D01*
X38227000Y9398000D01*
X38227000Y8204845D01*
X38456890Y8083524D01*
X38604099Y8128175D01*
X38866920Y8253359D01*
X39100269Y8427412D01*
X39295178Y8643645D01*
X39370000Y8769255D01*
X39444822Y8643645D01*
X39639731Y8427412D01*
X39873080Y8253359D01*
X40135901Y8128175D01*
X40283110Y8083524D01*
X40513000Y8204845D01*
X40513000Y9398000D01*
X38227000Y9398000D01*
X37973000Y9398000D01*
X37953000Y9398000D01*
X37953000Y9652000D01*
X37973000Y9652000D01*
X37973000Y9672000D01*
X38227000Y9672000D01*
X38227000Y9652000D01*
X40513000Y9652000D01*
X40513000Y9672000D01*
X40767000Y9672000D01*
X40767000Y9652000D01*
X40787000Y9652000D01*
X40787000Y9398000D01*
X40767000Y9398000D01*
X40767000Y8204845D01*
X40996890Y8083524D01*
X41144099Y8128175D01*
X41406920Y8253359D01*
X41640269Y8427412D01*
X41716034Y8511466D01*
X41740498Y8430820D01*
X41799463Y8320506D01*
X41878815Y8223815D01*
X41975506Y8144463D01*
X42085820Y8085498D01*
X42205518Y8049188D01*
X42330000Y8036928D01*
X44030000Y8036928D01*
X44154482Y8049188D01*
X44274180Y8085498D01*
X44384494Y8144463D01*
X44481185Y8223815D01*
X44560537Y8320506D01*
X44619502Y8430820D01*
X44655812Y8550518D01*
X44668072Y8675000D01*
X44668072Y10220011D01*
X44783431Y10220011D01*
X44820021Y10216407D01*
X44856611Y10220011D01*
X44856613Y10220011D01*
X44966066Y10230791D01*
X45106499Y10273391D01*
X45235923Y10342570D01*
X45349364Y10435668D01*
X45372690Y10464091D01*
X45555000Y10646401D01*
X45555000Y10613665D01*
X45610147Y10336426D01*
X45718320Y10075273D01*
X45875363Y9840241D01*
X46075241Y9640363D01*
X46275869Y9506308D01*
X46248486Y9491671D01*
X46176903Y9247702D01*
X46990000Y8434605D01*
X47803097Y9247702D01*
X47731514Y9491671D01*
X47702659Y9505324D01*
X47904759Y9640363D01*
X48104637Y9840241D01*
X48261680Y10075273D01*
X48369853Y10336426D01*
X48425000Y10613665D01*
X48425000Y10896335D01*
X48369853Y11173574D01*
X48315423Y11304980D01*
X49488478Y11304980D01*
X50807252Y9986206D01*
G37*
G04 #@! TD.AperFunction*
D23*
X57125000Y5877715D02*
X57075178Y5961355D01*
X56880269Y6177588D01*
X56646920Y6351641D01*
X56384099Y6476825D01*
X56236890Y6521476D01*
X56007000Y6400155D01*
X56007000Y5207000D01*
X56027000Y5207000D01*
X56027000Y4953000D01*
X56007000Y4953000D01*
X56007000Y4933000D01*
X55753000Y4933000D01*
X55753000Y4953000D01*
X55733000Y4953000D01*
X55733000Y5207000D01*
X55753000Y5207000D01*
X55753000Y6400155D01*
X55523110Y6521476D01*
X55375901Y6476825D01*
X55113080Y6351641D01*
X54879731Y6177588D01*
X54684822Y5961355D01*
X54615195Y5844466D01*
X54493475Y6026632D01*
X54286632Y6233475D01*
X54043411Y6395990D01*
X53773158Y6507932D01*
X53486260Y6565000D01*
X53193740Y6565000D01*
X52906842Y6507932D01*
X52828942Y6475665D01*
X57125000Y10771721D01*
X57125000Y5877715D01*
G04 #@! TA.AperFunction,Conductor*
D24*
G36*
X57125000Y5877715D02*
G01*
X57075178Y5961355D01*
X56880269Y6177588D01*
X56646920Y6351641D01*
X56384099Y6476825D01*
X56236890Y6521476D01*
X56007000Y6400155D01*
X56007000Y5207000D01*
X56027000Y5207000D01*
X56027000Y4953000D01*
X56007000Y4953000D01*
X56007000Y4933000D01*
X55753000Y4933000D01*
X55753000Y4953000D01*
X55733000Y4953000D01*
X55733000Y5207000D01*
X55753000Y5207000D01*
X55753000Y6400155D01*
X55523110Y6521476D01*
X55375901Y6476825D01*
X55113080Y6351641D01*
X54879731Y6177588D01*
X54684822Y5961355D01*
X54615195Y5844466D01*
X54493475Y6026632D01*
X54286632Y6233475D01*
X54043411Y6395990D01*
X53773158Y6507932D01*
X53486260Y6565000D01*
X53193740Y6565000D01*
X52906842Y6507932D01*
X52828942Y6475665D01*
X57125000Y10771721D01*
X57125000Y5877715D01*
G37*
G04 #@! TD.AperFunction*
D23*
X25335000Y17276486D02*
X25335000Y17013514D01*
X25386304Y16755595D01*
X25486939Y16512641D01*
X25633038Y16293987D01*
X25818987Y16108038D01*
X26037641Y15961939D01*
X26280595Y15861304D01*
X26538514Y15810000D01*
X26801486Y15810000D01*
X27059405Y15861304D01*
X27302359Y15961939D01*
X27521013Y16108038D01*
X27706962Y16293987D01*
X27767710Y16384903D01*
X29611759Y14540854D01*
X29533368Y14488475D01*
X29326525Y14281632D01*
X29210000Y14107240D01*
X29093475Y14281632D01*
X28886632Y14488475D01*
X28643411Y14650990D01*
X28373158Y14762932D01*
X28086260Y14820000D01*
X27793740Y14820000D01*
X27506842Y14762932D01*
X27236589Y14650990D01*
X26993368Y14488475D01*
X26786525Y14281632D01*
X26670000Y14107240D01*
X26553475Y14281632D01*
X26346632Y14488475D01*
X26103411Y14650990D01*
X25833158Y14762932D01*
X25546260Y14820000D01*
X25253740Y14820000D01*
X25015899Y14772690D01*
X24862668Y14925921D01*
X24839342Y14954344D01*
X24725901Y15047442D01*
X24596477Y15116621D01*
X24456044Y15159221D01*
X24346591Y15170001D01*
X24346589Y15170001D01*
X24309999Y15173605D01*
X24273409Y15170001D01*
X22373380Y15170001D01*
X22336798Y15173604D01*
X22300216Y15170001D01*
X22300207Y15170001D01*
X22190754Y15159221D01*
X22050321Y15116621D01*
X22007514Y15093740D01*
X21920896Y15047442D01*
X21901515Y15031536D01*
X21807456Y14954344D01*
X21784130Y14925921D01*
X21303388Y14445179D01*
X21086920Y14606641D01*
X20824099Y14731825D01*
X20676890Y14776476D01*
X20447000Y14655155D01*
X20447000Y13462000D01*
X20467000Y13462000D01*
X20467000Y13208000D01*
X20447000Y13208000D01*
X20447000Y12014845D01*
X20676890Y11893524D01*
X20824099Y11938175D01*
X20845001Y11948131D01*
X20845001Y11103590D01*
X20704101Y10962690D01*
X20466260Y11010000D01*
X20173740Y11010000D01*
X19886842Y10952932D01*
X19616589Y10840990D01*
X19373368Y10678475D01*
X19166525Y10471632D01*
X19044805Y10289466D01*
X18975178Y10406355D01*
X18780269Y10622588D01*
X18546920Y10796641D01*
X18284099Y10921825D01*
X18136890Y10966476D01*
X17907000Y10845155D01*
X17907000Y9652000D01*
X17927000Y9652000D01*
X17927000Y9398000D01*
X17907000Y9398000D01*
X17907000Y9378000D01*
X17653000Y9378000D01*
X17653000Y9398000D01*
X15367000Y9398000D01*
X15367000Y9378000D01*
X15113000Y9378000D01*
X15113000Y9398000D01*
X15093000Y9398000D01*
X15093000Y9652000D01*
X15113000Y9652000D01*
X15113000Y9672000D01*
X15367000Y9672000D01*
X15367000Y9652000D01*
X17653000Y9652000D01*
X17653000Y10845155D01*
X17423110Y10966476D01*
X17275901Y10921825D01*
X17013080Y10796641D01*
X16779731Y10622588D01*
X16584822Y10406355D01*
X16510000Y10280745D01*
X16435178Y10406355D01*
X16240269Y10622588D01*
X16006920Y10796641D01*
X15744099Y10921825D01*
X15596890Y10966476D01*
X15367002Y10845156D01*
X15367002Y10983924D01*
X16450903Y12067825D01*
X16478815Y12033815D01*
X16575506Y11954463D01*
X16685820Y11895498D01*
X16805518Y11859188D01*
X16930000Y11846928D01*
X18630000Y11846928D01*
X18754482Y11859188D01*
X18874180Y11895498D01*
X18984494Y11954463D01*
X19081185Y12033815D01*
X19160537Y12130506D01*
X19219502Y12240820D01*
X19243966Y12321466D01*
X19319731Y12237412D01*
X19553080Y12063359D01*
X19815901Y11938175D01*
X19963110Y11893524D01*
X20193000Y12014845D01*
X20193000Y13208000D01*
X20173000Y13208000D01*
X20173000Y13462000D01*
X20193000Y13462000D01*
X20193000Y14655155D01*
X19963110Y14776476D01*
X19815901Y14731825D01*
X19553080Y14606641D01*
X19319731Y14432588D01*
X19243966Y14348534D01*
X19219502Y14429180D01*
X19160537Y14539494D01*
X19081185Y14636185D01*
X18984494Y14715537D01*
X18874180Y14774502D01*
X18754482Y14810812D01*
X18630000Y14823072D01*
X16930000Y14823072D01*
X16805518Y14810812D01*
X16685820Y14774502D01*
X16575506Y14715537D01*
X16478815Y14636185D01*
X16399463Y14539494D01*
X16340498Y14429180D01*
X16304188Y14309482D01*
X16298107Y14247741D01*
X16236651Y14241688D01*
X16063230Y14189081D01*
X15903405Y14103653D01*
X15763316Y13988686D01*
X15734503Y13953577D01*
X12283072Y10502146D01*
X12283072Y10594483D01*
X18000837Y16312248D01*
X18013038Y16293987D01*
X18198987Y16108038D01*
X18417641Y15961939D01*
X18660595Y15861304D01*
X18918514Y15810000D01*
X19181486Y15810000D01*
X19439405Y15861304D01*
X19682359Y15961939D01*
X19901013Y16108038D01*
X20086962Y16293987D01*
X20233061Y16512641D01*
X20333696Y16755595D01*
X20385000Y17013514D01*
X20385000Y17276486D01*
X20372366Y17340001D01*
X25347634Y17340001D01*
X25335000Y17276486D01*
G04 #@! TA.AperFunction,Conductor*
D24*
G36*
X25335000Y17276486D02*
G01*
X25335000Y17013514D01*
X25386304Y16755595D01*
X25486939Y16512641D01*
X25633038Y16293987D01*
X25818987Y16108038D01*
X26037641Y15961939D01*
X26280595Y15861304D01*
X26538514Y15810000D01*
X26801486Y15810000D01*
X27059405Y15861304D01*
X27302359Y15961939D01*
X27521013Y16108038D01*
X27706962Y16293987D01*
X27767710Y16384903D01*
X29611759Y14540854D01*
X29533368Y14488475D01*
X29326525Y14281632D01*
X29210000Y14107240D01*
X29093475Y14281632D01*
X28886632Y14488475D01*
X28643411Y14650990D01*
X28373158Y14762932D01*
X28086260Y14820000D01*
X27793740Y14820000D01*
X27506842Y14762932D01*
X27236589Y14650990D01*
X26993368Y14488475D01*
X26786525Y14281632D01*
X26670000Y14107240D01*
X26553475Y14281632D01*
X26346632Y14488475D01*
X26103411Y14650990D01*
X25833158Y14762932D01*
X25546260Y14820000D01*
X25253740Y14820000D01*
X25015899Y14772690D01*
X24862668Y14925921D01*
X24839342Y14954344D01*
X24725901Y15047442D01*
X24596477Y15116621D01*
X24456044Y15159221D01*
X24346591Y15170001D01*
X24346589Y15170001D01*
X24309999Y15173605D01*
X24273409Y15170001D01*
X22373380Y15170001D01*
X22336798Y15173604D01*
X22300216Y15170001D01*
X22300207Y15170001D01*
X22190754Y15159221D01*
X22050321Y15116621D01*
X22007514Y15093740D01*
X21920896Y15047442D01*
X21901515Y15031536D01*
X21807456Y14954344D01*
X21784130Y14925921D01*
X21303388Y14445179D01*
X21086920Y14606641D01*
X20824099Y14731825D01*
X20676890Y14776476D01*
X20447000Y14655155D01*
X20447000Y13462000D01*
X20467000Y13462000D01*
X20467000Y13208000D01*
X20447000Y13208000D01*
X20447000Y12014845D01*
X20676890Y11893524D01*
X20824099Y11938175D01*
X20845001Y11948131D01*
X20845001Y11103590D01*
X20704101Y10962690D01*
X20466260Y11010000D01*
X20173740Y11010000D01*
X19886842Y10952932D01*
X19616589Y10840990D01*
X19373368Y10678475D01*
X19166525Y10471632D01*
X19044805Y10289466D01*
X18975178Y10406355D01*
X18780269Y10622588D01*
X18546920Y10796641D01*
X18284099Y10921825D01*
X18136890Y10966476D01*
X17907000Y10845155D01*
X17907000Y9652000D01*
X17927000Y9652000D01*
X17927000Y9398000D01*
X17907000Y9398000D01*
X17907000Y9378000D01*
X17653000Y9378000D01*
X17653000Y9398000D01*
X15367000Y9398000D01*
X15367000Y9378000D01*
X15113000Y9378000D01*
X15113000Y9398000D01*
X15093000Y9398000D01*
X15093000Y9652000D01*
X15113000Y9652000D01*
X15113000Y9672000D01*
X15367000Y9672000D01*
X15367000Y9652000D01*
X17653000Y9652000D01*
X17653000Y10845155D01*
X17423110Y10966476D01*
X17275901Y10921825D01*
X17013080Y10796641D01*
X16779731Y10622588D01*
X16584822Y10406355D01*
X16510000Y10280745D01*
X16435178Y10406355D01*
X16240269Y10622588D01*
X16006920Y10796641D01*
X15744099Y10921825D01*
X15596890Y10966476D01*
X15367002Y10845156D01*
X15367002Y10983924D01*
X16450903Y12067825D01*
X16478815Y12033815D01*
X16575506Y11954463D01*
X16685820Y11895498D01*
X16805518Y11859188D01*
X16930000Y11846928D01*
X18630000Y11846928D01*
X18754482Y11859188D01*
X18874180Y11895498D01*
X18984494Y11954463D01*
X19081185Y12033815D01*
X19160537Y12130506D01*
X19219502Y12240820D01*
X19243966Y12321466D01*
X19319731Y12237412D01*
X19553080Y12063359D01*
X19815901Y11938175D01*
X19963110Y11893524D01*
X20193000Y12014845D01*
X20193000Y13208000D01*
X20173000Y13208000D01*
X20173000Y13462000D01*
X20193000Y13462000D01*
X20193000Y14655155D01*
X19963110Y14776476D01*
X19815901Y14731825D01*
X19553080Y14606641D01*
X19319731Y14432588D01*
X19243966Y14348534D01*
X19219502Y14429180D01*
X19160537Y14539494D01*
X19081185Y14636185D01*
X18984494Y14715537D01*
X18874180Y14774502D01*
X18754482Y14810812D01*
X18630000Y14823072D01*
X16930000Y14823072D01*
X16805518Y14810812D01*
X16685820Y14774502D01*
X16575506Y14715537D01*
X16478815Y14636185D01*
X16399463Y14539494D01*
X16340498Y14429180D01*
X16304188Y14309482D01*
X16298107Y14247741D01*
X16236651Y14241688D01*
X16063230Y14189081D01*
X15903405Y14103653D01*
X15763316Y13988686D01*
X15734503Y13953577D01*
X12283072Y10502146D01*
X12283072Y10594483D01*
X18000837Y16312248D01*
X18013038Y16293987D01*
X18198987Y16108038D01*
X18417641Y15961939D01*
X18660595Y15861304D01*
X18918514Y15810000D01*
X19181486Y15810000D01*
X19439405Y15861304D01*
X19682359Y15961939D01*
X19901013Y16108038D01*
X20086962Y16293987D01*
X20233061Y16512641D01*
X20333696Y16755595D01*
X20385000Y17013514D01*
X20385000Y17276486D01*
X20372366Y17340001D01*
X25347634Y17340001D01*
X25335000Y17276486D01*
G37*
G04 #@! TD.AperFunction*
D23*
X52822869Y35520278D02*
X52936246Y35486047D01*
X53040819Y35430445D01*
X53132596Y35355593D01*
X53208091Y35264336D01*
X53264419Y35160156D01*
X53299440Y35047024D01*
X53317855Y34871812D01*
X53317747Y34856318D01*
X53318646Y34847147D01*
X53344554Y34600643D01*
X53356589Y34542014D01*
X53367792Y34483284D01*
X53370456Y34474462D01*
X53443751Y34237686D01*
X53466931Y34182543D01*
X53489339Y34127080D01*
X53493665Y34118946D01*
X53493667Y34118941D01*
X53493670Y34118936D01*
X53611553Y33900914D01*
X53644988Y33851346D01*
X53677759Y33801265D01*
X53683584Y33794124D01*
X53841577Y33603144D01*
X53884012Y33561005D01*
X53925875Y33518255D01*
X53932976Y33512382D01*
X54125053Y33355727D01*
X54174875Y33322626D01*
X54224237Y33288827D01*
X54232343Y33284444D01*
X54451191Y33168081D01*
X54506479Y33145293D01*
X54561475Y33121721D01*
X54570278Y33118997D01*
X54807559Y33047357D01*
X54866246Y33035736D01*
X54924752Y33023300D01*
X54933915Y33022337D01*
X54933917Y33022337D01*
X55180595Y32998150D01*
X55180598Y32998150D01*
X55212581Y32995000D01*
X56482721Y32995000D01*
X56632869Y32980278D01*
X56746246Y32946047D01*
X56850819Y32890445D01*
X56942596Y32815593D01*
X57018091Y32724336D01*
X57074419Y32620156D01*
X57109440Y32507024D01*
X57125001Y32358969D01*
X57125001Y31827294D01*
X57084494Y31860537D01*
X56974180Y31919502D01*
X56854482Y31955812D01*
X56730000Y31968072D01*
X55030000Y31968072D01*
X54905518Y31955812D01*
X54785820Y31919502D01*
X54675506Y31860537D01*
X54578815Y31781185D01*
X54499463Y31684494D01*
X54440498Y31574180D01*
X54404188Y31454482D01*
X54391928Y31330000D01*
X54391928Y29630000D01*
X54404188Y29505518D01*
X54440498Y29385820D01*
X54499463Y29275506D01*
X54578815Y29178815D01*
X54675506Y29099463D01*
X54785820Y29040498D01*
X54858380Y29018487D01*
X54726525Y28886632D01*
X54564010Y28643411D01*
X54452068Y28373158D01*
X54395000Y28086260D01*
X54395000Y27793740D01*
X54401249Y27762325D01*
X52721424Y26082499D01*
X52686315Y26053686D01*
X52580706Y25925000D01*
X52571348Y25913597D01*
X52485919Y25753771D01*
X52433313Y25580351D01*
X52415549Y25400000D01*
X52420001Y25354801D01*
X52420001Y25078172D01*
X52418309Y25077042D01*
X52321618Y24997690D01*
X52252310Y24928382D01*
X52172958Y24831691D01*
X52118502Y24750192D01*
X52059536Y24639875D01*
X52022027Y24549319D01*
X51985718Y24429623D01*
X51966596Y24333490D01*
X51954336Y24209009D01*
X51954336Y24184450D01*
X51951928Y24160000D01*
X51951928Y23610000D01*
X51964188Y23485518D01*
X51964345Y23485000D01*
X51964188Y23484482D01*
X51951928Y23360000D01*
X51955000Y23145750D01*
X52113750Y22987000D01*
X52456248Y22987000D01*
X52465518Y22984188D01*
X52590000Y22971928D01*
X53487000Y22971928D01*
X53487000Y22748072D01*
X52590000Y22748072D01*
X52465518Y22735812D01*
X52456248Y22733000D01*
X52113750Y22733000D01*
X51955000Y22574250D01*
X51951928Y22360000D01*
X51964188Y22235518D01*
X51964345Y22235000D01*
X51964188Y22234482D01*
X51951928Y22110000D01*
X51951928Y21560000D01*
X51954336Y21535550D01*
X51954336Y21510991D01*
X51966596Y21386510D01*
X51985718Y21290377D01*
X52022027Y21170681D01*
X52059536Y21080125D01*
X52118502Y20969808D01*
X52172958Y20888309D01*
X52252310Y20791618D01*
X52321618Y20722310D01*
X52418309Y20642958D01*
X52499808Y20588502D01*
X52610125Y20529536D01*
X52700681Y20492027D01*
X52820377Y20455718D01*
X52916510Y20436596D01*
X53040991Y20424336D01*
X53065550Y20424336D01*
X53090000Y20421928D01*
X53590000Y20421928D01*
X53614450Y20424336D01*
X53639009Y20424336D01*
X53763490Y20436596D01*
X53859623Y20455718D01*
X53979319Y20492027D01*
X54069875Y20529536D01*
X54180192Y20588502D01*
X54257264Y20640000D01*
X54429559Y20640000D01*
X54395000Y20466260D01*
X54395000Y20173740D01*
X54452068Y19886842D01*
X54564010Y19616589D01*
X54726525Y19373368D01*
X54933368Y19166525D01*
X54960000Y19148730D01*
X54960001Y18951270D01*
X54933368Y18933475D01*
X54726525Y18726632D01*
X54708730Y18700000D01*
X52178347Y18700000D01*
X52233977Y18755630D01*
X52117704Y18871903D01*
X52361671Y18943486D01*
X52482571Y19198996D01*
X52551300Y19473184D01*
X52565217Y19755512D01*
X52523787Y20035130D01*
X52428603Y20301292D01*
X52361671Y20426514D01*
X52117702Y20498097D01*
X51304605Y19685000D01*
X51318748Y19670857D01*
X51139143Y19491252D01*
X51125000Y19505395D01*
X51110858Y19491252D01*
X50931253Y19670857D01*
X50945395Y19685000D01*
X50132298Y20498097D01*
X49888329Y20426514D01*
X49767429Y20171004D01*
X49698700Y19896816D01*
X49684783Y19614488D01*
X49726213Y19334870D01*
X49821397Y19068708D01*
X49888329Y18943486D01*
X50132296Y18871903D01*
X50016023Y18755630D01*
X50071653Y18700000D01*
X49911076Y18700000D01*
X49063072Y19548003D01*
X49063072Y20485000D01*
X49050812Y20609482D01*
X49030118Y20677702D01*
X50311903Y20677702D01*
X51125000Y19864605D01*
X51938097Y20677702D01*
X51866514Y20921671D01*
X51611004Y21042571D01*
X51336816Y21111300D01*
X51054488Y21125217D01*
X50774870Y21083787D01*
X50508708Y20988603D01*
X50383486Y20921671D01*
X50311903Y20677702D01*
X49030118Y20677702D01*
X49014502Y20729180D01*
X48955537Y20839494D01*
X48876185Y20936185D01*
X48779494Y21015537D01*
X48669180Y21074502D01*
X48549482Y21110812D01*
X48425000Y21123072D01*
X46825000Y21123072D01*
X46700518Y21110812D01*
X46580820Y21074502D01*
X46470506Y21015537D01*
X46373815Y20936185D01*
X46294463Y20839494D01*
X46235498Y20729180D01*
X46199188Y20609482D01*
X46186928Y20485000D01*
X46186928Y19548004D01*
X44583925Y17945000D01*
X44308665Y17945000D01*
X44031426Y17889853D01*
X43770273Y17781680D01*
X43535241Y17624637D01*
X43335363Y17424759D01*
X43178320Y17189727D01*
X43070147Y16928574D01*
X43015000Y16651335D01*
X43015000Y16368665D01*
X43070147Y16091426D01*
X43178320Y15830273D01*
X43335363Y15595241D01*
X43535241Y15395363D01*
X43735869Y15261308D01*
X43708486Y15246671D01*
X43636903Y15002702D01*
X44450000Y14189605D01*
X45263097Y15002702D01*
X45191514Y15246671D01*
X45162659Y15260324D01*
X45364759Y15395363D01*
X45564637Y15595241D01*
X45721680Y15830273D01*
X45829853Y16091426D01*
X45885000Y16368665D01*
X45885000Y16643925D01*
X47488004Y18246928D01*
X47761997Y18246928D01*
X48847501Y17161423D01*
X48876314Y17126314D01*
X49016403Y17011347D01*
X49176228Y16925919D01*
X49349649Y16873312D01*
X49484808Y16860000D01*
X49484810Y16860000D01*
X49530000Y16855549D01*
X49575189Y16860000D01*
X54708730Y16860000D01*
X54726525Y16833368D01*
X54933368Y16626525D01*
X55107760Y16510000D01*
X54933368Y16393475D01*
X54726525Y16186632D01*
X54564010Y15943411D01*
X54452068Y15673158D01*
X54395000Y15386260D01*
X54395000Y15093740D01*
X54452068Y14806842D01*
X54564010Y14536589D01*
X54726525Y14293368D01*
X54781686Y14238207D01*
X53930010Y13386532D01*
X53930010Y14088409D01*
X53933613Y14124991D01*
X53930010Y14161573D01*
X53930010Y14161582D01*
X53919230Y14271035D01*
X53876630Y14411468D01*
X53826219Y14505780D01*
X53807451Y14540893D01*
X53737678Y14625911D01*
X53714353Y14654333D01*
X53685931Y14677658D01*
X53573256Y14790333D01*
X53583072Y14889999D01*
X53583072Y15590001D01*
X53566008Y15763255D01*
X53515472Y15929851D01*
X53433405Y16083387D01*
X53322962Y16217962D01*
X53188387Y16328405D01*
X53034851Y16410472D01*
X52868255Y16461008D01*
X52695001Y16478072D01*
X51444999Y16478072D01*
X51271745Y16461008D01*
X51105149Y16410472D01*
X50951613Y16328405D01*
X50817038Y16217962D01*
X50706595Y16083387D01*
X50624528Y15929851D01*
X50573992Y15763255D01*
X50556928Y15590001D01*
X50556928Y14889999D01*
X50573992Y14716745D01*
X50624528Y14550149D01*
X50706595Y14396613D01*
X50817038Y14262038D01*
X50951613Y14151595D01*
X50956111Y14149191D01*
X50917498Y14117502D01*
X50808756Y13985000D01*
X45936592Y13985000D01*
X45900002Y13988604D01*
X45885617Y13987187D01*
X45890217Y14080512D01*
X45848787Y14360130D01*
X45753603Y14626292D01*
X45686671Y14751514D01*
X45442702Y14823097D01*
X44629605Y14010000D01*
X44643748Y13995857D01*
X44464143Y13816252D01*
X44450000Y13830395D01*
X43636903Y13017298D01*
X43644913Y12989999D01*
X42085468Y12989999D01*
X42125000Y13188740D01*
X42125000Y13481260D01*
X42067932Y13768158D01*
X41996966Y13939488D01*
X43009783Y13939488D01*
X43051213Y13659870D01*
X43146397Y13393708D01*
X43213329Y13268486D01*
X43457298Y13196903D01*
X44270395Y14010000D01*
X43457298Y14823097D01*
X43213329Y14751514D01*
X43092429Y14496004D01*
X43023700Y14221816D01*
X43009783Y13939488D01*
X41996966Y13939488D01*
X41955990Y14038411D01*
X41793475Y14281632D01*
X41586632Y14488475D01*
X41343411Y14650990D01*
X41073158Y14762932D01*
X40786260Y14820000D01*
X40493740Y14820000D01*
X40206842Y14762932D01*
X39936589Y14650990D01*
X39693368Y14488475D01*
X39486525Y14281632D01*
X39370000Y14107240D01*
X39253475Y14281632D01*
X39046632Y14488475D01*
X38803411Y14650990D01*
X38533158Y14762932D01*
X38246260Y14820000D01*
X37953740Y14820000D01*
X37666842Y14762932D01*
X37396589Y14650990D01*
X37153368Y14488475D01*
X36946525Y14281632D01*
X36830000Y14107240D01*
X36713475Y14281632D01*
X36506632Y14488475D01*
X36263411Y14650990D01*
X35993158Y14762932D01*
X35706260Y14820000D01*
X35413740Y14820000D01*
X35175899Y14772690D01*
X34672658Y15275931D01*
X34649332Y15304354D01*
X34535891Y15397452D01*
X34406467Y15466631D01*
X34266034Y15509231D01*
X34156581Y15520011D01*
X34156579Y15520011D01*
X34119989Y15523615D01*
X34083399Y15520011D01*
X31253578Y15520011D01*
X30373589Y16400000D01*
X30642203Y16400000D01*
X30713038Y16293987D01*
X30898987Y16108038D01*
X31117641Y15961939D01*
X31360595Y15861304D01*
X31618514Y15810000D01*
X31881486Y15810000D01*
X32139405Y15861304D01*
X32382359Y15961939D01*
X32601013Y16108038D01*
X32786962Y16293987D01*
X32933061Y16512641D01*
X33033696Y16755595D01*
X33085000Y17013514D01*
X33085000Y17276486D01*
X38035000Y17276486D01*
X38035000Y17013514D01*
X38086304Y16755595D01*
X38186939Y16512641D01*
X38333038Y16293987D01*
X38518987Y16108038D01*
X38737641Y15961939D01*
X38980595Y15861304D01*
X39238514Y15810000D01*
X39501486Y15810000D01*
X39759405Y15861304D01*
X40002359Y15961939D01*
X40221013Y16108038D01*
X40406962Y16293987D01*
X40553061Y16512641D01*
X40653696Y16755595D01*
X40705000Y17013514D01*
X40705000Y17276486D01*
X40653696Y17534405D01*
X40553061Y17777359D01*
X40406962Y17996013D01*
X40221013Y18181962D01*
X40002359Y18328061D01*
X39759405Y18428696D01*
X39501486Y18480000D01*
X39238514Y18480000D01*
X38980595Y18428696D01*
X38737641Y18328061D01*
X38518987Y18181962D01*
X38333038Y17996013D01*
X38186939Y17777359D01*
X38086304Y17534405D01*
X38035000Y17276486D01*
X33085000Y17276486D01*
X33033696Y17534405D01*
X32933061Y17777359D01*
X32786962Y17996013D01*
X32601013Y18181962D01*
X32382359Y18328061D01*
X32139405Y18428696D01*
X31881486Y18480000D01*
X31618514Y18480000D01*
X31360595Y18428696D01*
X31117641Y18328061D01*
X30898987Y18181962D01*
X30713038Y17996013D01*
X30642203Y17890000D01*
X30153589Y17890000D01*
X28492668Y19550921D01*
X28469343Y19579343D01*
X28355902Y19672441D01*
X28349469Y19675880D01*
X28883589Y20210000D01*
X30642203Y20210000D01*
X30713038Y20103987D01*
X30898987Y19918038D01*
X31117641Y19771939D01*
X31360595Y19671304D01*
X31618514Y19620000D01*
X31881486Y19620000D01*
X32139405Y19671304D01*
X32382359Y19771939D01*
X32601013Y19918038D01*
X32786962Y20103987D01*
X32933061Y20322641D01*
X33033696Y20565595D01*
X33085000Y20823514D01*
X33085000Y21086486D01*
X33072366Y21150001D01*
X38047634Y21150001D01*
X38035000Y21086486D01*
X38035000Y20823514D01*
X38059874Y20698463D01*
X37958265Y20596854D01*
X37950256Y20602205D01*
X37761898Y20680226D01*
X37561939Y20720000D01*
X37358061Y20720000D01*
X37158102Y20680226D01*
X36969744Y20602205D01*
X36800226Y20488937D01*
X36656063Y20344774D01*
X36542795Y20175256D01*
X36464774Y19986898D01*
X36425000Y19786939D01*
X36425000Y19583061D01*
X36464774Y19383102D01*
X36542795Y19194744D01*
X36656063Y19025226D01*
X36800226Y18881063D01*
X36969744Y18767795D01*
X37158102Y18689774D01*
X37358061Y18650000D01*
X37561939Y18650000D01*
X37761898Y18689774D01*
X37950256Y18767795D01*
X38119774Y18881063D01*
X38183312Y18944601D01*
X38246045Y18950780D01*
X38386478Y18993380D01*
X38515902Y19062559D01*
X38629343Y19155657D01*
X38652669Y19184080D01*
X39113463Y19644874D01*
X39238514Y19620000D01*
X39501486Y19620000D01*
X39759405Y19671304D01*
X40002359Y19771939D01*
X40221013Y19918038D01*
X40406962Y20103987D01*
X40553061Y20322641D01*
X40653696Y20565595D01*
X40705000Y20823514D01*
X40705000Y21086486D01*
X40692366Y21150001D01*
X41857634Y21150001D01*
X41845000Y21086486D01*
X41845000Y20823514D01*
X41896304Y20565595D01*
X41996939Y20322641D01*
X42143038Y20103987D01*
X42328987Y19918038D01*
X42547641Y19771939D01*
X42790595Y19671304D01*
X43048514Y19620000D01*
X43311486Y19620000D01*
X43569405Y19671304D01*
X43812359Y19771939D01*
X44031013Y19918038D01*
X44216962Y20103987D01*
X44363061Y20322641D01*
X44463696Y20565595D01*
X44515000Y20823514D01*
X44515000Y21086486D01*
X44463696Y21344405D01*
X44363061Y21587359D01*
X44216962Y21806013D01*
X44031013Y21991962D01*
X43812359Y22138061D01*
X43569405Y22238696D01*
X43311486Y22290000D01*
X43048514Y22290000D01*
X42923463Y22265126D01*
X42792668Y22395921D01*
X42769342Y22424344D01*
X42655901Y22517442D01*
X42526477Y22586621D01*
X42386044Y22629221D01*
X42276591Y22640001D01*
X42276589Y22640001D01*
X42239999Y22643605D01*
X42203409Y22640001D01*
X38298590Y22640001D01*
X39113463Y23454874D01*
X39238514Y23430000D01*
X39501486Y23430000D01*
X39759405Y23481304D01*
X40002359Y23581939D01*
X40221013Y23728038D01*
X40406962Y23913987D01*
X40553061Y24132641D01*
X40653696Y24375595D01*
X40705000Y24633514D01*
X40705000Y24896486D01*
X40653696Y25154405D01*
X40553061Y25397359D01*
X40406962Y25616013D01*
X40221013Y25801962D01*
X40002359Y25948061D01*
X39759405Y26048696D01*
X39501486Y26100000D01*
X39238514Y26100000D01*
X38980595Y26048696D01*
X38737641Y25948061D01*
X38518987Y25801962D01*
X38333038Y25616013D01*
X38186939Y25397359D01*
X38086304Y25154405D01*
X38035000Y24896486D01*
X38035000Y24633514D01*
X38059874Y24508463D01*
X37156411Y23605000D01*
X34378711Y23605000D01*
X34319774Y23663937D01*
X34150256Y23777205D01*
X33961898Y23855226D01*
X33761939Y23895000D01*
X33558061Y23895000D01*
X33358102Y23855226D01*
X33169744Y23777205D01*
X33000226Y23663937D01*
X32856063Y23519774D01*
X32742795Y23350256D01*
X32664774Y23161898D01*
X32625000Y22961939D01*
X32625000Y22758061D01*
X32648483Y22640001D01*
X27646583Y22640001D01*
X27610000Y22643604D01*
X27573418Y22640001D01*
X27573409Y22640001D01*
X27463956Y22629221D01*
X27323523Y22586621D01*
X27300379Y22574250D01*
X27194098Y22517442D01*
X27148475Y22480000D01*
X27080658Y22424344D01*
X27057332Y22395921D01*
X26926537Y22265126D01*
X26801486Y22290000D01*
X26538514Y22290000D01*
X26280595Y22238696D01*
X26037641Y22138061D01*
X25818987Y21991962D01*
X25633038Y21806013D01*
X25486939Y21587359D01*
X25386304Y21344405D01*
X25335000Y21086486D01*
X25335000Y20823514D01*
X25386304Y20565595D01*
X25486939Y20322641D01*
X25558861Y20215001D01*
X20161139Y20215001D01*
X20233061Y20322641D01*
X20333696Y20565595D01*
X20385000Y20823514D01*
X20385000Y21086486D01*
X20333696Y21344405D01*
X20233061Y21587359D01*
X20086962Y21806013D01*
X19901013Y21991962D01*
X19682359Y22138061D01*
X19439405Y22238696D01*
X19181486Y22290000D01*
X18918514Y22290000D01*
X18660595Y22238696D01*
X18417641Y22138061D01*
X18198987Y21991962D01*
X18013038Y21806013D01*
X17866939Y21587359D01*
X17766304Y21344405D01*
X17715000Y21086486D01*
X17715000Y20823514D01*
X17766304Y20565595D01*
X17866939Y20322641D01*
X17938861Y20215001D01*
X14820000Y20215001D01*
X14820000Y20466260D01*
X14762932Y20753158D01*
X14650990Y21023411D01*
X14488475Y21266632D01*
X14281632Y21473475D01*
X14107240Y21590000D01*
X14281632Y21706525D01*
X14488475Y21913368D01*
X14650990Y22156589D01*
X14762932Y22426842D01*
X14820000Y22713740D01*
X14820000Y23006260D01*
X14762932Y23293158D01*
X14650990Y23563411D01*
X14488475Y23806632D01*
X14281632Y24013475D01*
X14271867Y24020000D01*
X17942203Y24020000D01*
X18013038Y23913987D01*
X18198987Y23728038D01*
X18417641Y23581939D01*
X18660595Y23481304D01*
X18918514Y23430000D01*
X19181486Y23430000D01*
X19439405Y23481304D01*
X19682359Y23581939D01*
X19901013Y23728038D01*
X20086962Y23913987D01*
X20233061Y24132641D01*
X20333696Y24375595D01*
X20385000Y24633514D01*
X20385000Y24896486D01*
X20333696Y25154405D01*
X20233061Y25397359D01*
X20086962Y25616013D01*
X19901013Y25801962D01*
X19882752Y25814163D01*
X23360920Y29292331D01*
X23389343Y29315657D01*
X23432244Y29367932D01*
X23482441Y29429097D01*
X23541818Y29540184D01*
X23551620Y29558522D01*
X23594220Y29698955D01*
X23605000Y29808408D01*
X23605000Y29808410D01*
X23608604Y29845000D01*
X23605000Y29881590D01*
X23605000Y31096799D01*
X23806632Y31231525D01*
X24013475Y31438368D01*
X24130000Y31612760D01*
X24246525Y31438368D01*
X24453368Y31231525D01*
X24655000Y31096799D01*
X24655001Y26071600D01*
X24651396Y26035000D01*
X24665781Y25888955D01*
X24708381Y25748522D01*
X24777559Y25619098D01*
X24847331Y25534080D01*
X24847337Y25534074D01*
X24870658Y25505657D01*
X24899075Y25482336D01*
X25359874Y25021537D01*
X25335000Y24896486D01*
X25335000Y24633514D01*
X25386304Y24375595D01*
X25486939Y24132641D01*
X25633038Y23913987D01*
X25818987Y23728038D01*
X26037641Y23581939D01*
X26280595Y23481304D01*
X26538514Y23430000D01*
X26801486Y23430000D01*
X27059405Y23481304D01*
X27302359Y23581939D01*
X27521013Y23728038D01*
X27706962Y23913987D01*
X27853061Y24132641D01*
X27953696Y24375595D01*
X28005000Y24633514D01*
X28005000Y24896486D01*
X27953696Y25154405D01*
X27853061Y25397359D01*
X27706962Y25616013D01*
X27521013Y25801962D01*
X27302359Y25948061D01*
X27059405Y26048696D01*
X26801486Y26100000D01*
X26538514Y26100000D01*
X26413463Y26075126D01*
X26145000Y26343589D01*
X26145000Y27352358D01*
X26336670Y27282278D01*
X26543000Y27404799D01*
X26543000Y28448000D01*
X26797000Y28448000D01*
X26797000Y27404799D01*
X27003330Y27282278D01*
X27249123Y27372147D01*
X27472660Y27508241D01*
X27665351Y27685330D01*
X27819792Y27896608D01*
X27930047Y28133956D01*
X27962716Y28241671D01*
X27839374Y28448000D01*
X26797000Y28448000D01*
X26543000Y28448000D01*
X26523000Y28448000D01*
X26523000Y28702000D01*
X26543000Y28702000D01*
X26543000Y29745201D01*
X26797000Y29745201D01*
X26797000Y28702000D01*
X27839374Y28702000D01*
X27962716Y28908329D01*
X27930047Y29016044D01*
X27819792Y29253392D01*
X27665351Y29464670D01*
X27472660Y29641759D01*
X27249123Y29777853D01*
X27003330Y29867722D01*
X26797000Y29745201D01*
X26543000Y29745201D01*
X26336670Y29867722D01*
X26145000Y29797642D01*
X26145000Y31096799D01*
X26346632Y31231525D01*
X26553475Y31438368D01*
X26670000Y31612760D01*
X26786525Y31438368D01*
X26993368Y31231525D01*
X27236589Y31069010D01*
X27506842Y30957068D01*
X27793740Y30900000D01*
X28086260Y30900000D01*
X28324101Y30947310D01*
X29314942Y29956469D01*
X29338268Y29928046D01*
X29366691Y29904720D01*
X29451708Y29834948D01*
X29520887Y29797971D01*
X29581133Y29765769D01*
X29721566Y29723169D01*
X29831019Y29712389D01*
X29831021Y29712389D01*
X29867611Y29708785D01*
X29904201Y29712389D01*
X31049288Y29712389D01*
X30898987Y29611962D01*
X30713038Y29426013D01*
X30566939Y29207359D01*
X30466304Y28964405D01*
X30415000Y28706486D01*
X30415000Y28443514D01*
X30466304Y28185595D01*
X30566939Y27942641D01*
X30713038Y27723987D01*
X30898987Y27538038D01*
X31117641Y27391939D01*
X31360595Y27291304D01*
X31618514Y27240000D01*
X31881486Y27240000D01*
X32139405Y27291304D01*
X32382359Y27391939D01*
X32601013Y27538038D01*
X32786962Y27723987D01*
X32933061Y27942641D01*
X33033696Y28185595D01*
X33085000Y28443514D01*
X33085000Y28706486D01*
X33033696Y28964405D01*
X32933061Y29207359D01*
X32786962Y29426013D01*
X32601013Y29611962D01*
X32450712Y29712389D01*
X38669288Y29712389D01*
X38518987Y29611962D01*
X38333038Y29426013D01*
X38186939Y29207359D01*
X38086304Y28964405D01*
X38035000Y28706486D01*
X38035000Y28443514D01*
X38059874Y28318463D01*
X36521411Y26780000D01*
X33738711Y26780000D01*
X33679774Y26838937D01*
X33510256Y26952205D01*
X33321898Y27030226D01*
X33121939Y27070000D01*
X32918061Y27070000D01*
X32718102Y27030226D01*
X32529744Y26952205D01*
X32360226Y26838937D01*
X32216063Y26694774D01*
X32102795Y26525256D01*
X32024774Y26336898D01*
X31985000Y26136939D01*
X31985000Y26079409D01*
X31881486Y26100000D01*
X31618514Y26100000D01*
X31360595Y26048696D01*
X31117641Y25948061D01*
X30898987Y25801962D01*
X30713038Y25616013D01*
X30566939Y25397359D01*
X30466304Y25154405D01*
X30415000Y24896486D01*
X30415000Y24633514D01*
X30466304Y24375595D01*
X30566939Y24132641D01*
X30713038Y23913987D01*
X30898987Y23728038D01*
X31117641Y23581939D01*
X31360595Y23481304D01*
X31618514Y23430000D01*
X31881486Y23430000D01*
X32139405Y23481304D01*
X32382359Y23581939D01*
X32601013Y23728038D01*
X32786962Y23913987D01*
X32933061Y24132641D01*
X33033696Y24375595D01*
X33085000Y24633514D01*
X33085000Y24896486D01*
X33064409Y25000000D01*
X33121939Y25000000D01*
X33321898Y25039774D01*
X33510256Y25117795D01*
X33679774Y25231063D01*
X33738711Y25290000D01*
X36793410Y25290000D01*
X36830000Y25286396D01*
X36866590Y25290000D01*
X36866592Y25290000D01*
X36976045Y25300780D01*
X37116478Y25343380D01*
X37245902Y25412559D01*
X37359343Y25505657D01*
X37382669Y25534080D01*
X39113463Y27264874D01*
X39238514Y27240000D01*
X39501486Y27240000D01*
X39759405Y27291304D01*
X40002359Y27391939D01*
X40221013Y27538038D01*
X40406962Y27723987D01*
X40553061Y27942641D01*
X40653696Y28185595D01*
X40664850Y28241670D01*
X41887278Y28241670D01*
X41977147Y27995877D01*
X42113241Y27772340D01*
X42290330Y27579649D01*
X42501608Y27425208D01*
X42738956Y27314953D01*
X42846671Y27282284D01*
X43053000Y27405626D01*
X43053000Y28448000D01*
X43307000Y28448000D01*
X43307000Y27405626D01*
X43513329Y27282284D01*
X43621044Y27314953D01*
X43858392Y27425208D01*
X44069670Y27579649D01*
X44246759Y27772340D01*
X44382853Y27995877D01*
X44472722Y28241670D01*
X44350201Y28448000D01*
X43307000Y28448000D01*
X43053000Y28448000D01*
X42009799Y28448000D01*
X41887278Y28241670D01*
X40664850Y28241670D01*
X40705000Y28443514D01*
X40705000Y28706486D01*
X40653696Y28964405D01*
X40553061Y29207359D01*
X40406962Y29426013D01*
X40221013Y29611962D01*
X40070712Y29712389D01*
X42484640Y29712389D01*
X42290330Y29570351D01*
X42113241Y29377660D01*
X41977147Y29154123D01*
X41887278Y28908330D01*
X42009799Y28702000D01*
X43053000Y28702000D01*
X43053000Y28722000D01*
X43307000Y28722000D01*
X43307000Y28702000D01*
X44350201Y28702000D01*
X44472722Y28908330D01*
X44382853Y29154123D01*
X44246759Y29377660D01*
X44069670Y29570351D01*
X43875360Y29712389D01*
X46883678Y29712389D01*
X46942615Y29653452D01*
X47112133Y29540184D01*
X47300491Y29462163D01*
X47500450Y29422389D01*
X47704328Y29422389D01*
X47904287Y29462163D01*
X48092645Y29540184D01*
X48262163Y29653452D01*
X48406326Y29797615D01*
X48519594Y29967133D01*
X48597615Y30155491D01*
X48637389Y30355450D01*
X48637389Y30559328D01*
X48597615Y30759287D01*
X48519594Y30947645D01*
X48406326Y31117163D01*
X48262163Y31261326D01*
X48092645Y31374594D01*
X47904287Y31452615D01*
X47704328Y31492389D01*
X47500450Y31492389D01*
X47300491Y31452615D01*
X47112133Y31374594D01*
X46942615Y31261326D01*
X46883678Y31202389D01*
X44572234Y31202389D01*
X44619502Y31290820D01*
X44655812Y31410518D01*
X44668072Y31535000D01*
X44668072Y33235000D01*
X44655812Y33359482D01*
X44619502Y33479180D01*
X44560537Y33589494D01*
X44503400Y33659115D01*
X44729759Y33810363D01*
X44929637Y34010241D01*
X45086680Y34245273D01*
X45194853Y34506426D01*
X45250000Y34783665D01*
X45250000Y35066335D01*
X45194853Y35343574D01*
X45115562Y35535000D01*
X52672721Y35535000D01*
X52822869Y35520278D01*
G04 #@! TA.AperFunction,Conductor*
D24*
G36*
X52822869Y35520278D02*
G01*
X52936246Y35486047D01*
X53040819Y35430445D01*
X53132596Y35355593D01*
X53208091Y35264336D01*
X53264419Y35160156D01*
X53299440Y35047024D01*
X53317855Y34871812D01*
X53317747Y34856318D01*
X53318646Y34847147D01*
X53344554Y34600643D01*
X53356589Y34542014D01*
X53367792Y34483284D01*
X53370456Y34474462D01*
X53443751Y34237686D01*
X53466931Y34182543D01*
X53489339Y34127080D01*
X53493665Y34118946D01*
X53493667Y34118941D01*
X53493670Y34118936D01*
X53611553Y33900914D01*
X53644988Y33851346D01*
X53677759Y33801265D01*
X53683584Y33794124D01*
X53841577Y33603144D01*
X53884012Y33561005D01*
X53925875Y33518255D01*
X53932976Y33512382D01*
X54125053Y33355727D01*
X54174875Y33322626D01*
X54224237Y33288827D01*
X54232343Y33284444D01*
X54451191Y33168081D01*
X54506479Y33145293D01*
X54561475Y33121721D01*
X54570278Y33118997D01*
X54807559Y33047357D01*
X54866246Y33035736D01*
X54924752Y33023300D01*
X54933915Y33022337D01*
X54933917Y33022337D01*
X55180595Y32998150D01*
X55180598Y32998150D01*
X55212581Y32995000D01*
X56482721Y32995000D01*
X56632869Y32980278D01*
X56746246Y32946047D01*
X56850819Y32890445D01*
X56942596Y32815593D01*
X57018091Y32724336D01*
X57074419Y32620156D01*
X57109440Y32507024D01*
X57125001Y32358969D01*
X57125001Y31827294D01*
X57084494Y31860537D01*
X56974180Y31919502D01*
X56854482Y31955812D01*
X56730000Y31968072D01*
X55030000Y31968072D01*
X54905518Y31955812D01*
X54785820Y31919502D01*
X54675506Y31860537D01*
X54578815Y31781185D01*
X54499463Y31684494D01*
X54440498Y31574180D01*
X54404188Y31454482D01*
X54391928Y31330000D01*
X54391928Y29630000D01*
X54404188Y29505518D01*
X54440498Y29385820D01*
X54499463Y29275506D01*
X54578815Y29178815D01*
X54675506Y29099463D01*
X54785820Y29040498D01*
X54858380Y29018487D01*
X54726525Y28886632D01*
X54564010Y28643411D01*
X54452068Y28373158D01*
X54395000Y28086260D01*
X54395000Y27793740D01*
X54401249Y27762325D01*
X52721424Y26082499D01*
X52686315Y26053686D01*
X52580706Y25925000D01*
X52571348Y25913597D01*
X52485919Y25753771D01*
X52433313Y25580351D01*
X52415549Y25400000D01*
X52420001Y25354801D01*
X52420001Y25078172D01*
X52418309Y25077042D01*
X52321618Y24997690D01*
X52252310Y24928382D01*
X52172958Y24831691D01*
X52118502Y24750192D01*
X52059536Y24639875D01*
X52022027Y24549319D01*
X51985718Y24429623D01*
X51966596Y24333490D01*
X51954336Y24209009D01*
X51954336Y24184450D01*
X51951928Y24160000D01*
X51951928Y23610000D01*
X51964188Y23485518D01*
X51964345Y23485000D01*
X51964188Y23484482D01*
X51951928Y23360000D01*
X51955000Y23145750D01*
X52113750Y22987000D01*
X52456248Y22987000D01*
X52465518Y22984188D01*
X52590000Y22971928D01*
X53487000Y22971928D01*
X53487000Y22748072D01*
X52590000Y22748072D01*
X52465518Y22735812D01*
X52456248Y22733000D01*
X52113750Y22733000D01*
X51955000Y22574250D01*
X51951928Y22360000D01*
X51964188Y22235518D01*
X51964345Y22235000D01*
X51964188Y22234482D01*
X51951928Y22110000D01*
X51951928Y21560000D01*
X51954336Y21535550D01*
X51954336Y21510991D01*
X51966596Y21386510D01*
X51985718Y21290377D01*
X52022027Y21170681D01*
X52059536Y21080125D01*
X52118502Y20969808D01*
X52172958Y20888309D01*
X52252310Y20791618D01*
X52321618Y20722310D01*
X52418309Y20642958D01*
X52499808Y20588502D01*
X52610125Y20529536D01*
X52700681Y20492027D01*
X52820377Y20455718D01*
X52916510Y20436596D01*
X53040991Y20424336D01*
X53065550Y20424336D01*
X53090000Y20421928D01*
X53590000Y20421928D01*
X53614450Y20424336D01*
X53639009Y20424336D01*
X53763490Y20436596D01*
X53859623Y20455718D01*
X53979319Y20492027D01*
X54069875Y20529536D01*
X54180192Y20588502D01*
X54257264Y20640000D01*
X54429559Y20640000D01*
X54395000Y20466260D01*
X54395000Y20173740D01*
X54452068Y19886842D01*
X54564010Y19616589D01*
X54726525Y19373368D01*
X54933368Y19166525D01*
X54960000Y19148730D01*
X54960001Y18951270D01*
X54933368Y18933475D01*
X54726525Y18726632D01*
X54708730Y18700000D01*
X52178347Y18700000D01*
X52233977Y18755630D01*
X52117704Y18871903D01*
X52361671Y18943486D01*
X52482571Y19198996D01*
X52551300Y19473184D01*
X52565217Y19755512D01*
X52523787Y20035130D01*
X52428603Y20301292D01*
X52361671Y20426514D01*
X52117702Y20498097D01*
X51304605Y19685000D01*
X51318748Y19670857D01*
X51139143Y19491252D01*
X51125000Y19505395D01*
X51110858Y19491252D01*
X50931253Y19670857D01*
X50945395Y19685000D01*
X50132298Y20498097D01*
X49888329Y20426514D01*
X49767429Y20171004D01*
X49698700Y19896816D01*
X49684783Y19614488D01*
X49726213Y19334870D01*
X49821397Y19068708D01*
X49888329Y18943486D01*
X50132296Y18871903D01*
X50016023Y18755630D01*
X50071653Y18700000D01*
X49911076Y18700000D01*
X49063072Y19548003D01*
X49063072Y20485000D01*
X49050812Y20609482D01*
X49030118Y20677702D01*
X50311903Y20677702D01*
X51125000Y19864605D01*
X51938097Y20677702D01*
X51866514Y20921671D01*
X51611004Y21042571D01*
X51336816Y21111300D01*
X51054488Y21125217D01*
X50774870Y21083787D01*
X50508708Y20988603D01*
X50383486Y20921671D01*
X50311903Y20677702D01*
X49030118Y20677702D01*
X49014502Y20729180D01*
X48955537Y20839494D01*
X48876185Y20936185D01*
X48779494Y21015537D01*
X48669180Y21074502D01*
X48549482Y21110812D01*
X48425000Y21123072D01*
X46825000Y21123072D01*
X46700518Y21110812D01*
X46580820Y21074502D01*
X46470506Y21015537D01*
X46373815Y20936185D01*
X46294463Y20839494D01*
X46235498Y20729180D01*
X46199188Y20609482D01*
X46186928Y20485000D01*
X46186928Y19548004D01*
X44583925Y17945000D01*
X44308665Y17945000D01*
X44031426Y17889853D01*
X43770273Y17781680D01*
X43535241Y17624637D01*
X43335363Y17424759D01*
X43178320Y17189727D01*
X43070147Y16928574D01*
X43015000Y16651335D01*
X43015000Y16368665D01*
X43070147Y16091426D01*
X43178320Y15830273D01*
X43335363Y15595241D01*
X43535241Y15395363D01*
X43735869Y15261308D01*
X43708486Y15246671D01*
X43636903Y15002702D01*
X44450000Y14189605D01*
X45263097Y15002702D01*
X45191514Y15246671D01*
X45162659Y15260324D01*
X45364759Y15395363D01*
X45564637Y15595241D01*
X45721680Y15830273D01*
X45829853Y16091426D01*
X45885000Y16368665D01*
X45885000Y16643925D01*
X47488004Y18246928D01*
X47761997Y18246928D01*
X48847501Y17161423D01*
X48876314Y17126314D01*
X49016403Y17011347D01*
X49176228Y16925919D01*
X49349649Y16873312D01*
X49484808Y16860000D01*
X49484810Y16860000D01*
X49530000Y16855549D01*
X49575189Y16860000D01*
X54708730Y16860000D01*
X54726525Y16833368D01*
X54933368Y16626525D01*
X55107760Y16510000D01*
X54933368Y16393475D01*
X54726525Y16186632D01*
X54564010Y15943411D01*
X54452068Y15673158D01*
X54395000Y15386260D01*
X54395000Y15093740D01*
X54452068Y14806842D01*
X54564010Y14536589D01*
X54726525Y14293368D01*
X54781686Y14238207D01*
X53930010Y13386532D01*
X53930010Y14088409D01*
X53933613Y14124991D01*
X53930010Y14161573D01*
X53930010Y14161582D01*
X53919230Y14271035D01*
X53876630Y14411468D01*
X53826219Y14505780D01*
X53807451Y14540893D01*
X53737678Y14625911D01*
X53714353Y14654333D01*
X53685931Y14677658D01*
X53573256Y14790333D01*
X53583072Y14889999D01*
X53583072Y15590001D01*
X53566008Y15763255D01*
X53515472Y15929851D01*
X53433405Y16083387D01*
X53322962Y16217962D01*
X53188387Y16328405D01*
X53034851Y16410472D01*
X52868255Y16461008D01*
X52695001Y16478072D01*
X51444999Y16478072D01*
X51271745Y16461008D01*
X51105149Y16410472D01*
X50951613Y16328405D01*
X50817038Y16217962D01*
X50706595Y16083387D01*
X50624528Y15929851D01*
X50573992Y15763255D01*
X50556928Y15590001D01*
X50556928Y14889999D01*
X50573992Y14716745D01*
X50624528Y14550149D01*
X50706595Y14396613D01*
X50817038Y14262038D01*
X50951613Y14151595D01*
X50956111Y14149191D01*
X50917498Y14117502D01*
X50808756Y13985000D01*
X45936592Y13985000D01*
X45900002Y13988604D01*
X45885617Y13987187D01*
X45890217Y14080512D01*
X45848787Y14360130D01*
X45753603Y14626292D01*
X45686671Y14751514D01*
X45442702Y14823097D01*
X44629605Y14010000D01*
X44643748Y13995857D01*
X44464143Y13816252D01*
X44450000Y13830395D01*
X43636903Y13017298D01*
X43644913Y12989999D01*
X42085468Y12989999D01*
X42125000Y13188740D01*
X42125000Y13481260D01*
X42067932Y13768158D01*
X41996966Y13939488D01*
X43009783Y13939488D01*
X43051213Y13659870D01*
X43146397Y13393708D01*
X43213329Y13268486D01*
X43457298Y13196903D01*
X44270395Y14010000D01*
X43457298Y14823097D01*
X43213329Y14751514D01*
X43092429Y14496004D01*
X43023700Y14221816D01*
X43009783Y13939488D01*
X41996966Y13939488D01*
X41955990Y14038411D01*
X41793475Y14281632D01*
X41586632Y14488475D01*
X41343411Y14650990D01*
X41073158Y14762932D01*
X40786260Y14820000D01*
X40493740Y14820000D01*
X40206842Y14762932D01*
X39936589Y14650990D01*
X39693368Y14488475D01*
X39486525Y14281632D01*
X39370000Y14107240D01*
X39253475Y14281632D01*
X39046632Y14488475D01*
X38803411Y14650990D01*
X38533158Y14762932D01*
X38246260Y14820000D01*
X37953740Y14820000D01*
X37666842Y14762932D01*
X37396589Y14650990D01*
X37153368Y14488475D01*
X36946525Y14281632D01*
X36830000Y14107240D01*
X36713475Y14281632D01*
X36506632Y14488475D01*
X36263411Y14650990D01*
X35993158Y14762932D01*
X35706260Y14820000D01*
X35413740Y14820000D01*
X35175899Y14772690D01*
X34672658Y15275931D01*
X34649332Y15304354D01*
X34535891Y15397452D01*
X34406467Y15466631D01*
X34266034Y15509231D01*
X34156581Y15520011D01*
X34156579Y15520011D01*
X34119989Y15523615D01*
X34083399Y15520011D01*
X31253578Y15520011D01*
X30373589Y16400000D01*
X30642203Y16400000D01*
X30713038Y16293987D01*
X30898987Y16108038D01*
X31117641Y15961939D01*
X31360595Y15861304D01*
X31618514Y15810000D01*
X31881486Y15810000D01*
X32139405Y15861304D01*
X32382359Y15961939D01*
X32601013Y16108038D01*
X32786962Y16293987D01*
X32933061Y16512641D01*
X33033696Y16755595D01*
X33085000Y17013514D01*
X33085000Y17276486D01*
X38035000Y17276486D01*
X38035000Y17013514D01*
X38086304Y16755595D01*
X38186939Y16512641D01*
X38333038Y16293987D01*
X38518987Y16108038D01*
X38737641Y15961939D01*
X38980595Y15861304D01*
X39238514Y15810000D01*
X39501486Y15810000D01*
X39759405Y15861304D01*
X40002359Y15961939D01*
X40221013Y16108038D01*
X40406962Y16293987D01*
X40553061Y16512641D01*
X40653696Y16755595D01*
X40705000Y17013514D01*
X40705000Y17276486D01*
X40653696Y17534405D01*
X40553061Y17777359D01*
X40406962Y17996013D01*
X40221013Y18181962D01*
X40002359Y18328061D01*
X39759405Y18428696D01*
X39501486Y18480000D01*
X39238514Y18480000D01*
X38980595Y18428696D01*
X38737641Y18328061D01*
X38518987Y18181962D01*
X38333038Y17996013D01*
X38186939Y17777359D01*
X38086304Y17534405D01*
X38035000Y17276486D01*
X33085000Y17276486D01*
X33033696Y17534405D01*
X32933061Y17777359D01*
X32786962Y17996013D01*
X32601013Y18181962D01*
X32382359Y18328061D01*
X32139405Y18428696D01*
X31881486Y18480000D01*
X31618514Y18480000D01*
X31360595Y18428696D01*
X31117641Y18328061D01*
X30898987Y18181962D01*
X30713038Y17996013D01*
X30642203Y17890000D01*
X30153589Y17890000D01*
X28492668Y19550921D01*
X28469343Y19579343D01*
X28355902Y19672441D01*
X28349469Y19675880D01*
X28883589Y20210000D01*
X30642203Y20210000D01*
X30713038Y20103987D01*
X30898987Y19918038D01*
X31117641Y19771939D01*
X31360595Y19671304D01*
X31618514Y19620000D01*
X31881486Y19620000D01*
X32139405Y19671304D01*
X32382359Y19771939D01*
X32601013Y19918038D01*
X32786962Y20103987D01*
X32933061Y20322641D01*
X33033696Y20565595D01*
X33085000Y20823514D01*
X33085000Y21086486D01*
X33072366Y21150001D01*
X38047634Y21150001D01*
X38035000Y21086486D01*
X38035000Y20823514D01*
X38059874Y20698463D01*
X37958265Y20596854D01*
X37950256Y20602205D01*
X37761898Y20680226D01*
X37561939Y20720000D01*
X37358061Y20720000D01*
X37158102Y20680226D01*
X36969744Y20602205D01*
X36800226Y20488937D01*
X36656063Y20344774D01*
X36542795Y20175256D01*
X36464774Y19986898D01*
X36425000Y19786939D01*
X36425000Y19583061D01*
X36464774Y19383102D01*
X36542795Y19194744D01*
X36656063Y19025226D01*
X36800226Y18881063D01*
X36969744Y18767795D01*
X37158102Y18689774D01*
X37358061Y18650000D01*
X37561939Y18650000D01*
X37761898Y18689774D01*
X37950256Y18767795D01*
X38119774Y18881063D01*
X38183312Y18944601D01*
X38246045Y18950780D01*
X38386478Y18993380D01*
X38515902Y19062559D01*
X38629343Y19155657D01*
X38652669Y19184080D01*
X39113463Y19644874D01*
X39238514Y19620000D01*
X39501486Y19620000D01*
X39759405Y19671304D01*
X40002359Y19771939D01*
X40221013Y19918038D01*
X40406962Y20103987D01*
X40553061Y20322641D01*
X40653696Y20565595D01*
X40705000Y20823514D01*
X40705000Y21086486D01*
X40692366Y21150001D01*
X41857634Y21150001D01*
X41845000Y21086486D01*
X41845000Y20823514D01*
X41896304Y20565595D01*
X41996939Y20322641D01*
X42143038Y20103987D01*
X42328987Y19918038D01*
X42547641Y19771939D01*
X42790595Y19671304D01*
X43048514Y19620000D01*
X43311486Y19620000D01*
X43569405Y19671304D01*
X43812359Y19771939D01*
X44031013Y19918038D01*
X44216962Y20103987D01*
X44363061Y20322641D01*
X44463696Y20565595D01*
X44515000Y20823514D01*
X44515000Y21086486D01*
X44463696Y21344405D01*
X44363061Y21587359D01*
X44216962Y21806013D01*
X44031013Y21991962D01*
X43812359Y22138061D01*
X43569405Y22238696D01*
X43311486Y22290000D01*
X43048514Y22290000D01*
X42923463Y22265126D01*
X42792668Y22395921D01*
X42769342Y22424344D01*
X42655901Y22517442D01*
X42526477Y22586621D01*
X42386044Y22629221D01*
X42276591Y22640001D01*
X42276589Y22640001D01*
X42239999Y22643605D01*
X42203409Y22640001D01*
X38298590Y22640001D01*
X39113463Y23454874D01*
X39238514Y23430000D01*
X39501486Y23430000D01*
X39759405Y23481304D01*
X40002359Y23581939D01*
X40221013Y23728038D01*
X40406962Y23913987D01*
X40553061Y24132641D01*
X40653696Y24375595D01*
X40705000Y24633514D01*
X40705000Y24896486D01*
X40653696Y25154405D01*
X40553061Y25397359D01*
X40406962Y25616013D01*
X40221013Y25801962D01*
X40002359Y25948061D01*
X39759405Y26048696D01*
X39501486Y26100000D01*
X39238514Y26100000D01*
X38980595Y26048696D01*
X38737641Y25948061D01*
X38518987Y25801962D01*
X38333038Y25616013D01*
X38186939Y25397359D01*
X38086304Y25154405D01*
X38035000Y24896486D01*
X38035000Y24633514D01*
X38059874Y24508463D01*
X37156411Y23605000D01*
X34378711Y23605000D01*
X34319774Y23663937D01*
X34150256Y23777205D01*
X33961898Y23855226D01*
X33761939Y23895000D01*
X33558061Y23895000D01*
X33358102Y23855226D01*
X33169744Y23777205D01*
X33000226Y23663937D01*
X32856063Y23519774D01*
X32742795Y23350256D01*
X32664774Y23161898D01*
X32625000Y22961939D01*
X32625000Y22758061D01*
X32648483Y22640001D01*
X27646583Y22640001D01*
X27610000Y22643604D01*
X27573418Y22640001D01*
X27573409Y22640001D01*
X27463956Y22629221D01*
X27323523Y22586621D01*
X27300379Y22574250D01*
X27194098Y22517442D01*
X27148475Y22480000D01*
X27080658Y22424344D01*
X27057332Y22395921D01*
X26926537Y22265126D01*
X26801486Y22290000D01*
X26538514Y22290000D01*
X26280595Y22238696D01*
X26037641Y22138061D01*
X25818987Y21991962D01*
X25633038Y21806013D01*
X25486939Y21587359D01*
X25386304Y21344405D01*
X25335000Y21086486D01*
X25335000Y20823514D01*
X25386304Y20565595D01*
X25486939Y20322641D01*
X25558861Y20215001D01*
X20161139Y20215001D01*
X20233061Y20322641D01*
X20333696Y20565595D01*
X20385000Y20823514D01*
X20385000Y21086486D01*
X20333696Y21344405D01*
X20233061Y21587359D01*
X20086962Y21806013D01*
X19901013Y21991962D01*
X19682359Y22138061D01*
X19439405Y22238696D01*
X19181486Y22290000D01*
X18918514Y22290000D01*
X18660595Y22238696D01*
X18417641Y22138061D01*
X18198987Y21991962D01*
X18013038Y21806013D01*
X17866939Y21587359D01*
X17766304Y21344405D01*
X17715000Y21086486D01*
X17715000Y20823514D01*
X17766304Y20565595D01*
X17866939Y20322641D01*
X17938861Y20215001D01*
X14820000Y20215001D01*
X14820000Y20466260D01*
X14762932Y20753158D01*
X14650990Y21023411D01*
X14488475Y21266632D01*
X14281632Y21473475D01*
X14107240Y21590000D01*
X14281632Y21706525D01*
X14488475Y21913368D01*
X14650990Y22156589D01*
X14762932Y22426842D01*
X14820000Y22713740D01*
X14820000Y23006260D01*
X14762932Y23293158D01*
X14650990Y23563411D01*
X14488475Y23806632D01*
X14281632Y24013475D01*
X14271867Y24020000D01*
X17942203Y24020000D01*
X18013038Y23913987D01*
X18198987Y23728038D01*
X18417641Y23581939D01*
X18660595Y23481304D01*
X18918514Y23430000D01*
X19181486Y23430000D01*
X19439405Y23481304D01*
X19682359Y23581939D01*
X19901013Y23728038D01*
X20086962Y23913987D01*
X20233061Y24132641D01*
X20333696Y24375595D01*
X20385000Y24633514D01*
X20385000Y24896486D01*
X20333696Y25154405D01*
X20233061Y25397359D01*
X20086962Y25616013D01*
X19901013Y25801962D01*
X19882752Y25814163D01*
X23360920Y29292331D01*
X23389343Y29315657D01*
X23432244Y29367932D01*
X23482441Y29429097D01*
X23541818Y29540184D01*
X23551620Y29558522D01*
X23594220Y29698955D01*
X23605000Y29808408D01*
X23605000Y29808410D01*
X23608604Y29845000D01*
X23605000Y29881590D01*
X23605000Y31096799D01*
X23806632Y31231525D01*
X24013475Y31438368D01*
X24130000Y31612760D01*
X24246525Y31438368D01*
X24453368Y31231525D01*
X24655000Y31096799D01*
X24655001Y26071600D01*
X24651396Y26035000D01*
X24665781Y25888955D01*
X24708381Y25748522D01*
X24777559Y25619098D01*
X24847331Y25534080D01*
X24847337Y25534074D01*
X24870658Y25505657D01*
X24899075Y25482336D01*
X25359874Y25021537D01*
X25335000Y24896486D01*
X25335000Y24633514D01*
X25386304Y24375595D01*
X25486939Y24132641D01*
X25633038Y23913987D01*
X25818987Y23728038D01*
X26037641Y23581939D01*
X26280595Y23481304D01*
X26538514Y23430000D01*
X26801486Y23430000D01*
X27059405Y23481304D01*
X27302359Y23581939D01*
X27521013Y23728038D01*
X27706962Y23913987D01*
X27853061Y24132641D01*
X27953696Y24375595D01*
X28005000Y24633514D01*
X28005000Y24896486D01*
X27953696Y25154405D01*
X27853061Y25397359D01*
X27706962Y25616013D01*
X27521013Y25801962D01*
X27302359Y25948061D01*
X27059405Y26048696D01*
X26801486Y26100000D01*
X26538514Y26100000D01*
X26413463Y26075126D01*
X26145000Y26343589D01*
X26145000Y27352358D01*
X26336670Y27282278D01*
X26543000Y27404799D01*
X26543000Y28448000D01*
X26797000Y28448000D01*
X26797000Y27404799D01*
X27003330Y27282278D01*
X27249123Y27372147D01*
X27472660Y27508241D01*
X27665351Y27685330D01*
X27819792Y27896608D01*
X27930047Y28133956D01*
X27962716Y28241671D01*
X27839374Y28448000D01*
X26797000Y28448000D01*
X26543000Y28448000D01*
X26523000Y28448000D01*
X26523000Y28702000D01*
X26543000Y28702000D01*
X26543000Y29745201D01*
X26797000Y29745201D01*
X26797000Y28702000D01*
X27839374Y28702000D01*
X27962716Y28908329D01*
X27930047Y29016044D01*
X27819792Y29253392D01*
X27665351Y29464670D01*
X27472660Y29641759D01*
X27249123Y29777853D01*
X27003330Y29867722D01*
X26797000Y29745201D01*
X26543000Y29745201D01*
X26336670Y29867722D01*
X26145000Y29797642D01*
X26145000Y31096799D01*
X26346632Y31231525D01*
X26553475Y31438368D01*
X26670000Y31612760D01*
X26786525Y31438368D01*
X26993368Y31231525D01*
X27236589Y31069010D01*
X27506842Y30957068D01*
X27793740Y30900000D01*
X28086260Y30900000D01*
X28324101Y30947310D01*
X29314942Y29956469D01*
X29338268Y29928046D01*
X29366691Y29904720D01*
X29451708Y29834948D01*
X29520887Y29797971D01*
X29581133Y29765769D01*
X29721566Y29723169D01*
X29831019Y29712389D01*
X29831021Y29712389D01*
X29867611Y29708785D01*
X29904201Y29712389D01*
X31049288Y29712389D01*
X30898987Y29611962D01*
X30713038Y29426013D01*
X30566939Y29207359D01*
X30466304Y28964405D01*
X30415000Y28706486D01*
X30415000Y28443514D01*
X30466304Y28185595D01*
X30566939Y27942641D01*
X30713038Y27723987D01*
X30898987Y27538038D01*
X31117641Y27391939D01*
X31360595Y27291304D01*
X31618514Y27240000D01*
X31881486Y27240000D01*
X32139405Y27291304D01*
X32382359Y27391939D01*
X32601013Y27538038D01*
X32786962Y27723987D01*
X32933061Y27942641D01*
X33033696Y28185595D01*
X33085000Y28443514D01*
X33085000Y28706486D01*
X33033696Y28964405D01*
X32933061Y29207359D01*
X32786962Y29426013D01*
X32601013Y29611962D01*
X32450712Y29712389D01*
X38669288Y29712389D01*
X38518987Y29611962D01*
X38333038Y29426013D01*
X38186939Y29207359D01*
X38086304Y28964405D01*
X38035000Y28706486D01*
X38035000Y28443514D01*
X38059874Y28318463D01*
X36521411Y26780000D01*
X33738711Y26780000D01*
X33679774Y26838937D01*
X33510256Y26952205D01*
X33321898Y27030226D01*
X33121939Y27070000D01*
X32918061Y27070000D01*
X32718102Y27030226D01*
X32529744Y26952205D01*
X32360226Y26838937D01*
X32216063Y26694774D01*
X32102795Y26525256D01*
X32024774Y26336898D01*
X31985000Y26136939D01*
X31985000Y26079409D01*
X31881486Y26100000D01*
X31618514Y26100000D01*
X31360595Y26048696D01*
X31117641Y25948061D01*
X30898987Y25801962D01*
X30713038Y25616013D01*
X30566939Y25397359D01*
X30466304Y25154405D01*
X30415000Y24896486D01*
X30415000Y24633514D01*
X30466304Y24375595D01*
X30566939Y24132641D01*
X30713038Y23913987D01*
X30898987Y23728038D01*
X31117641Y23581939D01*
X31360595Y23481304D01*
X31618514Y23430000D01*
X31881486Y23430000D01*
X32139405Y23481304D01*
X32382359Y23581939D01*
X32601013Y23728038D01*
X32786962Y23913987D01*
X32933061Y24132641D01*
X33033696Y24375595D01*
X33085000Y24633514D01*
X33085000Y24896486D01*
X33064409Y25000000D01*
X33121939Y25000000D01*
X33321898Y25039774D01*
X33510256Y25117795D01*
X33679774Y25231063D01*
X33738711Y25290000D01*
X36793410Y25290000D01*
X36830000Y25286396D01*
X36866590Y25290000D01*
X36866592Y25290000D01*
X36976045Y25300780D01*
X37116478Y25343380D01*
X37245902Y25412559D01*
X37359343Y25505657D01*
X37382669Y25534080D01*
X39113463Y27264874D01*
X39238514Y27240000D01*
X39501486Y27240000D01*
X39759405Y27291304D01*
X40002359Y27391939D01*
X40221013Y27538038D01*
X40406962Y27723987D01*
X40553061Y27942641D01*
X40653696Y28185595D01*
X40664850Y28241670D01*
X41887278Y28241670D01*
X41977147Y27995877D01*
X42113241Y27772340D01*
X42290330Y27579649D01*
X42501608Y27425208D01*
X42738956Y27314953D01*
X42846671Y27282284D01*
X43053000Y27405626D01*
X43053000Y28448000D01*
X43307000Y28448000D01*
X43307000Y27405626D01*
X43513329Y27282284D01*
X43621044Y27314953D01*
X43858392Y27425208D01*
X44069670Y27579649D01*
X44246759Y27772340D01*
X44382853Y27995877D01*
X44472722Y28241670D01*
X44350201Y28448000D01*
X43307000Y28448000D01*
X43053000Y28448000D01*
X42009799Y28448000D01*
X41887278Y28241670D01*
X40664850Y28241670D01*
X40705000Y28443514D01*
X40705000Y28706486D01*
X40653696Y28964405D01*
X40553061Y29207359D01*
X40406962Y29426013D01*
X40221013Y29611962D01*
X40070712Y29712389D01*
X42484640Y29712389D01*
X42290330Y29570351D01*
X42113241Y29377660D01*
X41977147Y29154123D01*
X41887278Y28908330D01*
X42009799Y28702000D01*
X43053000Y28702000D01*
X43053000Y28722000D01*
X43307000Y28722000D01*
X43307000Y28702000D01*
X44350201Y28702000D01*
X44472722Y28908330D01*
X44382853Y29154123D01*
X44246759Y29377660D01*
X44069670Y29570351D01*
X43875360Y29712389D01*
X46883678Y29712389D01*
X46942615Y29653452D01*
X47112133Y29540184D01*
X47300491Y29462163D01*
X47500450Y29422389D01*
X47704328Y29422389D01*
X47904287Y29462163D01*
X48092645Y29540184D01*
X48262163Y29653452D01*
X48406326Y29797615D01*
X48519594Y29967133D01*
X48597615Y30155491D01*
X48637389Y30355450D01*
X48637389Y30559328D01*
X48597615Y30759287D01*
X48519594Y30947645D01*
X48406326Y31117163D01*
X48262163Y31261326D01*
X48092645Y31374594D01*
X47904287Y31452615D01*
X47704328Y31492389D01*
X47500450Y31492389D01*
X47300491Y31452615D01*
X47112133Y31374594D01*
X46942615Y31261326D01*
X46883678Y31202389D01*
X44572234Y31202389D01*
X44619502Y31290820D01*
X44655812Y31410518D01*
X44668072Y31535000D01*
X44668072Y33235000D01*
X44655812Y33359482D01*
X44619502Y33479180D01*
X44560537Y33589494D01*
X44503400Y33659115D01*
X44729759Y33810363D01*
X44929637Y34010241D01*
X45086680Y34245273D01*
X45194853Y34506426D01*
X45250000Y34783665D01*
X45250000Y35066335D01*
X45194853Y35343574D01*
X45115562Y35535000D01*
X52672721Y35535000D01*
X52822869Y35520278D01*
G37*
G04 #@! TD.AperFunction*
D23*
X40767000Y32512000D02*
X40787000Y32512000D01*
X40787000Y32258000D01*
X40767000Y32258000D01*
X40767000Y32238000D01*
X40513000Y32238000D01*
X40513000Y32258000D01*
X40493000Y32258000D01*
X40493000Y32512000D01*
X40513000Y32512000D01*
X40513000Y32532000D01*
X40767000Y32532000D01*
X40767000Y32512000D01*
G04 #@! TA.AperFunction,Conductor*
D24*
G36*
X40767000Y32512000D02*
G01*
X40787000Y32512000D01*
X40787000Y32258000D01*
X40767000Y32258000D01*
X40767000Y32238000D01*
X40513000Y32238000D01*
X40513000Y32258000D01*
X40493000Y32258000D01*
X40493000Y32512000D01*
X40513000Y32512000D01*
X40513000Y32532000D01*
X40767000Y32532000D01*
X40767000Y32512000D01*
G37*
G04 #@! TD.AperFunction*
D23*
X39957429Y35411004D02*
X39888700Y35136816D01*
X39874783Y34854488D01*
X39916213Y34574870D01*
X40011397Y34308708D01*
X40078329Y34183486D01*
X40322298Y34111903D01*
X41135395Y34925000D01*
X41121253Y34939142D01*
X41300858Y35118747D01*
X41315000Y35104605D01*
X41329143Y35118747D01*
X41508748Y34939142D01*
X41494605Y34925000D01*
X42307702Y34111903D01*
X42551671Y34183486D01*
X42565324Y34212341D01*
X42700363Y34010241D01*
X42837532Y33873072D01*
X42330000Y33873072D01*
X42205518Y33860812D01*
X42097509Y33828048D01*
X42128097Y33932298D01*
X41315000Y34745395D01*
X40501903Y33932298D01*
X40520182Y33870000D01*
X40512998Y33870000D01*
X40512998Y33705156D01*
X40283110Y33826476D01*
X40135901Y33781825D01*
X39873080Y33656641D01*
X39639731Y33482588D01*
X39444822Y33266355D01*
X39375195Y33149466D01*
X39253475Y33331632D01*
X39046632Y33538475D01*
X38803411Y33700990D01*
X38533158Y33812932D01*
X38246260Y33870000D01*
X37953740Y33870000D01*
X37666842Y33812932D01*
X37554409Y33766361D01*
X37603097Y33932298D01*
X36790000Y34745395D01*
X35976903Y33932298D01*
X36014523Y33804082D01*
X35993158Y33812932D01*
X35706260Y33870000D01*
X35413740Y33870000D01*
X35227313Y33832917D01*
X35404637Y34010241D01*
X35538692Y34210869D01*
X35553329Y34183486D01*
X35797298Y34111903D01*
X36610395Y34925000D01*
X36596253Y34939142D01*
X36775858Y35118747D01*
X36790000Y35104605D01*
X36804143Y35118747D01*
X36983748Y34939142D01*
X36969605Y34925000D01*
X37782702Y34111903D01*
X38026671Y34183486D01*
X38147571Y34438996D01*
X38216300Y34713184D01*
X38230217Y34995512D01*
X38188787Y35275130D01*
X38095853Y35535000D01*
X40016100Y35535000D01*
X39957429Y35411004D01*
G04 #@! TA.AperFunction,Conductor*
D24*
G36*
X39957429Y35411004D02*
G01*
X39888700Y35136816D01*
X39874783Y34854488D01*
X39916213Y34574870D01*
X40011397Y34308708D01*
X40078329Y34183486D01*
X40322298Y34111903D01*
X41135395Y34925000D01*
X41121253Y34939142D01*
X41300858Y35118747D01*
X41315000Y35104605D01*
X41329143Y35118747D01*
X41508748Y34939142D01*
X41494605Y34925000D01*
X42307702Y34111903D01*
X42551671Y34183486D01*
X42565324Y34212341D01*
X42700363Y34010241D01*
X42837532Y33873072D01*
X42330000Y33873072D01*
X42205518Y33860812D01*
X42097509Y33828048D01*
X42128097Y33932298D01*
X41315000Y34745395D01*
X40501903Y33932298D01*
X40520182Y33870000D01*
X40512998Y33870000D01*
X40512998Y33705156D01*
X40283110Y33826476D01*
X40135901Y33781825D01*
X39873080Y33656641D01*
X39639731Y33482588D01*
X39444822Y33266355D01*
X39375195Y33149466D01*
X39253475Y33331632D01*
X39046632Y33538475D01*
X38803411Y33700990D01*
X38533158Y33812932D01*
X38246260Y33870000D01*
X37953740Y33870000D01*
X37666842Y33812932D01*
X37554409Y33766361D01*
X37603097Y33932298D01*
X36790000Y34745395D01*
X35976903Y33932298D01*
X36014523Y33804082D01*
X35993158Y33812932D01*
X35706260Y33870000D01*
X35413740Y33870000D01*
X35227313Y33832917D01*
X35404637Y34010241D01*
X35538692Y34210869D01*
X35553329Y34183486D01*
X35797298Y34111903D01*
X36610395Y34925000D01*
X36596253Y34939142D01*
X36775858Y35118747D01*
X36790000Y35104605D01*
X36804143Y35118747D01*
X36983748Y34939142D01*
X36969605Y34925000D01*
X37782702Y34111903D01*
X38026671Y34183486D01*
X38147571Y34438996D01*
X38216300Y34713184D01*
X38230217Y34995512D01*
X38188787Y35275130D01*
X38095853Y35535000D01*
X40016100Y35535000D01*
X39957429Y35411004D01*
G37*
G04 #@! TD.AperFunction*
D23*
X18940147Y35343574D02*
X18885000Y35066335D01*
X18885000Y34783665D01*
X18924832Y34583421D01*
X18164101Y33822690D01*
X17926260Y33870000D01*
X17633740Y33870000D01*
X17346842Y33812932D01*
X17076589Y33700990D01*
X16833368Y33538475D01*
X16626525Y33331632D01*
X16510000Y33157240D01*
X16393475Y33331632D01*
X16202280Y33522827D01*
X16225130Y33526213D01*
X16491292Y33621397D01*
X16616514Y33688329D01*
X16688097Y33932298D01*
X15875000Y34745395D01*
X15860858Y34731252D01*
X15681253Y34910857D01*
X15695395Y34925000D01*
X15681253Y34939142D01*
X15860858Y35118747D01*
X15875000Y35104605D01*
X15889143Y35118747D01*
X16068748Y34939142D01*
X16054605Y34925000D01*
X16867702Y34111903D01*
X17111671Y34183486D01*
X17232571Y34438996D01*
X17301300Y34713184D01*
X17315217Y34995512D01*
X17273787Y35275130D01*
X17180853Y35535000D01*
X19019438Y35535000D01*
X18940147Y35343574D01*
G04 #@! TA.AperFunction,Conductor*
D24*
G36*
X18940147Y35343574D02*
G01*
X18885000Y35066335D01*
X18885000Y34783665D01*
X18924832Y34583421D01*
X18164101Y33822690D01*
X17926260Y33870000D01*
X17633740Y33870000D01*
X17346842Y33812932D01*
X17076589Y33700990D01*
X16833368Y33538475D01*
X16626525Y33331632D01*
X16510000Y33157240D01*
X16393475Y33331632D01*
X16202280Y33522827D01*
X16225130Y33526213D01*
X16491292Y33621397D01*
X16616514Y33688329D01*
X16688097Y33932298D01*
X15875000Y34745395D01*
X15860858Y34731252D01*
X15681253Y34910857D01*
X15695395Y34925000D01*
X15681253Y34939142D01*
X15860858Y35118747D01*
X15875000Y35104605D01*
X15889143Y35118747D01*
X16068748Y34939142D01*
X16054605Y34925000D01*
X16867702Y34111903D01*
X17111671Y34183486D01*
X17232571Y34438996D01*
X17301300Y34713184D01*
X17315217Y34995512D01*
X17273787Y35275130D01*
X17180853Y35535000D01*
X19019438Y35535000D01*
X18940147Y35343574D01*
G37*
G04 #@! TD.AperFunction*
D23*
X23013748Y34939142D02*
X22999605Y34925000D01*
X23013748Y34910857D01*
X22834143Y34731252D01*
X22820000Y34745395D01*
X22805858Y34731252D01*
X22626253Y34910857D01*
X22640395Y34925000D01*
X22626253Y34939142D01*
X22805858Y35118747D01*
X22820000Y35104605D01*
X22834143Y35118747D01*
X23013748Y34939142D01*
G04 #@! TA.AperFunction,Conductor*
D24*
G36*
X23013748Y34939142D02*
G01*
X22999605Y34925000D01*
X23013748Y34910857D01*
X22834143Y34731252D01*
X22820000Y34745395D01*
X22805858Y34731252D01*
X22626253Y34910857D01*
X22640395Y34925000D01*
X22626253Y34939142D01*
X22805858Y35118747D01*
X22820000Y35104605D01*
X22834143Y35118747D01*
X23013748Y34939142D01*
G37*
G04 #@! TD.AperFunction*
D23*
X27498748Y34939142D02*
X27484605Y34925000D01*
X27498748Y34910857D01*
X27319143Y34731252D01*
X27305000Y34745395D01*
X27290858Y34731252D01*
X27111253Y34910857D01*
X27125395Y34925000D01*
X27111253Y34939142D01*
X27290858Y35118747D01*
X27305000Y35104605D01*
X27319143Y35118747D01*
X27498748Y34939142D01*
G04 #@! TA.AperFunction,Conductor*
D24*
G36*
X27498748Y34939142D02*
G01*
X27484605Y34925000D01*
X27498748Y34910857D01*
X27319143Y34731252D01*
X27305000Y34745395D01*
X27290858Y34731252D01*
X27111253Y34910857D01*
X27125395Y34925000D01*
X27111253Y34939142D01*
X27290858Y35118747D01*
X27305000Y35104605D01*
X27319143Y35118747D01*
X27498748Y34939142D01*
G37*
G04 #@! TD.AperFunction*
G04 #@! TD*
M02*
