M48
INCH,TZ
T1C0.0276
T2C0.0295
T3C0.0315
T4C0.0394
%
G90
G05
T1
X17000Y11250
X17000Y8250
X7500Y8250
X10500Y8250
X12500Y6750
X15500Y6750
X7500Y6750
X10500Y6750
X12500Y9750
X15500Y9750
X12500Y11250
X15500Y11250
X7500Y11250
X10500Y11250
X12500Y8250
X15500Y8250
X7500Y9750
X10500Y9750
T2
X20500Y6000
X20500Y5213
X20500Y4425
X20500Y3638
T3
X17500Y6500
X17500Y5516
X10750Y13750
X11734Y13750
X18750Y7750
X20128Y7750
X16266Y13750
X17250Y13750
X13500Y13750
X14484Y13750
X8000Y13750
X8984Y13750
X5266Y13750
X6250Y13750
X18500Y4234
X18500Y3250
T4
X2000Y2000
X3000Y2000
X4000Y2000
X5000Y2000
X6000Y2000
X7000Y2000
X8000Y2000
X9000Y2000
X10000Y2000
X11000Y2000
X12000Y2000
X13000Y2000
X14000Y2000
X15000Y2000
X16000Y2000
X17000Y2000
X18000Y2000
X19000Y2000
X20000Y2000
X21000Y2000
X22000Y2000
X2000Y9500
X2000Y8500
X2000Y7500
X22000Y12000
X22000Y11000
X22000Y10000
X22000Y9000
X22000Y8000
X22000Y7000
X22000Y6000
X22000Y5000
X7000Y5250
X8000Y5250
X9000Y5250
X10000Y5250
X11000Y5250
X12000Y5250
X13000Y5250
X14000Y5250
X15000Y5250
X16000Y5250
X6000Y12750
X7000Y12750
X8000Y12750
X9000Y12750
X10000Y12750
X11000Y12750
X12000Y12750
X13000Y12750
X14000Y12750
X15000Y12750
X16000Y12750
X17000Y12750
X4250Y5000
X4250Y4000
X3000Y12000
X3000Y11000
X3000Y10000
X3000Y9000
X3000Y8000
X3000Y7000
X3000Y6000
X3000Y5000
X6000Y3750
X7000Y3750
X8000Y3750
X9000Y3750
X10000Y3750
X11000Y3750
X12000Y3750
X13000Y3750
X14000Y3750
X15000Y3750
X16000Y3750
X17000Y3750
X4234Y12984
X4234Y11984
X4234Y10984
X4250Y9000
X4250Y8000
X4250Y7000
X4250Y6000
X5250Y9000
X5250Y8000
X5250Y7000
X5250Y6000
X2000Y13500
X2000Y12500
X2000Y11500
X2000Y6250
X2000Y5250
X2000Y4250
T0
M30
