M48
; DRILL file {KiCad (5.1.10)-1} date 08/27/21 08:09:19
; FORMAT={-:-/ absolute / inch / decimal}
; #@! TF.CreationDate,2021-08-27T08:09:19+02:00
; #@! TF.GenerationSoftware,Kicad,Pcbnew,(5.1.10)-1
; #@! TF.FileFunction,Plated,1,2,PTH
FMAT,2
INCH
T1C0.0157
T2C0.0276
T3C0.0295
T4C0.0315
T5C0.0394
%
G90
G05
T1
X1.3Y1.025
X1.3252Y0.9
X1.4748Y0.775
X1.8741Y1.1991
T2
X0.75Y1.125
X0.75Y0.975
X0.75Y0.825
X0.75Y0.675
X1.05Y1.125
X1.05Y0.975
X1.05Y0.825
X1.05Y0.675
X1.25Y1.125
X1.25Y0.975
X1.25Y0.825
X1.25Y0.675
X1.55Y1.125
X1.55Y0.975
X1.55Y0.825
X1.55Y0.675
X1.7Y1.125
X1.7Y0.825
T3
X2.05Y0.6
X2.05Y0.5213
X2.05Y0.4425
X2.05Y0.3638
T4
X0.5266Y1.375
X0.625Y1.375
X0.8Y1.375
X0.8984Y1.375
X1.075Y1.375
X1.1734Y1.375
X1.35Y1.375
X1.4484Y1.375
X1.6266Y1.375
X1.725Y1.375
X1.75Y0.65
X1.75Y0.5516
X1.85Y0.4234
X1.85Y0.325
X1.875Y0.775
X2.0128Y0.775
T5
X0.2Y1.35
X0.2Y1.25
X0.2Y1.15
X0.2Y0.95
X0.2Y0.85
X0.2Y0.75
X0.2Y0.625
X0.2Y0.525
X0.2Y0.425
X0.2Y0.2
X0.3Y1.2
X0.3Y1.1
X0.3Y1.0
X0.3Y0.9
X0.3Y0.8
X0.3Y0.7
X0.3Y0.6
X0.3Y0.5
X0.3Y0.2
X0.4Y0.2
X0.425Y1.3
X0.425Y1.2
X0.425Y1.1
X0.425Y0.9
X0.425Y0.8
X0.425Y0.7
X0.425Y0.6
X0.425Y0.5
X0.425Y0.4
X0.5Y0.2
X0.525Y0.9
X0.525Y0.8
X0.525Y0.7
X0.525Y0.6
X0.6Y1.275
X0.6Y0.375
X0.6Y0.2
X0.7Y1.275
X0.7Y0.525
X0.7Y0.375
X0.7Y0.2
X0.8Y1.275
X0.8Y0.525
X0.8Y0.375
X0.8Y0.2
X0.9Y1.275
X0.9Y0.525
X0.9Y0.375
X0.9Y0.2
X1.0Y1.275
X1.0Y0.525
X1.0Y0.375
X1.0Y0.2
X1.1Y1.275
X1.1Y0.525
X1.1Y0.375
X1.1Y0.2
X1.2Y1.275
X1.2Y0.525
X1.2Y0.375
X1.2Y0.2
X1.3Y1.275
X1.3Y0.525
X1.3Y0.375
X1.3Y0.2
X1.4Y1.275
X1.4Y0.525
X1.4Y0.375
X1.4Y0.2
X1.5Y1.275
X1.5Y0.525
X1.5Y0.375
X1.5Y0.2
X1.6Y1.275
X1.6Y0.525
X1.6Y0.375
X1.6Y0.2
X1.7Y1.275
X1.7Y0.375
X1.7Y0.2
X1.8Y0.2
X1.9Y0.2
X2.0Y0.2
X2.1Y0.2
X2.2Y1.2
X2.2Y1.1
X2.2Y1.0
X2.2Y0.9
X2.2Y0.8
X2.2Y0.7
X2.2Y0.6
X2.2Y0.5
X2.2Y0.2
T0
M30
