G04 #@! TF.GenerationSoftware,KiCad,Pcbnew,(5.1.10)-1*
G04 #@! TF.CreationDate,2021-08-27T13:40:13+02:00*
G04 #@! TF.ProjectId,JuntekOnSteroidsTTGO,4a756e74-656b-44f6-9e53-7465726f6964,3.1*
G04 #@! TF.SameCoordinates,PX5b716c8PY5b716c8*
G04 #@! TF.FileFunction,Legend,Bot*
G04 #@! TF.FilePolarity,Positive*
%FSLAX46Y46*%
G04 Gerber Fmt 4.6, Leading zero omitted, Abs format (unit mm)*
G04 Created by KiCad (PCBNEW (5.1.10)-1) date 2021-08-27 13:40:13*
%MOMM*%
%LPD*%
G01*
G04 APERTURE LIST*
%ADD10C,0.150000*%
%ADD11C,0.120000*%
G04 APERTURE END LIST*
D10*
X51796904Y24193334D02*
X51796904Y24650477D01*
X51796904Y24421905D02*
X50996904Y24421905D01*
X51111190Y24498096D01*
X51187380Y24574286D01*
X51225476Y24650477D01*
X51073095Y23888572D02*
X51035000Y23850477D01*
X50996904Y23774286D01*
X50996904Y23583810D01*
X51035000Y23507620D01*
X51073095Y23469524D01*
X51149285Y23431429D01*
X51225476Y23431429D01*
X51339761Y23469524D01*
X51796904Y23926667D01*
X51796904Y23431429D01*
X50958809Y22517143D02*
X51987380Y23202858D01*
X50996904Y22326667D02*
X50996904Y21831429D01*
X51301666Y22098096D01*
X51301666Y21983810D01*
X51339761Y21907620D01*
X51377857Y21869524D01*
X51454047Y21831429D01*
X51644523Y21831429D01*
X51720714Y21869524D01*
X51758809Y21907620D01*
X51796904Y21983810D01*
X51796904Y22212381D01*
X51758809Y22288572D01*
X51720714Y22326667D01*
X51263571Y21145715D02*
X51796904Y21145715D01*
X50958809Y21336191D02*
X51530238Y21526667D01*
X51530238Y21031429D01*
X38772142Y11068096D02*
X38772142Y11868096D01*
X38581666Y11868096D01*
X38467380Y11830000D01*
X38391190Y11753810D01*
X38353095Y11677620D01*
X38315000Y11525239D01*
X38315000Y11410953D01*
X38353095Y11258572D01*
X38391190Y11182381D01*
X38467380Y11106191D01*
X38581666Y11068096D01*
X38772142Y11068096D01*
X37972142Y11068096D02*
X37972142Y11601429D01*
X37972142Y11449048D02*
X37934047Y11525239D01*
X37895952Y11563334D01*
X37819761Y11601429D01*
X37743571Y11601429D01*
X37362619Y11068096D02*
X37438809Y11106191D01*
X37476904Y11144286D01*
X37515000Y11220477D01*
X37515000Y11449048D01*
X37476904Y11525239D01*
X37438809Y11563334D01*
X37362619Y11601429D01*
X37248333Y11601429D01*
X37172142Y11563334D01*
X37134047Y11525239D01*
X37095952Y11449048D01*
X37095952Y11220477D01*
X37134047Y11144286D01*
X37172142Y11106191D01*
X37248333Y11068096D01*
X37362619Y11068096D01*
X36753095Y11068096D02*
X36753095Y11868096D01*
X36676904Y11372858D02*
X36448333Y11068096D01*
X36448333Y11601429D02*
X36753095Y11296667D01*
X36105476Y11372858D02*
X35495952Y11372858D01*
X34886428Y11868096D02*
X34886428Y11296667D01*
X34924523Y11182381D01*
X35000714Y11106191D01*
X35115000Y11068096D01*
X35191190Y11068096D01*
X34162619Y11601429D02*
X34162619Y11068096D01*
X34505476Y11601429D02*
X34505476Y11182381D01*
X34467380Y11106191D01*
X34391190Y11068096D01*
X34276904Y11068096D01*
X34200714Y11106191D01*
X34162619Y11144286D01*
X33781666Y11601429D02*
X33781666Y11068096D01*
X33781666Y11525239D02*
X33743571Y11563334D01*
X33667380Y11601429D01*
X33553095Y11601429D01*
X33476904Y11563334D01*
X33438809Y11487143D01*
X33438809Y11068096D01*
X33172142Y11601429D02*
X32867380Y11601429D01*
X33057857Y11868096D02*
X33057857Y11182381D01*
X33019761Y11106191D01*
X32943571Y11068096D01*
X32867380Y11068096D01*
X32295952Y11106191D02*
X32372142Y11068096D01*
X32524523Y11068096D01*
X32600714Y11106191D01*
X32638809Y11182381D01*
X32638809Y11487143D01*
X32600714Y11563334D01*
X32524523Y11601429D01*
X32372142Y11601429D01*
X32295952Y11563334D01*
X32257857Y11487143D01*
X32257857Y11410953D01*
X32638809Y11334762D01*
X31915000Y11068096D02*
X31915000Y11868096D01*
X31838809Y11372858D02*
X31610238Y11068096D01*
X31610238Y11601429D02*
X31915000Y11296667D01*
X31267380Y11372858D02*
X30657857Y11372858D01*
X30162619Y11068096D02*
X30238809Y11106191D01*
X30276904Y11144286D01*
X30315000Y11220477D01*
X30315000Y11449048D01*
X30276904Y11525239D01*
X30238809Y11563334D01*
X30162619Y11601429D01*
X30048333Y11601429D01*
X29972142Y11563334D01*
X29934047Y11525239D01*
X29895952Y11449048D01*
X29895952Y11220477D01*
X29934047Y11144286D01*
X29972142Y11106191D01*
X30048333Y11068096D01*
X30162619Y11068096D01*
X29553095Y11601429D02*
X29553095Y11068096D01*
X29553095Y11525239D02*
X29515000Y11563334D01*
X29438809Y11601429D01*
X29324523Y11601429D01*
X29248333Y11563334D01*
X29210238Y11487143D01*
X29210238Y11068096D01*
X28829285Y11372858D02*
X28219761Y11372858D01*
X27876904Y11106191D02*
X27800714Y11068096D01*
X27648333Y11068096D01*
X27572142Y11106191D01*
X27534047Y11182381D01*
X27534047Y11220477D01*
X27572142Y11296667D01*
X27648333Y11334762D01*
X27762619Y11334762D01*
X27838809Y11372858D01*
X27876904Y11449048D01*
X27876904Y11487143D01*
X27838809Y11563334D01*
X27762619Y11601429D01*
X27648333Y11601429D01*
X27572142Y11563334D01*
X27305476Y11601429D02*
X27000714Y11601429D01*
X27191190Y11868096D02*
X27191190Y11182381D01*
X27153095Y11106191D01*
X27076904Y11068096D01*
X27000714Y11068096D01*
X26429285Y11106191D02*
X26505476Y11068096D01*
X26657857Y11068096D01*
X26734047Y11106191D01*
X26772142Y11182381D01*
X26772142Y11487143D01*
X26734047Y11563334D01*
X26657857Y11601429D01*
X26505476Y11601429D01*
X26429285Y11563334D01*
X26391190Y11487143D01*
X26391190Y11410953D01*
X26772142Y11334762D01*
X26048333Y11068096D02*
X26048333Y11601429D01*
X26048333Y11449048D02*
X26010238Y11525239D01*
X25972142Y11563334D01*
X25895952Y11601429D01*
X25819761Y11601429D01*
X25438809Y11068096D02*
X25515000Y11106191D01*
X25553095Y11144286D01*
X25591190Y11220477D01*
X25591190Y11449048D01*
X25553095Y11525239D01*
X25515000Y11563334D01*
X25438809Y11601429D01*
X25324523Y11601429D01*
X25248333Y11563334D01*
X25210238Y11525239D01*
X25172142Y11449048D01*
X25172142Y11220477D01*
X25210238Y11144286D01*
X25248333Y11106191D01*
X25324523Y11068096D01*
X25438809Y11068096D01*
X24829285Y11068096D02*
X24829285Y11601429D01*
X24829285Y11868096D02*
X24867380Y11830000D01*
X24829285Y11791905D01*
X24791190Y11830000D01*
X24829285Y11868096D01*
X24829285Y11791905D01*
X24105476Y11068096D02*
X24105476Y11868096D01*
X24105476Y11106191D02*
X24181666Y11068096D01*
X24334047Y11068096D01*
X24410238Y11106191D01*
X24448333Y11144286D01*
X24486428Y11220477D01*
X24486428Y11449048D01*
X24448333Y11525239D01*
X24410238Y11563334D01*
X24334047Y11601429D01*
X24181666Y11601429D01*
X24105476Y11563334D01*
X23762619Y11106191D02*
X23686428Y11068096D01*
X23534047Y11068096D01*
X23457857Y11106191D01*
X23419761Y11182381D01*
X23419761Y11220477D01*
X23457857Y11296667D01*
X23534047Y11334762D01*
X23648333Y11334762D01*
X23724523Y11372858D01*
X23762619Y11449048D01*
X23762619Y11487143D01*
X23724523Y11563334D01*
X23648333Y11601429D01*
X23534047Y11601429D01*
X23457857Y11563334D01*
D11*
G04 #@! TO.C,J12*
X6410000Y9465000D02*
X3750000Y9465000D01*
X6410000Y14605000D02*
X6410000Y9465000D01*
X3750000Y14605000D02*
X3750000Y9465000D01*
X6410000Y14605000D02*
X3750000Y14605000D01*
X6410000Y15875000D02*
X6410000Y17205000D01*
X6410000Y17205000D02*
X5080000Y17205000D01*
G04 #@! TO.C,J11*
X6410000Y17720000D02*
X3750000Y17720000D01*
X6410000Y22860000D02*
X6410000Y17720000D01*
X3750000Y22860000D02*
X3750000Y17720000D01*
X6410000Y22860000D02*
X3750000Y22860000D01*
X6410000Y24130000D02*
X6410000Y25460000D01*
X6410000Y25460000D02*
X5080000Y25460000D01*
G04 #@! TO.C,JP1*
X54540000Y24060000D02*
X54840000Y23760000D01*
X54840000Y24360000D02*
X54840000Y23760000D01*
X54540000Y24060000D02*
X54840000Y24360000D01*
X53640000Y24910000D02*
X53040000Y24910000D01*
X54340000Y21460000D02*
X54340000Y24260000D01*
X53040000Y20810000D02*
X53640000Y20810000D01*
X52340000Y24260000D02*
X52340000Y21460000D01*
X53040000Y24910000D02*
G75*
G03*
X52340000Y24210000I0J-700000D01*
G01*
X54340000Y24210000D02*
G75*
G03*
X53640000Y24910000I-700000J0D01*
G01*
X53640000Y20810000D02*
G75*
G03*
X54340000Y21510000I0J700000D01*
G01*
X52340000Y21510000D02*
G75*
G03*
X53040000Y20810000I700000J0D01*
G01*
G04 #@! TO.C,J30*
X3810000Y6350000D02*
X3810000Y5080000D01*
X5080000Y6350000D02*
X3810000Y6350000D01*
X56260000Y4037071D02*
X56260000Y3640000D01*
X55500000Y4037071D02*
X55500000Y3640000D01*
X56260000Y-5020000D02*
X56260000Y980000D01*
X55500000Y-5020000D02*
X56260000Y-5020000D01*
X55500000Y980000D02*
X55500000Y-5020000D01*
X54610000Y3640000D02*
X54610000Y980000D01*
X53720000Y4037071D02*
X53720000Y3640000D01*
X52960000Y4037071D02*
X52960000Y3640000D01*
X53720000Y-5020000D02*
X53720000Y980000D01*
X52960000Y-5020000D02*
X53720000Y-5020000D01*
X52960000Y980000D02*
X52960000Y-5020000D01*
X52070000Y3640000D02*
X52070000Y980000D01*
X51180000Y4037071D02*
X51180000Y3640000D01*
X50420000Y4037071D02*
X50420000Y3640000D01*
X51180000Y-5020000D02*
X51180000Y980000D01*
X50420000Y-5020000D02*
X51180000Y-5020000D01*
X50420000Y980000D02*
X50420000Y-5020000D01*
X49530000Y3640000D02*
X49530000Y980000D01*
X48640000Y4037071D02*
X48640000Y3640000D01*
X47880000Y4037071D02*
X47880000Y3640000D01*
X48640000Y-5020000D02*
X48640000Y980000D01*
X47880000Y-5020000D02*
X48640000Y-5020000D01*
X47880000Y980000D02*
X47880000Y-5020000D01*
X46990000Y3640000D02*
X46990000Y980000D01*
X46100000Y4037071D02*
X46100000Y3640000D01*
X45340000Y4037071D02*
X45340000Y3640000D01*
X46100000Y-5020000D02*
X46100000Y980000D01*
X45340000Y-5020000D02*
X46100000Y-5020000D01*
X45340000Y980000D02*
X45340000Y-5020000D01*
X44450000Y3640000D02*
X44450000Y980000D01*
X43560000Y4037071D02*
X43560000Y3640000D01*
X42800000Y4037071D02*
X42800000Y3640000D01*
X43560000Y-5020000D02*
X43560000Y980000D01*
X42800000Y-5020000D02*
X43560000Y-5020000D01*
X42800000Y980000D02*
X42800000Y-5020000D01*
X41910000Y3640000D02*
X41910000Y980000D01*
X41020000Y4037071D02*
X41020000Y3640000D01*
X40260000Y4037071D02*
X40260000Y3640000D01*
X41020000Y-5020000D02*
X41020000Y980000D01*
X40260000Y-5020000D02*
X41020000Y-5020000D01*
X40260000Y980000D02*
X40260000Y-5020000D01*
X39370000Y3640000D02*
X39370000Y980000D01*
X38480000Y4037071D02*
X38480000Y3640000D01*
X37720000Y4037071D02*
X37720000Y3640000D01*
X38480000Y-5020000D02*
X38480000Y980000D01*
X37720000Y-5020000D02*
X38480000Y-5020000D01*
X37720000Y980000D02*
X37720000Y-5020000D01*
X36830000Y3640000D02*
X36830000Y980000D01*
X35940000Y4037071D02*
X35940000Y3640000D01*
X35180000Y4037071D02*
X35180000Y3640000D01*
X35940000Y-5020000D02*
X35940000Y980000D01*
X35180000Y-5020000D02*
X35940000Y-5020000D01*
X35180000Y980000D02*
X35180000Y-5020000D01*
X34290000Y3640000D02*
X34290000Y980000D01*
X33400000Y4037071D02*
X33400000Y3640000D01*
X32640000Y4037071D02*
X32640000Y3640000D01*
X33400000Y-5020000D02*
X33400000Y980000D01*
X32640000Y-5020000D02*
X33400000Y-5020000D01*
X32640000Y980000D02*
X32640000Y-5020000D01*
X31750000Y3640000D02*
X31750000Y980000D01*
X30860000Y4037071D02*
X30860000Y3640000D01*
X30100000Y4037071D02*
X30100000Y3640000D01*
X30860000Y-5020000D02*
X30860000Y980000D01*
X30100000Y-5020000D02*
X30860000Y-5020000D01*
X30100000Y980000D02*
X30100000Y-5020000D01*
X29210000Y3640000D02*
X29210000Y980000D01*
X28320000Y4037071D02*
X28320000Y3640000D01*
X27560000Y4037071D02*
X27560000Y3640000D01*
X28320000Y-5020000D02*
X28320000Y980000D01*
X27560000Y-5020000D02*
X28320000Y-5020000D01*
X27560000Y980000D02*
X27560000Y-5020000D01*
X26670000Y3640000D02*
X26670000Y980000D01*
X25780000Y4037071D02*
X25780000Y3640000D01*
X25020000Y4037071D02*
X25020000Y3640000D01*
X25780000Y-5020000D02*
X25780000Y980000D01*
X25020000Y-5020000D02*
X25780000Y-5020000D01*
X25020000Y980000D02*
X25020000Y-5020000D01*
X24130000Y3640000D02*
X24130000Y980000D01*
X23240000Y4037071D02*
X23240000Y3640000D01*
X22480000Y4037071D02*
X22480000Y3640000D01*
X23240000Y-5020000D02*
X23240000Y980000D01*
X22480000Y-5020000D02*
X23240000Y-5020000D01*
X22480000Y980000D02*
X22480000Y-5020000D01*
X21590000Y3640000D02*
X21590000Y980000D01*
X20700000Y4037071D02*
X20700000Y3640000D01*
X19940000Y4037071D02*
X19940000Y3640000D01*
X20700000Y-5020000D02*
X20700000Y980000D01*
X19940000Y-5020000D02*
X20700000Y-5020000D01*
X19940000Y980000D02*
X19940000Y-5020000D01*
X19050000Y3640000D02*
X19050000Y980000D01*
X18160000Y4037071D02*
X18160000Y3640000D01*
X17400000Y4037071D02*
X17400000Y3640000D01*
X18160000Y-5020000D02*
X18160000Y980000D01*
X17400000Y-5020000D02*
X18160000Y-5020000D01*
X17400000Y980000D02*
X17400000Y-5020000D01*
X16510000Y3640000D02*
X16510000Y980000D01*
X15620000Y4037071D02*
X15620000Y3640000D01*
X14860000Y4037071D02*
X14860000Y3640000D01*
X15620000Y-5020000D02*
X15620000Y980000D01*
X14860000Y-5020000D02*
X15620000Y-5020000D01*
X14860000Y980000D02*
X14860000Y-5020000D01*
X13970000Y3640000D02*
X13970000Y980000D01*
X13080000Y4037071D02*
X13080000Y3640000D01*
X12320000Y4037071D02*
X12320000Y3640000D01*
X13080000Y-5020000D02*
X13080000Y980000D01*
X12320000Y-5020000D02*
X13080000Y-5020000D01*
X12320000Y980000D02*
X12320000Y-5020000D01*
X11430000Y3640000D02*
X11430000Y980000D01*
X10540000Y4037071D02*
X10540000Y3640000D01*
X9780000Y4037071D02*
X9780000Y3640000D01*
X10540000Y-5020000D02*
X10540000Y980000D01*
X9780000Y-5020000D02*
X10540000Y-5020000D01*
X9780000Y980000D02*
X9780000Y-5020000D01*
X8890000Y3640000D02*
X8890000Y980000D01*
X8000000Y4037071D02*
X8000000Y3640000D01*
X7240000Y4037071D02*
X7240000Y3640000D01*
X8000000Y-5020000D02*
X8000000Y980000D01*
X7240000Y-5020000D02*
X8000000Y-5020000D01*
X7240000Y980000D02*
X7240000Y-5020000D01*
X6350000Y3640000D02*
X6350000Y980000D01*
X5460000Y3970000D02*
X5460000Y3640000D01*
X4700000Y3970000D02*
X4700000Y3640000D01*
X5360000Y980000D02*
X5360000Y-5020000D01*
X5240000Y980000D02*
X5240000Y-5020000D01*
X5120000Y980000D02*
X5120000Y-5020000D01*
X5000000Y980000D02*
X5000000Y-5020000D01*
X4880000Y980000D02*
X4880000Y-5020000D01*
X4760000Y980000D02*
X4760000Y-5020000D01*
X5460000Y-5020000D02*
X5460000Y980000D01*
X4700000Y-5020000D02*
X5460000Y-5020000D01*
X4700000Y980000D02*
X4700000Y-5020000D01*
X3750000Y980000D02*
X3750000Y3640000D01*
X57210000Y980000D02*
X3750000Y980000D01*
X57210000Y3640000D02*
X57210000Y980000D01*
X3750000Y3640000D02*
X57210000Y3640000D01*
G04 #@! TO.C,J6*
X6350000Y35560000D02*
X5080000Y35560000D01*
X6350000Y34290000D02*
X6350000Y35560000D01*
X4037071Y28830000D02*
X3640000Y28830000D01*
X4037071Y29590000D02*
X3640000Y29590000D01*
X-5020000Y28830000D02*
X980000Y28830000D01*
X-5020000Y29590000D02*
X-5020000Y28830000D01*
X980000Y29590000D02*
X-5020000Y29590000D01*
X3640000Y30480000D02*
X980000Y30480000D01*
X4037071Y31370000D02*
X3640000Y31370000D01*
X4037071Y32130000D02*
X3640000Y32130000D01*
X-5020000Y31370000D02*
X980000Y31370000D01*
X-5020000Y32130000D02*
X-5020000Y31370000D01*
X980000Y32130000D02*
X-5020000Y32130000D01*
X3640000Y33020000D02*
X980000Y33020000D01*
X3970000Y33910000D02*
X3640000Y33910000D01*
X3970000Y34670000D02*
X3640000Y34670000D01*
X980000Y34010000D02*
X-5020000Y34010000D01*
X980000Y34130000D02*
X-5020000Y34130000D01*
X980000Y34250000D02*
X-5020000Y34250000D01*
X980000Y34370000D02*
X-5020000Y34370000D01*
X980000Y34490000D02*
X-5020000Y34490000D01*
X980000Y34610000D02*
X-5020000Y34610000D01*
X-5020000Y33910000D02*
X980000Y33910000D01*
X-5020000Y34670000D02*
X-5020000Y33910000D01*
X980000Y34670000D02*
X-5020000Y34670000D01*
X980000Y35620000D02*
X3640000Y35620000D01*
X980000Y27880000D02*
X980000Y35620000D01*
X3640000Y27880000D02*
X980000Y27880000D01*
X3640000Y35620000D02*
X3640000Y27880000D01*
G04 #@! TO.C,J2*
X57210000Y11370000D02*
X54550000Y11370000D01*
X57210000Y29210000D02*
X57210000Y11370000D01*
X54550000Y29210000D02*
X54550000Y11370000D01*
X57210000Y29210000D02*
X54550000Y29210000D01*
X57210000Y30480000D02*
X57210000Y31810000D01*
X57210000Y31810000D02*
X55880000Y31810000D01*
G04 #@! TO.C,J1*
X8950000Y11370000D02*
X6290000Y11370000D01*
X8950000Y29210000D02*
X8950000Y11370000D01*
X6290000Y29210000D02*
X6290000Y11370000D01*
X8950000Y29210000D02*
X6290000Y29210000D01*
X8950000Y30480000D02*
X8950000Y31810000D01*
X8950000Y31810000D02*
X7620000Y31810000D01*
G04 #@! TO.C,J12*
D10*
X5889523Y18752620D02*
X5889523Y18038334D01*
X5937142Y17895477D01*
X6032380Y17800239D01*
X6175238Y17752620D01*
X6270476Y17752620D01*
X4889523Y17752620D02*
X5460952Y17752620D01*
X5175238Y17752620D02*
X5175238Y18752620D01*
X5270476Y18609762D01*
X5365714Y18514524D01*
X5460952Y18466905D01*
X4508571Y18657381D02*
X4460952Y18705000D01*
X4365714Y18752620D01*
X4127619Y18752620D01*
X4032380Y18705000D01*
X3984761Y18657381D01*
X3937142Y18562143D01*
X3937142Y18466905D01*
X3984761Y18324048D01*
X4556190Y17752620D01*
X3937142Y17752620D01*
G04 #@! TO.C,J11*
X5254523Y27217620D02*
X5254523Y26503334D01*
X5302142Y26360477D01*
X5397380Y26265239D01*
X5540238Y26217620D01*
X5635476Y26217620D01*
X4254523Y26217620D02*
X4825952Y26217620D01*
X4540238Y26217620D02*
X4540238Y27217620D01*
X4635476Y27074762D01*
X4730714Y26979524D01*
X4825952Y26931905D01*
X3302142Y26217620D02*
X3873571Y26217620D01*
X3587857Y26217620D02*
X3587857Y27217620D01*
X3683095Y27074762D01*
X3778333Y26979524D01*
X3873571Y26931905D01*
G04 #@! TO.C,JP1*
X54861666Y23443334D02*
X55361666Y23443334D01*
X55461666Y23476667D01*
X55528333Y23543334D01*
X55561666Y23643334D01*
X55561666Y23710000D01*
X55561666Y23110000D02*
X54861666Y23110000D01*
X54861666Y22843334D01*
X54895000Y22776667D01*
X54928333Y22743334D01*
X54995000Y22710000D01*
X55095000Y22710000D01*
X55161666Y22743334D01*
X55195000Y22776667D01*
X55228333Y22843334D01*
X55228333Y23110000D01*
X55561666Y22043334D02*
X55561666Y22443334D01*
X55561666Y22243334D02*
X54861666Y22243334D01*
X54961666Y22310000D01*
X55028333Y22376667D01*
X55061666Y22443334D01*
G04 #@! TO.C,J30*
X5889523Y8802620D02*
X5889523Y8088334D01*
X5937142Y7945477D01*
X6032380Y7850239D01*
X6175238Y7802620D01*
X6270476Y7802620D01*
X5508571Y8802620D02*
X4889523Y8802620D01*
X5222857Y8421667D01*
X5080000Y8421667D01*
X4984761Y8374048D01*
X4937142Y8326429D01*
X4889523Y8231191D01*
X4889523Y7993096D01*
X4937142Y7897858D01*
X4984761Y7850239D01*
X5080000Y7802620D01*
X5365714Y7802620D01*
X5460952Y7850239D01*
X5508571Y7897858D01*
X4270476Y8802620D02*
X4175238Y8802620D01*
X4080000Y8755000D01*
X4032380Y8707381D01*
X3984761Y8612143D01*
X3937142Y8421667D01*
X3937142Y8183572D01*
X3984761Y7993096D01*
X4032380Y7897858D01*
X4080000Y7850239D01*
X4175238Y7802620D01*
X4270476Y7802620D01*
X4365714Y7850239D01*
X4413333Y7897858D01*
X4460952Y7993096D01*
X4508571Y8183572D01*
X4508571Y8421667D01*
X4460952Y8612143D01*
X4413333Y8707381D01*
X4365714Y8755000D01*
X4270476Y8802620D01*
G04 #@! TO.C,J6*
X7953333Y34837620D02*
X7953333Y34123334D01*
X8000952Y33980477D01*
X8096190Y33885239D01*
X8239047Y33837620D01*
X8334285Y33837620D01*
X7048571Y34837620D02*
X7239047Y34837620D01*
X7334285Y34790000D01*
X7381904Y34742381D01*
X7477142Y34599524D01*
X7524761Y34409048D01*
X7524761Y34028096D01*
X7477142Y33932858D01*
X7429523Y33885239D01*
X7334285Y33837620D01*
X7143809Y33837620D01*
X7048571Y33885239D01*
X7000952Y33932858D01*
X6953333Y34028096D01*
X6953333Y34266191D01*
X7000952Y34361429D01*
X7048571Y34409048D01*
X7143809Y34456667D01*
X7334285Y34456667D01*
X7429523Y34409048D01*
X7477142Y34361429D01*
X7524761Y34266191D01*
G04 #@! TO.C,J2*
X56213333Y10707620D02*
X56213333Y9993334D01*
X56260952Y9850477D01*
X56356190Y9755239D01*
X56499047Y9707620D01*
X56594285Y9707620D01*
X55784761Y10612381D02*
X55737142Y10660000D01*
X55641904Y10707620D01*
X55403809Y10707620D01*
X55308571Y10660000D01*
X55260952Y10612381D01*
X55213333Y10517143D01*
X55213333Y10421905D01*
X55260952Y10279048D01*
X55832380Y9707620D01*
X55213333Y9707620D01*
G04 #@! TO.C,J1*
X7953333Y10707620D02*
X7953333Y9993334D01*
X8000952Y9850477D01*
X8096190Y9755239D01*
X8239047Y9707620D01*
X8334285Y9707620D01*
X6953333Y9707620D02*
X7524761Y9707620D01*
X7239047Y9707620D02*
X7239047Y10707620D01*
X7334285Y10564762D01*
X7429523Y10469524D01*
X7524761Y10421905D01*
G04 #@! TD*
M02*
